  0
SECTION
  2
HEADER
  9
$ACADVER
  1
AC1014
  9
$HANDSEED
  5
FFFF
  9
$MEASUREMENT
 70
     1
  0
ENDSEC
  0
SECTION
  2
TABLES
  0
TABLE
  2
VPORT
  5
8
330
0
100
AcDbSymbolTable
 70
     4
  0
VPORT
  5
2E
330
8
100
AcDbSymbolTableRecord
100
AcDbViewportTableRecord
  2
*ACTIVE
 70
     0
 10
0.0
 20
0.0
 11
1.0
 21
1.0
 12
210.0
 22
148.5
 13
0.0
 23
0.0
 14
10.0
 24
10.0
 15
10.0
 25
10.0
 16
0.0
 26
0.0
 36
1.0
 17
0.0
 27
0.0
 37
0.0
 40
341.0
 41
1.24
 42
50.0
 43
0.0
 44
0.0
 50
0.0
 51
0.0
 71
     0
 72
   100
 73
     1
 74
     3
 75
     0
 76
     0
 77
     0
 78
     0
  0
ENDTAB
  0
TABLE
  2
LTYPE
  5
5
330
0
100
AcDbSymbolTable
 70
     1
  0
LTYPE
  5
14
330
5
100
AcDbSymbolTableRecord
100
AcDbLinetypeTableRecord
  2
BYBLOCK
 70
     0
  3

 72
    65
 73
     0
 40
0.0
  0
LTYPE
  5
15
330
5
100
AcDbSymbolTableRecord
100
AcDbLinetypeTableRecord
  2
BYLAYER
 70
     0
  3

 72
    65
 73
     0
 40
0.0
  0
LTYPE
  5
16
330
5
100
AcDbSymbolTableRecord
100
AcDbLinetypeTableRecord
  2
CONTINUOUS
 70
     0
  3
Solid line
 72
    65
 73
     0
 40
0.0
  0
ENDTAB
  0
TABLE
  2
LAYER
  5
2
100
AcDbSymbolTable
 70
2
  0
LAYER
  5
50
100
AcDbSymbolTableRecord
100
AcDbLayerTableRecord
  2
0
 70
0
  6
CONTINUOUS
  0
LAYER
  5
51
100
AcDbSymbolTableRecord
100
AcDbLayerTableRecord
  2
Layer_1
 70
0
  6
CONTINUOUS
  0
ENDTAB
  0
TABLE
  2
STYLE
  5
3
330
0
100
AcDbSymbolTable
 70
     1
  0
STYLE
  5
11
330
3
100
AcDbSymbolTableRecord
100
AcDbTextStyleTableRecord
  2
STANDARD
 70
     0
 40
0.0
 41
1.0
 50
0.0
 71
     0
 42
2.5
  3
txt
  4

  0
ENDTAB
  0
TABLE
  2
VIEW
  5
6
330
0
100
AcDbSymbolTable
 70
     0
  0
ENDTAB
  0
TABLE
  2
UCS
  5
7
330
0
100
AcDbSymbolTable
 70
     0
  0
ENDTAB
  0
TABLE
  2
APPID
  5
9
330
0
100
AcDbSymbolTable
 70
     2
  0
APPID
  5
12
330
9
100
AcDbSymbolTableRecord
100
AcDbRegAppTableRecord
  2
ACAD
 70
     0
  0
ENDTAB
  0
TABLE
  2
DIMSTYLE
  5
A
330
0
100
AcDbSymbolTable
 70
     1
  0
DIMSTYLE
105
27
330
A
100
AcDbSymbolTableRecord
100
AcDbDimStyleTableRecord
  2
ISO-25
 70
     0
  3

  4

  5

  6

  7

 40
1.0
 41
2.5
 42
0.625
 43
3.75
 44
1.25
 45
0.0
 46
0.0
 47
0.0
 48
0.0
140
2.5
141
2.5
142
0.0
143
0.03937007874016
144
1.0
145
0.0
146
1.0
147
0.625
 71
     0
 72
     0
 73
     0
 74
     0
 75
     0
 76
     0
 77
     1
 78
     8
170
     0
171
     3
172
     1
173
     0
174
     0
175
     0
176
     0
177
     0
178
     0
270
     2
271
     2
272
     2
273
     2
274
     3
340
11
275
     0
280
     0
281
     0
282
     0
283
     0
284
     8
285
     0
286
     0
287
     3
288
     0
  0
ENDTAB
  0
TABLE
  2
BLOCK_RECORD
  5
1
330
0
100
AcDbSymbolTable
 70
     1
  0
BLOCK_RECORD
  5
1F
330
1
100
AcDbSymbolTableRecord
100
AcDbBlockTableRecord
  2
*MODEL_SPACE
  0
BLOCK_RECORD
  5
1B
330
1
100
AcDbSymbolTableRecord
100
AcDbBlockTableRecord
  2
*PAPER_SPACE
  0
ENDTAB
  0
ENDSEC
  0
SECTION
  2
BLOCKS
  0
BLOCK
  5
20
330
1F
100
AcDbEntity
  8
0
100
AcDbBlockBegin
  2
*MODEL_SPACE
 70
     0
 10
0.0
 20
0.0
 30
0.0
  3
*MODEL_SPACE
  1

  0
ENDBLK
  5
21
330
1F
100
AcDbEntity
  8
0
100
AcDbBlockEnd
  0
BLOCK
  5
1C
330
1B
100
AcDbEntity
 67
     1
  8
0
100
AcDbBlockBegin
  2
*PAPER_SPACE
  1

  0
ENDBLK
  5
1D
330
1B
100
AcDbEntity
 67
     1
  8
0
100
AcDbBlockEnd
  0
ENDSEC
  0
SECTION
  2
ENTITIES
  0
SPLINE
  5
100
100
AcDbEntity
  8
Layer_1
 62
7
100
AcDbSpline
 70
8
 71
3
 72
8
 73
4
 74
0
 40
0
 40
0
 40
0
 40
0
 40
1
 40
1
 40
1
 40
1
 10
52.557984
 20
66.516323
 30
0.0
 10
52.997722
 20
66.516323
 30
0.0
 10
53.351734
 20
66.162311
 30
0.0
 10
53.351734
 20
65.722573
 30
0.0
  0
LWPOLYLINE
  5
101
100
AcDbEntity
  8
Layer_1
 62
7
100
AcDbPolyline
 90
2
 70
0
 10
5.142447
 20
66.516323
 30
0.0
 10
52.557984
 20
66.516323
 30
0.0
  0
SPLINE
  5
102
100
AcDbEntity
  8
Layer_1
 62
7
100
AcDbSpline
 70
8
 71
3
 72
8
 73
4
 74
0
 40
0
 40
0
 40
0
 40
0
 40
1
 40
1
 40
1
 40
1
 10
53.351734
 20
43.808616
 30
0.0
 10
53.351734
 20
43.368878
 30
0.0
 10
52.997722
 20
43.014866
 30
0.0
 10
52.557984
 20
43.014866
 30
0.0
  0
LWPOLYLINE
  5
103
100
AcDbEntity
  8
Layer_1
 62
7
100
AcDbPolyline
 90
2
 70
0
 10
53.351734
 20
65.722573
 30
0.0
 10
53.351734
 20
43.808616
 30
0.0
  0
SPLINE
  5
104
100
AcDbEntity
  8
Layer_1
 62
7
100
AcDbSpline
 70
8
 71
3
 72
8
 73
4
 74
0
 40
0
 40
0
 40
0
 40
0
 40
1
 40
1
 40
1
 40
1
 10
5.142447
 20
43.014866
 30
0.0
 10
4.702709
 20
43.014866
 30
0.0
 10
4.348697
 20
43.368878
 30
0.0
 10
4.348697
 20
43.808616
 30
0.0
  0
LWPOLYLINE
  5
105
100
AcDbEntity
  8
Layer_1
 62
7
100
AcDbPolyline
 90
2
 70
0
 10
52.557984
 20
43.014866
 30
0.0
 10
5.142447
 20
43.014866
 30
0.0
  0
SPLINE
  5
106
100
AcDbEntity
  8
Layer_1
 62
7
100
AcDbSpline
 70
8
 71
3
 72
8
 73
4
 74
0
 40
0
 40
0
 40
0
 40
0
 40
1
 40
1
 40
1
 40
1
 10
4.348697
 20
65.722573
 30
0.0
 10
4.348697
 20
66.162311
 30
0.0
 10
4.702709
 20
66.516323
 30
0.0
 10
5.142447
 20
66.516323
 30
0.0
  0
LWPOLYLINE
  5
107
100
AcDbEntity
  8
Layer_1
 62
7
100
AcDbPolyline
 90
2
 70
0
 10
4.348697
 20
43.808616
 30
0.0
 10
4.348697
 20
65.722573
 30
0.0
  0
SPLINE
  5
108
100
AcDbEntity
  8
Layer_1
 62
7
100
AcDbSpline
 70
8
 71
3
 72
8
 73
4
 74
0
 40
0
 40
0
 40
0
 40
0
 40
1
 40
1
 40
1
 40
1
 10
30.621978
 20
45.092953
 30
0.0
 10
30.621978
 20
44.996467
 30
0.0
 10
30.583649
 20
44.903933
 30
0.0
 10
30.515423
 20
44.835706
 30
0.0
  0
SPLINE
  5
109
100
AcDbEntity
  8
Layer_1
 62
7
100
AcDbSpline
 70
8
 71
3
 72
8
 73
4
 74
0
 40
0
 40
0
 40
0
 40
0
 40
1
 40
1
 40
1
 40
1
 10
30.515423
 20
44.835706
 30
0.0
 10
30.447197
 20
44.767480
 30
0.0
 10
30.354662
 20
44.729151
 30
0.0
 10
30.258176
 20
44.729151
 30
0.0
  0
SPLINE
  5
10a
100
AcDbEntity
  8
Layer_1
 62
7
100
AcDbSpline
 70
8
 71
3
 72
8
 73
4
 74
0
 40
0
 40
0
 40
0
 40
0
 40
1
 40
1
 40
1
 40
1
 10
30.258176
 20
44.729151
 30
0.0
 10
30.161690
 20
44.729151
 30
0.0
 10
30.069155
 20
44.767480
 30
0.0
 10
30.000929
 20
44.835706
 30
0.0
  0
SPLINE
  5
10b
100
AcDbEntity
  8
Layer_1
 62
7
100
AcDbSpline
 70
8
 71
3
 72
8
 73
4
 74
0
 40
0
 40
0
 40
0
 40
0
 40
1
 40
1
 40
1
 40
1
 10
30.000929
 20
44.835706
 30
0.0
 10
29.932703
 20
44.903933
 30
0.0
 10
29.894374
 20
44.996467
 30
0.0
 10
29.894374
 20
45.092953
 30
0.0
  0
SPLINE
  5
10c
100
AcDbEntity
  8
Layer_1
 62
7
100
AcDbSpline
 70
8
 71
3
 72
8
 73
4
 74
0
 40
0
 40
0
 40
0
 40
0
 40
1
 40
1
 40
1
 40
1
 10
29.894374
 20
45.092953
 30
0.0
 10
29.894374
 20
45.189440
 30
0.0
 10
29.932703
 20
45.281974
 30
0.0
 10
30.000929
 20
45.350200
 30
0.0
  0
SPLINE
  5
10d
100
AcDbEntity
  8
Layer_1
 62
7
100
AcDbSpline
 70
8
 71
3
 72
8
 73
4
 74
0
 40
0
 40
0
 40
0
 40
0
 40
1
 40
1
 40
1
 40
1
 10
30.000929
 20
45.350200
 30
0.0
 10
30.069155
 20
45.418426
 30
0.0
 10
30.161690
 20
45.456755
 30
0.0
 10
30.258176
 20
45.456755
 30
0.0
  0
SPLINE
  5
10e
100
AcDbEntity
  8
Layer_1
 62
7
100
AcDbSpline
 70
8
 71
3
 72
8
 73
4
 74
0
 40
0
 40
0
 40
0
 40
0
 40
1
 40
1
 40
1
 40
1
 10
30.258176
 20
45.456755
 30
0.0
 10
30.354662
 20
45.456755
 30
0.0
 10
30.447197
 20
45.418426
 30
0.0
 10
30.515423
 20
45.350200
 30
0.0
  0
SPLINE
  5
10f
100
AcDbEntity
  8
Layer_1
 62
7
100
AcDbSpline
 70
8
 71
3
 72
8
 73
4
 74
0
 40
0
 40
0
 40
0
 40
0
 40
1
 40
1
 40
1
 40
1
 10
30.515423
 20
45.350200
 30
0.0
 10
30.583649
 20
45.281974
 30
0.0
 10
30.621978
 20
45.189440
 30
0.0
 10
30.621978
 20
45.092953
 30
0.0
  0
LWPOLYLINE
  5
110
100
AcDbEntity
  8
Layer_1
 62
7
100
AcDbPolyline
 90
1
 70
1
 10
5.142447
 20
66.516323
 30
0.0
  0
SPLINE
  5
111
100
AcDbEntity
  8
Layer_1
 62
7
100
AcDbSpline
 70
8
 71
3
 72
8
 73
4
 74
0
 40
0
 40
0
 40
0
 40
0
 40
1
 40
1
 40
1
 40
1
 10
30.621978
 20
51.178370
 30
0.0
 10
30.621978
 20
51.081884
 30
0.0
 10
30.583649
 20
50.989349
 30
0.0
 10
30.515423
 20
50.921123
 30
0.0
  0
SPLINE
  5
112
100
AcDbEntity
  8
Layer_1
 62
7
100
AcDbSpline
 70
8
 71
3
 72
8
 73
4
 74
0
 40
0
 40
0
 40
0
 40
0
 40
1
 40
1
 40
1
 40
1
 10
30.515423
 20
50.921123
 30
0.0
 10
30.447197
 20
50.852897
 30
0.0
 10
30.354662
 20
50.814568
 30
0.0
 10
30.258176
 20
50.814568
 30
0.0
  0
SPLINE
  5
113
100
AcDbEntity
  8
Layer_1
 62
7
100
AcDbSpline
 70
8
 71
3
 72
8
 73
4
 74
0
 40
0
 40
0
 40
0
 40
0
 40
1
 40
1
 40
1
 40
1
 10
30.258176
 20
50.814568
 30
0.0
 10
30.161690
 20
50.814568
 30
0.0
 10
30.069155
 20
50.852897
 30
0.0
 10
30.000929
 20
50.921123
 30
0.0
  0
SPLINE
  5
114
100
AcDbEntity
  8
Layer_1
 62
7
100
AcDbSpline
 70
8
 71
3
 72
8
 73
4
 74
0
 40
0
 40
0
 40
0
 40
0
 40
1
 40
1
 40
1
 40
1
 10
30.000929
 20
50.921123
 30
0.0
 10
29.932703
 20
50.989349
 30
0.0
 10
29.894374
 20
51.081884
 30
0.0
 10
29.894374
 20
51.178370
 30
0.0
  0
SPLINE
  5
115
100
AcDbEntity
  8
Layer_1
 62
7
100
AcDbSpline
 70
8
 71
3
 72
8
 73
4
 74
0
 40
0
 40
0
 40
0
 40
0
 40
1
 40
1
 40
1
 40
1
 10
29.894374
 20
51.178370
 30
0.0
 10
29.894374
 20
51.274856
 30
0.0
 10
29.932703
 20
51.367391
 30
0.0
 10
30.000929
 20
51.435617
 30
0.0
  0
SPLINE
  5
116
100
AcDbEntity
  8
Layer_1
 62
7
100
AcDbSpline
 70
8
 71
3
 72
8
 73
4
 74
0
 40
0
 40
0
 40
0
 40
0
 40
1
 40
1
 40
1
 40
1
 10
30.000929
 20
51.435617
 30
0.0
 10
30.069155
 20
51.503843
 30
0.0
 10
30.161690
 20
51.542172
 30
0.0
 10
30.258176
 20
51.542172
 30
0.0
  0
SPLINE
  5
117
100
AcDbEntity
  8
Layer_1
 62
7
100
AcDbSpline
 70
8
 71
3
 72
8
 73
4
 74
0
 40
0
 40
0
 40
0
 40
0
 40
1
 40
1
 40
1
 40
1
 10
30.258176
 20
51.542172
 30
0.0
 10
30.354662
 20
51.542172
 30
0.0
 10
30.447197
 20
51.503843
 30
0.0
 10
30.515423
 20
51.435617
 30
0.0
  0
SPLINE
  5
118
100
AcDbEntity
  8
Layer_1
 62
7
100
AcDbSpline
 70
8
 71
3
 72
8
 73
4
 74
0
 40
0
 40
0
 40
0
 40
0
 40
1
 40
1
 40
1
 40
1
 10
30.515423
 20
51.435617
 30
0.0
 10
30.583649
 20
51.367391
 30
0.0
 10
30.621978
 20
51.274856
 30
0.0
 10
30.621978
 20
51.178370
 30
0.0
  0
LWPOLYLINE
  5
119
100
AcDbEntity
  8
Layer_1
 62
7
100
AcDbPolyline
 90
1
 70
1
 10
30.621978
 20
45.092953
 30
0.0
  0
SPLINE
  5
11a
100
AcDbEntity
  8
Layer_1
 62
7
100
AcDbSpline
 70
8
 71
3
 72
8
 73
4
 74
0
 40
0
 40
0
 40
0
 40
0
 40
1
 40
1
 40
1
 40
1
 10
45.967809
 20
51.178370
 30
0.0
 10
45.967809
 20
51.081884
 30
0.0
 10
45.929480
 20
50.989349
 30
0.0
 10
45.861254
 20
50.921123
 30
0.0
  0
SPLINE
  5
11b
100
AcDbEntity
  8
Layer_1
 62
7
100
AcDbSpline
 70
8
 71
3
 72
8
 73
4
 74
0
 40
0
 40
0
 40
0
 40
0
 40
1
 40
1
 40
1
 40
1
 10
45.861254
 20
50.921123
 30
0.0
 10
45.793027
 20
50.852897
 30
0.0
 10
45.700493
 20
50.814568
 30
0.0
 10
45.604007
 20
50.814568
 30
0.0
  0
SPLINE
  5
11c
100
AcDbEntity
  8
Layer_1
 62
7
100
AcDbSpline
 70
8
 71
3
 72
8
 73
4
 74
0
 40
0
 40
0
 40
0
 40
0
 40
1
 40
1
 40
1
 40
1
 10
45.604007
 20
50.814568
 30
0.0
 10
45.507520
 20
50.814568
 30
0.0
 10
45.414986
 20
50.852897
 30
0.0
 10
45.346760
 20
50.921123
 30
0.0
  0
SPLINE
  5
11d
100
AcDbEntity
  8
Layer_1
 62
7
100
AcDbSpline
 70
8
 71
3
 72
8
 73
4
 74
0
 40
0
 40
0
 40
0
 40
0
 40
1
 40
1
 40
1
 40
1
 10
45.346760
 20
50.921123
 30
0.0
 10
45.278534
 20
50.989349
 30
0.0
 10
45.240205
 20
51.081884
 30
0.0
 10
45.240205
 20
51.178370
 30
0.0
  0
SPLINE
  5
11e
100
AcDbEntity
  8
Layer_1
 62
7
100
AcDbSpline
 70
8
 71
3
 72
8
 73
4
 74
0
 40
0
 40
0
 40
0
 40
0
 40
1
 40
1
 40
1
 40
1
 10
45.240205
 20
51.178370
 30
0.0
 10
45.240205
 20
51.274856
 30
0.0
 10
45.278534
 20
51.367391
 30
0.0
 10
45.346760
 20
51.435617
 30
0.0
  0
SPLINE
  5
11f
100
AcDbEntity
  8
Layer_1
 62
7
100
AcDbSpline
 70
8
 71
3
 72
8
 73
4
 74
0
 40
0
 40
0
 40
0
 40
0
 40
1
 40
1
 40
1
 40
1
 10
45.346760
 20
51.435617
 30
0.0
 10
45.414986
 20
51.503843
 30
0.0
 10
45.507520
 20
51.542172
 30
0.0
 10
45.604007
 20
51.542172
 30
0.0
  0
SPLINE
  5
120
100
AcDbEntity
  8
Layer_1
 62
7
100
AcDbSpline
 70
8
 71
3
 72
8
 73
4
 74
0
 40
0
 40
0
 40
0
 40
0
 40
1
 40
1
 40
1
 40
1
 10
45.604007
 20
51.542172
 30
0.0
 10
45.700493
 20
51.542172
 30
0.0
 10
45.793027
 20
51.503843
 30
0.0
 10
45.861254
 20
51.435617
 30
0.0
  0
SPLINE
  5
121
100
AcDbEntity
  8
Layer_1
 62
7
100
AcDbSpline
 70
8
 71
3
 72
8
 73
4
 74
0
 40
0
 40
0
 40
0
 40
0
 40
1
 40
1
 40
1
 40
1
 10
45.861254
 20
51.435617
 30
0.0
 10
45.929480
 20
51.367391
 30
0.0
 10
45.967809
 20
51.274856
 30
0.0
 10
45.967809
 20
51.178370
 30
0.0
  0
LWPOLYLINE
  5
122
100
AcDbEntity
  8
Layer_1
 62
7
100
AcDbPolyline
 90
1
 70
1
 10
30.621978
 20
51.178370
 30
0.0
  0
SPLINE
  5
123
100
AcDbEntity
  8
Layer_1
 62
7
100
AcDbSpline
 70
8
 71
3
 72
8
 73
4
 74
0
 40
0
 40
0
 40
0
 40
0
 40
1
 40
1
 40
1
 40
1
 10
45.967809
 20
45.092953
 30
0.0
 10
45.967809
 20
44.996467
 30
0.0
 10
45.929480
 20
44.903933
 30
0.0
 10
45.861254
 20
44.835706
 30
0.0
  0
SPLINE
  5
124
100
AcDbEntity
  8
Layer_1
 62
7
100
AcDbSpline
 70
8
 71
3
 72
8
 73
4
 74
0
 40
0
 40
0
 40
0
 40
0
 40
1
 40
1
 40
1
 40
1
 10
45.861254
 20
44.835706
 30
0.0
 10
45.793027
 20
44.767480
 30
0.0
 10
45.700493
 20
44.729151
 30
0.0
 10
45.604007
 20
44.729151
 30
0.0
  0
SPLINE
  5
125
100
AcDbEntity
  8
Layer_1
 62
7
100
AcDbSpline
 70
8
 71
3
 72
8
 73
4
 74
0
 40
0
 40
0
 40
0
 40
0
 40
1
 40
1
 40
1
 40
1
 10
45.604007
 20
44.729151
 30
0.0
 10
45.507520
 20
44.729151
 30
0.0
 10
45.414986
 20
44.767480
 30
0.0
 10
45.346760
 20
44.835706
 30
0.0
  0
SPLINE
  5
126
100
AcDbEntity
  8
Layer_1
 62
7
100
AcDbSpline
 70
8
 71
3
 72
8
 73
4
 74
0
 40
0
 40
0
 40
0
 40
0
 40
1
 40
1
 40
1
 40
1
 10
45.346760
 20
44.835706
 30
0.0
 10
45.278534
 20
44.903933
 30
0.0
 10
45.240205
 20
44.996467
 30
0.0
 10
45.240205
 20
45.092953
 30
0.0
  0
SPLINE
  5
127
100
AcDbEntity
  8
Layer_1
 62
7
100
AcDbSpline
 70
8
 71
3
 72
8
 73
4
 74
0
 40
0
 40
0
 40
0
 40
0
 40
1
 40
1
 40
1
 40
1
 10
45.240205
 20
45.092953
 30
0.0
 10
45.240205
 20
45.189440
 30
0.0
 10
45.278534
 20
45.281974
 30
0.0
 10
45.346760
 20
45.350200
 30
0.0
  0
SPLINE
  5
128
100
AcDbEntity
  8
Layer_1
 62
7
100
AcDbSpline
 70
8
 71
3
 72
8
 73
4
 74
0
 40
0
 40
0
 40
0
 40
0
 40
1
 40
1
 40
1
 40
1
 10
45.346760
 20
45.350200
 30
0.0
 10
45.414986
 20
45.418426
 30
0.0
 10
45.507520
 20
45.456755
 30
0.0
 10
45.604007
 20
45.456755
 30
0.0
  0
SPLINE
  5
129
100
AcDbEntity
  8
Layer_1
 62
7
100
AcDbSpline
 70
8
 71
3
 72
8
 73
4
 74
0
 40
0
 40
0
 40
0
 40
0
 40
1
 40
1
 40
1
 40
1
 10
45.604007
 20
45.456755
 30
0.0
 10
45.700493
 20
45.456755
 30
0.0
 10
45.793027
 20
45.418426
 30
0.0
 10
45.861254
 20
45.350200
 30
0.0
  0
SPLINE
  5
12a
100
AcDbEntity
  8
Layer_1
 62
7
100
AcDbSpline
 70
8
 71
3
 72
8
 73
4
 74
0
 40
0
 40
0
 40
0
 40
0
 40
1
 40
1
 40
1
 40
1
 10
45.861254
 20
45.350200
 30
0.0
 10
45.929480
 20
45.281974
 30
0.0
 10
45.967809
 20
45.189440
 30
0.0
 10
45.967809
 20
45.092953
 30
0.0
  0
LWPOLYLINE
  5
12b
100
AcDbEntity
  8
Layer_1
 62
7
100
AcDbPolyline
 90
1
 70
1
 10
45.967809
 20
51.178370
 30
0.0
  0
SPLINE
  5
12c
100
AcDbEntity
  8
Layer_1
 62
7
100
AcDbSpline
 70
8
 71
3
 72
8
 73
4
 74
0
 40
0
 40
0
 40
0
 40
0
 40
1
 40
1
 40
1
 40
1
 10
16.863748
 20
45.059880
 30
0.0
 10
16.863748
 20
44.972166
 30
0.0
 10
16.828903
 20
44.888043
 30
0.0
 10
16.766880
 20
44.826020
 30
0.0
  0
SPLINE
  5
12d
100
AcDbEntity
  8
Layer_1
 62
7
100
AcDbSpline
 70
8
 71
3
 72
8
 73
4
 74
0
 40
0
 40
0
 40
0
 40
0
 40
1
 40
1
 40
1
 40
1
 10
16.766880
 20
44.826020
 30
0.0
 10
16.704856
 20
44.763996
 30
0.0
 10
16.620734
 20
44.729151
 30
0.0
 10
16.533019
 20
44.729151
 30
0.0
  0
SPLINE
  5
12e
100
AcDbEntity
  8
Layer_1
 62
7
100
AcDbSpline
 70
8
 71
3
 72
8
 73
4
 74
0
 40
0
 40
0
 40
0
 40
0
 40
1
 40
1
 40
1
 40
1
 10
16.533019
 20
44.729151
 30
0.0
 10
16.445304
 20
44.729151
 30
0.0
 10
16.361182
 20
44.763996
 30
0.0
 10
16.299158
 20
44.826020
 30
0.0
  0
SPLINE
  5
12f
100
AcDbEntity
  8
Layer_1
 62
7
100
AcDbSpline
 70
8
 71
3
 72
8
 73
4
 74
0
 40
0
 40
0
 40
0
 40
0
 40
1
 40
1
 40
1
 40
1
 10
16.299158
 20
44.826020
 30
0.0
 10
16.237134
 20
44.888043
 30
0.0
 10
16.202290
 20
44.972166
 30
0.0
 10
16.202290
 20
45.059880
 30
0.0
  0
SPLINE
  5
130
100
AcDbEntity
  8
Layer_1
 62
7
100
AcDbSpline
 70
8
 71
3
 72
8
 73
4
 74
0
 40
0
 40
0
 40
0
 40
0
 40
1
 40
1
 40
1
 40
1
 10
16.202290
 20
45.059880
 30
0.0
 10
16.202290
 20
45.147595
 30
0.0
 10
16.237134
 20
45.231718
 30
0.0
 10
16.299158
 20
45.293741
 30
0.0
  0
SPLINE
  5
131
100
AcDbEntity
  8
Layer_1
 62
7
100
AcDbSpline
 70
8
 71
3
 72
8
 73
4
 74
0
 40
0
 40
0
 40
0
 40
0
 40
1
 40
1
 40
1
 40
1
 10
16.299158
 20
45.293741
 30
0.0
 10
16.361182
 20
45.355765
 30
0.0
 10
16.445304
 20
45.390610
 30
0.0
 10
16.533019
 20
45.390610
 30
0.0
  0
SPLINE
  5
132
100
AcDbEntity
  8
Layer_1
 62
7
100
AcDbSpline
 70
8
 71
3
 72
8
 73
4
 74
0
 40
0
 40
0
 40
0
 40
0
 40
1
 40
1
 40
1
 40
1
 10
16.533019
 20
45.390610
 30
0.0
 10
16.620734
 20
45.390610
 30
0.0
 10
16.704856
 20
45.355765
 30
0.0
 10
16.766880
 20
45.293741
 30
0.0
  0
SPLINE
  5
133
100
AcDbEntity
  8
Layer_1
 62
7
100
AcDbSpline
 70
8
 71
3
 72
8
 73
4
 74
0
 40
0
 40
0
 40
0
 40
0
 40
1
 40
1
 40
1
 40
1
 10
16.766880
 20
45.293741
 30
0.0
 10
16.828903
 20
45.231718
 30
0.0
 10
16.863748
 20
45.147595
 30
0.0
 10
16.863748
 20
45.059880
 30
0.0
  0
LWPOLYLINE
  5
134
100
AcDbEntity
  8
Layer_1
 62
7
100
AcDbPolyline
 90
1
 70
1
 10
45.967809
 20
45.092953
 30
0.0
  0
SPLINE
  5
135
100
AcDbEntity
  8
Layer_1
 62
7
100
AcDbSpline
 70
8
 71
3
 72
8
 73
4
 74
0
 40
0
 40
0
 40
0
 40
0
 40
1
 40
1
 40
1
 40
1
 10
16.863748
 20
50.483839
 30
0.0
 10
16.863748
 20
50.396124
 30
0.0
 10
16.828903
 20
50.312002
 30
0.0
 10
16.766880
 20
50.249978
 30
0.0
  0
SPLINE
  5
136
100
AcDbEntity
  8
Layer_1
 62
7
100
AcDbSpline
 70
8
 71
3
 72
8
 73
4
 74
0
 40
0
 40
0
 40
0
 40
0
 40
1
 40
1
 40
1
 40
1
 10
16.766880
 20
50.249978
 30
0.0
 10
16.704856
 20
50.187954
 30
0.0
 10
16.620734
 20
50.153110
 30
0.0
 10
16.533019
 20
50.153110
 30
0.0
  0
SPLINE
  5
137
100
AcDbEntity
  8
Layer_1
 62
7
100
AcDbSpline
 70
8
 71
3
 72
8
 73
4
 74
0
 40
0
 40
0
 40
0
 40
0
 40
1
 40
1
 40
1
 40
1
 10
16.533019
 20
50.153110
 30
0.0
 10
16.445304
 20
50.153110
 30
0.0
 10
16.361182
 20
50.187954
 30
0.0
 10
16.299158
 20
50.249978
 30
0.0
  0
SPLINE
  5
138
100
AcDbEntity
  8
Layer_1
 62
7
100
AcDbSpline
 70
8
 71
3
 72
8
 73
4
 74
0
 40
0
 40
0
 40
0
 40
0
 40
1
 40
1
 40
1
 40
1
 10
16.299158
 20
50.249978
 30
0.0
 10
16.237134
 20
50.312002
 30
0.0
 10
16.202290
 20
50.396124
 30
0.0
 10
16.202290
 20
50.483839
 30
0.0
  0
SPLINE
  5
139
100
AcDbEntity
  8
Layer_1
 62
7
100
AcDbSpline
 70
8
 71
3
 72
8
 73
4
 74
0
 40
0
 40
0
 40
0
 40
0
 40
1
 40
1
 40
1
 40
1
 10
16.202290
 20
50.483839
 30
0.0
 10
16.202290
 20
50.571554
 30
0.0
 10
16.237134
 20
50.655676
 30
0.0
 10
16.299158
 20
50.717700
 30
0.0
  0
SPLINE
  5
13a
100
AcDbEntity
  8
Layer_1
 62
7
100
AcDbSpline
 70
8
 71
3
 72
8
 73
4
 74
0
 40
0
 40
0
 40
0
 40
0
 40
1
 40
1
 40
1
 40
1
 10
16.299158
 20
50.717700
 30
0.0
 10
16.361182
 20
50.779723
 30
0.0
 10
16.445304
 20
50.814568
 30
0.0
 10
16.533019
 20
50.814568
 30
0.0
  0
SPLINE
  5
13b
100
AcDbEntity
  8
Layer_1
 62
7
100
AcDbSpline
 70
8
 71
3
 72
8
 73
4
 74
0
 40
0
 40
0
 40
0
 40
0
 40
1
 40
1
 40
1
 40
1
 10
16.533019
 20
50.814568
 30
0.0
 10
16.620734
 20
50.814568
 30
0.0
 10
16.704856
 20
50.779723
 30
0.0
 10
16.766880
 20
50.717700
 30
0.0
  0
SPLINE
  5
13c
100
AcDbEntity
  8
Layer_1
 62
7
100
AcDbSpline
 70
8
 71
3
 72
8
 73
4
 74
0
 40
0
 40
0
 40
0
 40
0
 40
1
 40
1
 40
1
 40
1
 10
16.766880
 20
50.717700
 30
0.0
 10
16.828903
 20
50.655676
 30
0.0
 10
16.863748
 20
50.571554
 30
0.0
 10
16.863748
 20
50.483839
 30
0.0
  0
LWPOLYLINE
  5
13d
100
AcDbEntity
  8
Layer_1
 62
7
100
AcDbPolyline
 90
1
 70
1
 10
16.863748
 20
45.059880
 30
0.0
  0
SPLINE
  5
13e
100
AcDbEntity
  8
Layer_1
 62
7
100
AcDbSpline
 70
8
 71
3
 72
8
 73
4
 74
0
 40
0
 40
0
 40
0
 40
0
 40
1
 40
1
 40
1
 40
1
 10
27.248541
 20
50.483839
 30
0.0
 10
27.248541
 20
50.396124
 30
0.0
 10
27.213696
 20
50.312002
 30
0.0
 10
27.151672
 20
50.249978
 30
0.0
  0
SPLINE
  5
13f
100
AcDbEntity
  8
Layer_1
 62
7
100
AcDbSpline
 70
8
 71
3
 72
8
 73
4
 74
0
 40
0
 40
0
 40
0
 40
0
 40
1
 40
1
 40
1
 40
1
 10
27.151672
 20
50.249978
 30
0.0
 10
27.089648
 20
50.187954
 30
0.0
 10
27.005526
 20
50.153110
 30
0.0
 10
26.917811
 20
50.153110
 30
0.0
  0
SPLINE
  5
140
100
AcDbEntity
  8
Layer_1
 62
7
100
AcDbSpline
 70
8
 71
3
 72
8
 73
4
 74
0
 40
0
 40
0
 40
0
 40
0
 40
1
 40
1
 40
1
 40
1
 10
26.917811
 20
50.153110
 30
0.0
 10
26.830097
 20
50.153110
 30
0.0
 10
26.745974
 20
50.187954
 30
0.0
 10
26.683951
 20
50.249978
 30
0.0
  0
SPLINE
  5
141
100
AcDbEntity
  8
Layer_1
 62
7
100
AcDbSpline
 70
8
 71
3
 72
8
 73
4
 74
0
 40
0
 40
0
 40
0
 40
0
 40
1
 40
1
 40
1
 40
1
 10
26.683951
 20
50.249978
 30
0.0
 10
26.621927
 20
50.312002
 30
0.0
 10
26.587082
 20
50.396124
 30
0.0
 10
26.587082
 20
50.483839
 30
0.0
  0
SPLINE
  5
142
100
AcDbEntity
  8
Layer_1
 62
7
100
AcDbSpline
 70
8
 71
3
 72
8
 73
4
 74
0
 40
0
 40
0
 40
0
 40
0
 40
1
 40
1
 40
1
 40
1
 10
26.587082
 20
50.483839
 30
0.0
 10
26.587082
 20
50.666495
 30
0.0
 10
26.735155
 20
50.814568
 30
0.0
 10
26.917811
 20
50.814568
 30
0.0
  0
SPLINE
  5
143
100
AcDbEntity
  8
Layer_1
 62
7
100
AcDbSpline
 70
8
 71
3
 72
8
 73
4
 74
0
 40
0
 40
0
 40
0
 40
0
 40
1
 40
1
 40
1
 40
1
 10
26.917811
 20
50.814568
 30
0.0
 10
27.005526
 20
50.814568
 30
0.0
 10
27.089648
 20
50.779723
 30
0.0
 10
27.151672
 20
50.717700
 30
0.0
  0
SPLINE
  5
144
100
AcDbEntity
  8
Layer_1
 62
7
100
AcDbSpline
 70
8
 71
3
 72
8
 73
4
 74
0
 40
0
 40
0
 40
0
 40
0
 40
1
 40
1
 40
1
 40
1
 10
27.151672
 20
50.717700
 30
0.0
 10
27.213696
 20
50.655676
 30
0.0
 10
27.248541
 20
50.571554
 30
0.0
 10
27.248541
 20
50.483839
 30
0.0
  0
LWPOLYLINE
  5
145
100
AcDbEntity
  8
Layer_1
 62
7
100
AcDbPolyline
 90
1
 70
1
 10
16.863748
 20
50.483839
 30
0.0
  0
SPLINE
  5
146
100
AcDbEntity
  8
Layer_1
 62
7
100
AcDbSpline
 70
8
 71
3
 72
8
 73
4
 74
0
 40
0
 40
0
 40
0
 40
0
 40
1
 40
1
 40
1
 40
1
 10
27.248541
 20
45.059880
 30
0.0
 10
27.248541
 20
44.972166
 30
0.0
 10
27.213696
 20
44.888043
 30
0.0
 10
27.151672
 20
44.826020
 30
0.0
  0
SPLINE
  5
147
100
AcDbEntity
  8
Layer_1
 62
7
100
AcDbSpline
 70
8
 71
3
 72
8
 73
4
 74
0
 40
0
 40
0
 40
0
 40
0
 40
1
 40
1
 40
1
 40
1
 10
27.151672
 20
44.826020
 30
0.0
 10
27.089648
 20
44.763996
 30
0.0
 10
27.005526
 20
44.729151
 30
0.0
 10
26.917811
 20
44.729151
 30
0.0
  0
SPLINE
  5
148
100
AcDbEntity
  8
Layer_1
 62
7
100
AcDbSpline
 70
8
 71
3
 72
8
 73
4
 74
0
 40
0
 40
0
 40
0
 40
0
 40
1
 40
1
 40
1
 40
1
 10
26.917811
 20
44.729151
 30
0.0
 10
26.830097
 20
44.729151
 30
0.0
 10
26.745974
 20
44.763996
 30
0.0
 10
26.683951
 20
44.826020
 30
0.0
  0
SPLINE
  5
149
100
AcDbEntity
  8
Layer_1
 62
7
100
AcDbSpline
 70
8
 71
3
 72
8
 73
4
 74
0
 40
0
 40
0
 40
0
 40
0
 40
1
 40
1
 40
1
 40
1
 10
26.683951
 20
44.826020
 30
0.0
 10
26.621927
 20
44.888043
 30
0.0
 10
26.587082
 20
44.972166
 30
0.0
 10
26.587082
 20
45.059880
 30
0.0
  0
SPLINE
  5
14a
100
AcDbEntity
  8
Layer_1
 62
7
100
AcDbSpline
 70
8
 71
3
 72
8
 73
4
 74
0
 40
0
 40
0
 40
0
 40
0
 40
1
 40
1
 40
1
 40
1
 10
26.587082
 20
45.059880
 30
0.0
 10
26.587082
 20
45.242537
 30
0.0
 10
26.735155
 20
45.390610
 30
0.0
 10
26.917811
 20
45.390610
 30
0.0
  0
SPLINE
  5
14b
100
AcDbEntity
  8
Layer_1
 62
7
100
AcDbSpline
 70
8
 71
3
 72
8
 73
4
 74
0
 40
0
 40
0
 40
0
 40
0
 40
1
 40
1
 40
1
 40
1
 10
26.917811
 20
45.390610
 30
0.0
 10
27.005526
 20
45.390610
 30
0.0
 10
27.089648
 20
45.355765
 30
0.0
 10
27.151672
 20
45.293741
 30
0.0
  0
SPLINE
  5
14c
100
AcDbEntity
  8
Layer_1
 62
7
100
AcDbSpline
 70
8
 71
3
 72
8
 73
4
 74
0
 40
0
 40
0
 40
0
 40
0
 40
1
 40
1
 40
1
 40
1
 10
27.151672
 20
45.293741
 30
0.0
 10
27.213696
 20
45.231718
 30
0.0
 10
27.248541
 20
45.147595
 30
0.0
 10
27.248541
 20
45.059880
 30
0.0
  0
LWPOLYLINE
  5
14d
100
AcDbEntity
  8
Layer_1
 62
7
100
AcDbPolyline
 90
1
 70
1
 10
27.248541
 20
50.483839
 30
0.0
  0
SPLINE
  5
14e
100
AcDbEntity
  8
Layer_1
 62
7
100
AcDbSpline
 70
8
 71
3
 72
8
 73
4
 74
0
 40
0
 40
0
 40
0
 40
0
 40
1
 40
1
 40
1
 40
1
 10
6.794123
 20
64.405162
 30
0.0
 10
6.794123
 20
64.299904
 30
0.0
 10
6.752309
 20
64.198958
 30
0.0
 10
6.677881
 20
64.124529
 30
0.0
  0
SPLINE
  5
14f
100
AcDbEntity
  8
Layer_1
 62
7
100
AcDbSpline
 70
8
 71
3
 72
8
 73
4
 74
0
 40
0
 40
0
 40
0
 40
0
 40
1
 40
1
 40
1
 40
1
 10
6.677881
 20
64.124529
 30
0.0
 10
6.603452
 20
64.050101
 30
0.0
 10
6.502505
 20
64.008287
 30
0.0
 10
6.397248
 20
64.008287
 30
0.0
  0
SPLINE
  5
150
100
AcDbEntity
  8
Layer_1
 62
7
100
AcDbSpline
 70
8
 71
3
 72
8
 73
4
 74
0
 40
0
 40
0
 40
0
 40
0
 40
1
 40
1
 40
1
 40
1
 10
6.397248
 20
64.008287
 30
0.0
 10
6.178060
 20
64.008287
 30
0.0
 10
6.000373
 20
64.185974
 30
0.0
 10
6.000373
 20
64.405162
 30
0.0
  0
SPLINE
  5
151
100
AcDbEntity
  8
Layer_1
 62
7
100
AcDbSpline
 70
8
 71
3
 72
8
 73
4
 74
0
 40
0
 40
0
 40
0
 40
0
 40
1
 40
1
 40
1
 40
1
 10
6.000373
 20
64.405162
 30
0.0
 10
6.000373
 20
64.510420
 30
0.0
 10
6.042186
 20
64.611367
 30
0.0
 10
6.116615
 20
64.685795
 30
0.0
  0
SPLINE
  5
152
100
AcDbEntity
  8
Layer_1
 62
7
100
AcDbSpline
 70
8
 71
3
 72
8
 73
4
 74
0
 40
0
 40
0
 40
0
 40
0
 40
1
 40
1
 40
1
 40
1
 10
6.116615
 20
64.685795
 30
0.0
 10
6.191043
 20
64.760224
 30
0.0
 10
6.291990
 20
64.802037
 30
0.0
 10
6.397248
 20
64.802037
 30
0.0
  0
SPLINE
  5
153
100
AcDbEntity
  8
Layer_1
 62
7
100
AcDbSpline
 70
8
 71
3
 72
8
 73
4
 74
0
 40
0
 40
0
 40
0
 40
0
 40
1
 40
1
 40
1
 40
1
 10
6.397248
 20
64.802037
 30
0.0
 10
6.502505
 20
64.802037
 30
0.0
 10
6.603452
 20
64.760224
 30
0.0
 10
6.677881
 20
64.685795
 30
0.0
  0
SPLINE
  5
154
100
AcDbEntity
  8
Layer_1
 62
7
100
AcDbSpline
 70
8
 71
3
 72
8
 73
4
 74
0
 40
0
 40
0
 40
0
 40
0
 40
1
 40
1
 40
1
 40
1
 10
6.677881
 20
64.685795
 30
0.0
 10
6.752309
 20
64.611367
 30
0.0
 10
6.794123
 20
64.510420
 30
0.0
 10
6.794123
 20
64.405162
 30
0.0
  0
LWPOLYLINE
  5
155
100
AcDbEntity
  8
Layer_1
 62
7
100
AcDbPolyline
 90
1
 70
1
 10
27.248541
 20
45.059880
 30
0.0
  0
SPLINE
  5
156
100
AcDbEntity
  8
Layer_1
 62
7
100
AcDbSpline
 70
8
 71
3
 72
8
 73
4
 74
0
 40
0
 40
0
 40
0
 40
0
 40
1
 40
1
 40
1
 40
1
 10
10.001688
 20
64.405162
 30
0.0
 10
10.001688
 20
64.299904
 30
0.0
 10
9.959874
 20
64.198958
 30
0.0
 10
9.885446
 20
64.124529
 30
0.0
  0
SPLINE
  5
157
100
AcDbEntity
  8
Layer_1
 62
7
100
AcDbSpline
 70
8
 71
3
 72
8
 73
4
 74
0
 40
0
 40
0
 40
0
 40
0
 40
1
 40
1
 40
1
 40
1
 10
9.885446
 20
64.124529
 30
0.0
 10
9.811017
 20
64.050101
 30
0.0
 10
9.710071
 20
64.008287
 30
0.0
 10
9.604813
 20
64.008287
 30
0.0
  0
SPLINE
  5
158
100
AcDbEntity
  8
Layer_1
 62
7
100
AcDbSpline
 70
8
 71
3
 72
8
 73
4
 74
0
 40
0
 40
0
 40
0
 40
0
 40
1
 40
1
 40
1
 40
1
 10
9.604813
 20
64.008287
 30
0.0
 10
9.499555
 20
64.008287
 30
0.0
 10
9.398608
 20
64.050101
 30
0.0
 10
9.324180
 20
64.124529
 30
0.0
  0
SPLINE
  5
159
100
AcDbEntity
  8
Layer_1
 62
7
100
AcDbSpline
 70
8
 71
3
 72
8
 73
4
 74
0
 40
0
 40
0
 40
0
 40
0
 40
1
 40
1
 40
1
 40
1
 10
9.324180
 20
64.124529
 30
0.0
 10
9.249751
 20
64.198958
 30
0.0
 10
9.207938
 20
64.299904
 30
0.0
 10
9.207938
 20
64.405162
 30
0.0
  0
SPLINE
  5
15a
100
AcDbEntity
  8
Layer_1
 62
7
100
AcDbSpline
 70
8
 71
3
 72
8
 73
4
 74
0
 40
0
 40
0
 40
0
 40
0
 40
1
 40
1
 40
1
 40
1
 10
9.207938
 20
64.405162
 30
0.0
 10
9.207938
 20
64.510420
 30
0.0
 10
9.249751
 20
64.611367
 30
0.0
 10
9.324180
 20
64.685795
 30
0.0
  0
SPLINE
  5
15b
100
AcDbEntity
  8
Layer_1
 62
7
100
AcDbSpline
 70
8
 71
3
 72
8
 73
4
 74
0
 40
0
 40
0
 40
0
 40
0
 40
1
 40
1
 40
1
 40
1
 10
9.324180
 20
64.685795
 30
0.0
 10
9.398608
 20
64.760224
 30
0.0
 10
9.499555
 20
64.802037
 30
0.0
 10
9.604813
 20
64.802037
 30
0.0
  0
SPLINE
  5
15c
100
AcDbEntity
  8
Layer_1
 62
7
100
AcDbSpline
 70
8
 71
3
 72
8
 73
4
 74
0
 40
0
 40
0
 40
0
 40
0
 40
1
 40
1
 40
1
 40
1
 10
9.604813
 20
64.802037
 30
0.0
 10
9.710071
 20
64.802037
 30
0.0
 10
9.811017
 20
64.760224
 30
0.0
 10
9.885446
 20
64.685795
 30
0.0
  0
SPLINE
  5
15d
100
AcDbEntity
  8
Layer_1
 62
7
100
AcDbSpline
 70
8
 71
3
 72
8
 73
4
 74
0
 40
0
 40
0
 40
0
 40
0
 40
1
 40
1
 40
1
 40
1
 10
9.885446
 20
64.685795
 30
0.0
 10
9.959874
 20
64.611367
 30
0.0
 10
10.001688
 20
64.510420
 30
0.0
 10
10.001688
 20
64.405162
 30
0.0
  0
LWPOLYLINE
  5
15e
100
AcDbEntity
  8
Layer_1
 62
7
100
AcDbPolyline
 90
1
 70
1
 10
6.794123
 20
64.405162
 30
0.0
  0
SPLINE
  5
15f
100
AcDbEntity
  8
Layer_1
 62
7
100
AcDbSpline
 70
8
 71
3
 72
8
 73
4
 74
0
 40
0
 40
0
 40
0
 40
0
 40
1
 40
1
 40
1
 40
1
 10
16.416822
 20
64.405162
 30
0.0
 10
16.416822
 20
64.299904
 30
0.0
 10
16.375009
 20
64.198958
 30
0.0
 10
16.300580
 20
64.124529
 30
0.0
  0
SPLINE
  5
160
100
AcDbEntity
  8
Layer_1
 62
7
100
AcDbSpline
 70
8
 71
3
 72
8
 73
4
 74
0
 40
0
 40
0
 40
0
 40
0
 40
1
 40
1
 40
1
 40
1
 10
16.300580
 20
64.124529
 30
0.0
 10
16.226152
 20
64.050101
 30
0.0
 10
16.125205
 20
64.008287
 30
0.0
 10
16.019947
 20
64.008287
 30
0.0
  0
SPLINE
  5
161
100
AcDbEntity
  8
Layer_1
 62
7
100
AcDbSpline
 70
8
 71
3
 72
8
 73
4
 74
0
 40
0
 40
0
 40
0
 40
0
 40
1
 40
1
 40
1
 40
1
 10
16.019947
 20
64.008287
 30
0.0
 10
15.914689
 20
64.008287
 30
0.0
 10
15.813743
 20
64.050101
 30
0.0
 10
15.739314
 20
64.124529
 30
0.0
  0
SPLINE
  5
162
100
AcDbEntity
  8
Layer_1
 62
7
100
AcDbSpline
 70
8
 71
3
 72
8
 73
4
 74
0
 40
0
 40
0
 40
0
 40
0
 40
1
 40
1
 40
1
 40
1
 10
15.739314
 20
64.124529
 30
0.0
 10
15.664886
 20
64.198958
 30
0.0
 10
15.623072
 20
64.299904
 30
0.0
 10
15.623072
 20
64.405162
 30
0.0
  0
SPLINE
  5
163
100
AcDbEntity
  8
Layer_1
 62
7
100
AcDbSpline
 70
8
 71
3
 72
8
 73
4
 74
0
 40
0
 40
0
 40
0
 40
0
 40
1
 40
1
 40
1
 40
1
 10
15.623072
 20
64.405162
 30
0.0
 10
15.623072
 20
64.510420
 30
0.0
 10
15.664886
 20
64.611367
 30
0.0
 10
15.739314
 20
64.685795
 30
0.0
  0
SPLINE
  5
164
100
AcDbEntity
  8
Layer_1
 62
7
100
AcDbSpline
 70
8
 71
3
 72
8
 73
4
 74
0
 40
0
 40
0
 40
0
 40
0
 40
1
 40
1
 40
1
 40
1
 10
15.739314
 20
64.685795
 30
0.0
 10
15.813743
 20
64.760224
 30
0.0
 10
15.914689
 20
64.802037
 30
0.0
 10
16.019947
 20
64.802037
 30
0.0
  0
SPLINE
  5
165
100
AcDbEntity
  8
Layer_1
 62
7
100
AcDbSpline
 70
8
 71
3
 72
8
 73
4
 74
0
 40
0
 40
0
 40
0
 40
0
 40
1
 40
1
 40
1
 40
1
 10
16.019947
 20
64.802037
 30
0.0
 10
16.125205
 20
64.802037
 30
0.0
 10
16.226152
 20
64.760224
 30
0.0
 10
16.300580
 20
64.685795
 30
0.0
  0
SPLINE
  5
166
100
AcDbEntity
  8
Layer_1
 62
7
100
AcDbSpline
 70
8
 71
3
 72
8
 73
4
 74
0
 40
0
 40
0
 40
0
 40
0
 40
1
 40
1
 40
1
 40
1
 10
16.300580
 20
64.685795
 30
0.0
 10
16.375009
 20
64.611367
 30
0.0
 10
16.416822
 20
64.510420
 30
0.0
 10
16.416822
 20
64.405162
 30
0.0
  0
LWPOLYLINE
  5
167
100
AcDbEntity
  8
Layer_1
 62
7
100
AcDbPolyline
 90
1
 70
1
 10
10.001688
 20
64.405162
 30
0.0
  0
SPLINE
  5
168
100
AcDbEntity
  8
Layer_1
 62
7
100
AcDbSpline
 70
8
 71
3
 72
8
 73
4
 74
0
 40
0
 40
0
 40
0
 40
0
 40
1
 40
1
 40
1
 40
1
 10
29.247089
 20
64.405162
 30
0.0
 10
29.247089
 20
64.299904
 30
0.0
 10
29.205276
 20
64.198958
 30
0.0
 10
29.130847
 20
64.124529
 30
0.0
  0
SPLINE
  5
169
100
AcDbEntity
  8
Layer_1
 62
7
100
AcDbSpline
 70
8
 71
3
 72
8
 73
4
 74
0
 40
0
 40
0
 40
0
 40
0
 40
1
 40
1
 40
1
 40
1
 10
29.130847
 20
64.124529
 30
0.0
 10
29.056419
 20
64.050101
 30
0.0
 10
28.955472
 20
64.008287
 30
0.0
 10
28.850214
 20
64.008287
 30
0.0
  0
SPLINE
  5
16a
100
AcDbEntity
  8
Layer_1
 62
7
100
AcDbSpline
 70
8
 71
3
 72
8
 73
4
 74
0
 40
0
 40
0
 40
0
 40
0
 40
1
 40
1
 40
1
 40
1
 10
28.850214
 20
64.008287
 30
0.0
 10
28.744956
 20
64.008287
 30
0.0
 10
28.644010
 20
64.050101
 30
0.0
 10
28.569581
 20
64.124529
 30
0.0
  0
SPLINE
  5
16b
100
AcDbEntity
  8
Layer_1
 62
7
100
AcDbSpline
 70
8
 71
3
 72
8
 73
4
 74
0
 40
0
 40
0
 40
0
 40
0
 40
1
 40
1
 40
1
 40
1
 10
28.569581
 20
64.124529
 30
0.0
 10
28.495153
 20
64.198958
 30
0.0
 10
28.453339
 20
64.299904
 30
0.0
 10
28.453339
 20
64.405162
 30
0.0
  0
SPLINE
  5
16c
100
AcDbEntity
  8
Layer_1
 62
7
100
AcDbSpline
 70
8
 71
3
 72
8
 73
4
 74
0
 40
0
 40
0
 40
0
 40
0
 40
1
 40
1
 40
1
 40
1
 10
28.453339
 20
64.405162
 30
0.0
 10
28.453339
 20
64.510420
 30
0.0
 10
28.495153
 20
64.611367
 30
0.0
 10
28.569581
 20
64.685795
 30
0.0
  0
SPLINE
  5
16d
100
AcDbEntity
  8
Layer_1
 62
7
100
AcDbSpline
 70
8
 71
3
 72
8
 73
4
 74
0
 40
0
 40
0
 40
0
 40
0
 40
1
 40
1
 40
1
 40
1
 10
28.569581
 20
64.685795
 30
0.0
 10
28.644010
 20
64.760224
 30
0.0
 10
28.744956
 20
64.802037
 30
0.0
 10
28.850214
 20
64.802037
 30
0.0
  0
SPLINE
  5
16e
100
AcDbEntity
  8
Layer_1
 62
7
100
AcDbSpline
 70
8
 71
3
 72
8
 73
4
 74
0
 40
0
 40
0
 40
0
 40
0
 40
1
 40
1
 40
1
 40
1
 10
28.850214
 20
64.802037
 30
0.0
 10
28.955472
 20
64.802037
 30
0.0
 10
29.056419
 20
64.760224
 30
0.0
 10
29.130847
 20
64.685795
 30
0.0
  0
SPLINE
  5
16f
100
AcDbEntity
  8
Layer_1
 62
7
100
AcDbSpline
 70
8
 71
3
 72
8
 73
4
 74
0
 40
0
 40
0
 40
0
 40
0
 40
1
 40
1
 40
1
 40
1
 10
29.130847
 20
64.685795
 30
0.0
 10
29.205276
 20
64.611367
 30
0.0
 10
29.247089
 20
64.510420
 30
0.0
 10
29.247089
 20
64.405162
 30
0.0
  0
LWPOLYLINE
  5
170
100
AcDbEntity
  8
Layer_1
 62
7
100
AcDbPolyline
 90
1
 70
1
 10
16.416822
 20
64.405162
 30
0.0
  0
SPLINE
  5
171
100
AcDbEntity
  8
Layer_1
 62
7
100
AcDbSpline
 70
8
 71
3
 72
8
 73
4
 74
0
 40
0
 40
0
 40
0
 40
0
 40
1
 40
1
 40
1
 40
1
 10
26.039524
 20
64.405162
 30
0.0
 10
26.039524
 20
64.299904
 30
0.0
 10
25.997711
 20
64.198958
 30
0.0
 10
25.923282
 20
64.124529
 30
0.0
  0
SPLINE
  5
172
100
AcDbEntity
  8
Layer_1
 62
7
100
AcDbSpline
 70
8
 71
3
 72
8
 73
4
 74
0
 40
0
 40
0
 40
0
 40
0
 40
1
 40
1
 40
1
 40
1
 10
25.923282
 20
64.124529
 30
0.0
 10
25.848854
 20
64.050101
 30
0.0
 10
25.747907
 20
64.008287
 30
0.0
 10
25.642649
 20
64.008287
 30
0.0
  0
SPLINE
  5
173
100
AcDbEntity
  8
Layer_1
 62
7
100
AcDbSpline
 70
8
 71
3
 72
8
 73
4
 74
0
 40
0
 40
0
 40
0
 40
0
 40
1
 40
1
 40
1
 40
1
 10
25.642649
 20
64.008287
 30
0.0
 10
25.537391
 20
64.008287
 30
0.0
 10
25.436445
 20
64.050101
 30
0.0
 10
25.362016
 20
64.124529
 30
0.0
  0
SPLINE
  5
174
100
AcDbEntity
  8
Layer_1
 62
7
100
AcDbSpline
 70
8
 71
3
 72
8
 73
4
 74
0
 40
0
 40
0
 40
0
 40
0
 40
1
 40
1
 40
1
 40
1
 10
25.362016
 20
64.124529
 30
0.0
 10
25.287588
 20
64.198958
 30
0.0
 10
25.245774
 20
64.299904
 30
0.0
 10
25.245774
 20
64.405162
 30
0.0
  0
SPLINE
  5
175
100
AcDbEntity
  8
Layer_1
 62
7
100
AcDbSpline
 70
8
 71
3
 72
8
 73
4
 74
0
 40
0
 40
0
 40
0
 40
0
 40
1
 40
1
 40
1
 40
1
 10
25.245774
 20
64.405162
 30
0.0
 10
25.245774
 20
64.510420
 30
0.0
 10
25.287588
 20
64.611367
 30
0.0
 10
25.362016
 20
64.685795
 30
0.0
  0
SPLINE
  5
176
100
AcDbEntity
  8
Layer_1
 62
7
100
AcDbSpline
 70
8
 71
3
 72
8
 73
4
 74
0
 40
0
 40
0
 40
0
 40
0
 40
1
 40
1
 40
1
 40
1
 10
25.362016
 20
64.685795
 30
0.0
 10
25.436445
 20
64.760224
 30
0.0
 10
25.537391
 20
64.802037
 30
0.0
 10
25.642649
 20
64.802037
 30
0.0
  0
SPLINE
  5
177
100
AcDbEntity
  8
Layer_1
 62
7
100
AcDbSpline
 70
8
 71
3
 72
8
 73
4
 74
0
 40
0
 40
0
 40
0
 40
0
 40
1
 40
1
 40
1
 40
1
 10
25.642649
 20
64.802037
 30
0.0
 10
25.747907
 20
64.802037
 30
0.0
 10
25.848854
 20
64.760224
 30
0.0
 10
25.923282
 20
64.685795
 30
0.0
  0
SPLINE
  5
178
100
AcDbEntity
  8
Layer_1
 62
7
100
AcDbSpline
 70
8
 71
3
 72
8
 73
4
 74
0
 40
0
 40
0
 40
0
 40
0
 40
1
 40
1
 40
1
 40
1
 10
25.923282
 20
64.685795
 30
0.0
 10
25.997711
 20
64.611367
 30
0.0
 10
26.039524
 20
64.510420
 30
0.0
 10
26.039524
 20
64.405162
 30
0.0
  0
LWPOLYLINE
  5
179
100
AcDbEntity
  8
Layer_1
 62
7
100
AcDbPolyline
 90
1
 70
1
 10
29.247089
 20
64.405162
 30
0.0
  0
SPLINE
  5
17a
100
AcDbEntity
  8
Layer_1
 62
7
100
AcDbSpline
 70
8
 71
3
 72
8
 73
4
 74
0
 40
0
 40
0
 40
0
 40
0
 40
1
 40
1
 40
1
 40
1
 10
32.454659
 20
64.405162
 30
0.0
 10
32.454659
 20
64.299904
 30
0.0
 10
32.412846
 20
64.198958
 30
0.0
 10
32.338418
 20
64.124529
 30
0.0
  0
SPLINE
  5
17b
100
AcDbEntity
  8
Layer_1
 62
7
100
AcDbSpline
 70
8
 71
3
 72
8
 73
4
 74
0
 40
0
 40
0
 40
0
 40
0
 40
1
 40
1
 40
1
 40
1
 10
32.338418
 20
64.124529
 30
0.0
 10
32.263989
 20
64.050101
 30
0.0
 10
32.163042
 20
64.008287
 30
0.0
 10
32.057785
 20
64.008287
 30
0.0
  0
SPLINE
  5
17c
100
AcDbEntity
  8
Layer_1
 62
7
100
AcDbSpline
 70
8
 71
3
 72
8
 73
4
 74
0
 40
0
 40
0
 40
0
 40
0
 40
1
 40
1
 40
1
 40
1
 10
32.057785
 20
64.008287
 30
0.0
 10
31.952527
 20
64.008287
 30
0.0
 10
31.851580
 20
64.050101
 30
0.0
 10
31.777151
 20
64.124529
 30
0.0
  0
SPLINE
  5
17d
100
AcDbEntity
  8
Layer_1
 62
7
100
AcDbSpline
 70
8
 71
3
 72
8
 73
4
 74
0
 40
0
 40
0
 40
0
 40
0
 40
1
 40
1
 40
1
 40
1
 10
31.777151
 20
64.124529
 30
0.0
 10
31.702723
 20
64.198958
 30
0.0
 10
31.660909
 20
64.299904
 30
0.0
 10
31.660909
 20
64.405162
 30
0.0
  0
SPLINE
  5
17e
100
AcDbEntity
  8
Layer_1
 62
7
100
AcDbSpline
 70
8
 71
3
 72
8
 73
4
 74
0
 40
0
 40
0
 40
0
 40
0
 40
1
 40
1
 40
1
 40
1
 10
31.660909
 20
64.405162
 30
0.0
 10
31.660909
 20
64.510420
 30
0.0
 10
31.702723
 20
64.611367
 30
0.0
 10
31.777151
 20
64.685795
 30
0.0
  0
SPLINE
  5
17f
100
AcDbEntity
  8
Layer_1
 62
7
100
AcDbSpline
 70
8
 71
3
 72
8
 73
4
 74
0
 40
0
 40
0
 40
0
 40
0
 40
1
 40
1
 40
1
 40
1
 10
31.777151
 20
64.685795
 30
0.0
 10
31.851580
 20
64.760224
 30
0.0
 10
31.952527
 20
64.802037
 30
0.0
 10
32.057785
 20
64.802037
 30
0.0
  0
SPLINE
  5
180
100
AcDbEntity
  8
Layer_1
 62
7
100
AcDbSpline
 70
8
 71
3
 72
8
 73
4
 74
0
 40
0
 40
0
 40
0
 40
0
 40
1
 40
1
 40
1
 40
1
 10
32.057785
 20
64.802037
 30
0.0
 10
32.163042
 20
64.802037
 30
0.0
 10
32.263989
 20
64.760224
 30
0.0
 10
32.338418
 20
64.685795
 30
0.0
  0
SPLINE
  5
181
100
AcDbEntity
  8
Layer_1
 62
7
100
AcDbSpline
 70
8
 71
3
 72
8
 73
4
 74
0
 40
0
 40
0
 40
0
 40
0
 40
1
 40
1
 40
1
 40
1
 10
32.338418
 20
64.685795
 30
0.0
 10
32.412846
 20
64.611367
 30
0.0
 10
32.454659
 20
64.510420
 30
0.0
 10
32.454659
 20
64.405162
 30
0.0
  0
LWPOLYLINE
  5
182
100
AcDbEntity
  8
Layer_1
 62
7
100
AcDbPolyline
 90
1
 70
1
 10
26.039524
 20
64.405162
 30
0.0
  0
SPLINE
  5
183
100
AcDbEntity
  8
Layer_1
 62
7
100
AcDbSpline
 70
8
 71
3
 72
8
 73
4
 74
0
 40
0
 40
0
 40
0
 40
0
 40
1
 40
1
 40
1
 40
1
 10
35.662222
 20
64.405162
 30
0.0
 10
35.662222
 20
64.299904
 30
0.0
 10
35.620408
 20
64.198958
 30
0.0
 10
35.545980
 20
64.124529
 30
0.0
  0
SPLINE
  5
184
100
AcDbEntity
  8
Layer_1
 62
7
100
AcDbSpline
 70
8
 71
3
 72
8
 73
4
 74
0
 40
0
 40
0
 40
0
 40
0
 40
1
 40
1
 40
1
 40
1
 10
35.545980
 20
64.124529
 30
0.0
 10
35.471551
 20
64.050101
 30
0.0
 10
35.370605
 20
64.008287
 30
0.0
 10
35.265347
 20
64.008287
 30
0.0
  0
SPLINE
  5
185
100
AcDbEntity
  8
Layer_1
 62
7
100
AcDbSpline
 70
8
 71
3
 72
8
 73
4
 74
0
 40
0
 40
0
 40
0
 40
0
 40
1
 40
1
 40
1
 40
1
 10
35.265347
 20
64.008287
 30
0.0
 10
35.046159
 20
64.008287
 30
0.0
 10
34.868472
 20
64.185974
 30
0.0
 10
34.868472
 20
64.405162
 30
0.0
  0
SPLINE
  5
186
100
AcDbEntity
  8
Layer_1
 62
7
100
AcDbSpline
 70
8
 71
3
 72
8
 73
4
 74
0
 40
0
 40
0
 40
0
 40
0
 40
1
 40
1
 40
1
 40
1
 10
34.868472
 20
64.405162
 30
0.0
 10
34.868472
 20
64.510420
 30
0.0
 10
34.910285
 20
64.611367
 30
0.0
 10
34.984714
 20
64.685795
 30
0.0
  0
SPLINE
  5
187
100
AcDbEntity
  8
Layer_1
 62
7
100
AcDbSpline
 70
8
 71
3
 72
8
 73
4
 74
0
 40
0
 40
0
 40
0
 40
0
 40
1
 40
1
 40
1
 40
1
 10
34.984714
 20
64.685795
 30
0.0
 10
35.059142
 20
64.760224
 30
0.0
 10
35.160089
 20
64.802037
 30
0.0
 10
35.265347
 20
64.802037
 30
0.0
  0
SPLINE
  5
188
100
AcDbEntity
  8
Layer_1
 62
7
100
AcDbSpline
 70
8
 71
3
 72
8
 73
4
 74
0
 40
0
 40
0
 40
0
 40
0
 40
1
 40
1
 40
1
 40
1
 10
35.265347
 20
64.802037
 30
0.0
 10
35.370605
 20
64.802037
 30
0.0
 10
35.471551
 20
64.760224
 30
0.0
 10
35.545980
 20
64.685795
 30
0.0
  0
SPLINE
  5
189
100
AcDbEntity
  8
Layer_1
 62
7
100
AcDbSpline
 70
8
 71
3
 72
8
 73
4
 74
0
 40
0
 40
0
 40
0
 40
0
 40
1
 40
1
 40
1
 40
1
 10
35.545980
 20
64.685795
 30
0.0
 10
35.620408
 20
64.611367
 30
0.0
 10
35.662222
 20
64.510420
 30
0.0
 10
35.662222
 20
64.405162
 30
0.0
  0
LWPOLYLINE
  5
18a
100
AcDbEntity
  8
Layer_1
 62
7
100
AcDbPolyline
 90
1
 70
1
 10
32.454659
 20
64.405162
 30
0.0
  0
SPLINE
  5
18b
100
AcDbEntity
  8
Layer_1
 62
7
100
AcDbSpline
 70
8
 71
3
 72
8
 73
4
 74
0
 40
0
 40
0
 40
0
 40
0
 40
1
 40
1
 40
1
 40
1
 10
38.869792
 20
64.405162
 30
0.0
 10
38.869792
 20
64.299904
 30
0.0
 10
38.827978
 20
64.198958
 30
0.0
 10
38.753550
 20
64.124529
 30
0.0
  0
SPLINE
  5
18c
100
AcDbEntity
  8
Layer_1
 62
7
100
AcDbSpline
 70
8
 71
3
 72
8
 73
4
 74
0
 40
0
 40
0
 40
0
 40
0
 40
1
 40
1
 40
1
 40
1
 10
38.753550
 20
64.124529
 30
0.0
 10
38.679121
 20
64.050101
 30
0.0
 10
38.578175
 20
64.008287
 30
0.0
 10
38.472917
 20
64.008287
 30
0.0
  0
SPLINE
  5
18d
100
AcDbEntity
  8
Layer_1
 62
7
100
AcDbSpline
 70
8
 71
3
 72
8
 73
4
 74
0
 40
0
 40
0
 40
0
 40
0
 40
1
 40
1
 40
1
 40
1
 10
38.472917
 20
64.008287
 30
0.0
 10
38.367659
 20
64.008287
 30
0.0
 10
38.266712
 20
64.050101
 30
0.0
 10
38.192284
 20
64.124529
 30
0.0
  0
SPLINE
  5
18e
100
AcDbEntity
  8
Layer_1
 62
7
100
AcDbSpline
 70
8
 71
3
 72
8
 73
4
 74
0
 40
0
 40
0
 40
0
 40
0
 40
1
 40
1
 40
1
 40
1
 10
38.192284
 20
64.124529
 30
0.0
 10
38.117855
 20
64.198958
 30
0.0
 10
38.076042
 20
64.299904
 30
0.0
 10
38.076042
 20
64.405162
 30
0.0
  0
SPLINE
  5
18f
100
AcDbEntity
  8
Layer_1
 62
7
100
AcDbSpline
 70
8
 71
3
 72
8
 73
4
 74
0
 40
0
 40
0
 40
0
 40
0
 40
1
 40
1
 40
1
 40
1
 10
38.076042
 20
64.405162
 30
0.0
 10
38.076042
 20
64.510420
 30
0.0
 10
38.117855
 20
64.611367
 30
0.0
 10
38.192284
 20
64.685795
 30
0.0
  0
SPLINE
  5
190
100
AcDbEntity
  8
Layer_1
 62
7
100
AcDbSpline
 70
8
 71
3
 72
8
 73
4
 74
0
 40
0
 40
0
 40
0
 40
0
 40
1
 40
1
 40
1
 40
1
 10
38.192284
 20
64.685795
 30
0.0
 10
38.266712
 20
64.760224
 30
0.0
 10
38.367659
 20
64.802037
 30
0.0
 10
38.472917
 20
64.802037
 30
0.0
  0
SPLINE
  5
191
100
AcDbEntity
  8
Layer_1
 62
7
100
AcDbSpline
 70
8
 71
3
 72
8
 73
4
 74
0
 40
0
 40
0
 40
0
 40
0
 40
1
 40
1
 40
1
 40
1
 10
38.472917
 20
64.802037
 30
0.0
 10
38.578175
 20
64.802037
 30
0.0
 10
38.679121
 20
64.760224
 30
0.0
 10
38.753550
 20
64.685795
 30
0.0
  0
SPLINE
  5
192
100
AcDbEntity
  8
Layer_1
 62
7
100
AcDbSpline
 70
8
 71
3
 72
8
 73
4
 74
0
 40
0
 40
0
 40
0
 40
0
 40
1
 40
1
 40
1
 40
1
 10
38.753550
 20
64.685795
 30
0.0
 10
38.827978
 20
64.611367
 30
0.0
 10
38.869792
 20
64.510420
 30
0.0
 10
38.869792
 20
64.405162
 30
0.0
  0
LWPOLYLINE
  5
193
100
AcDbEntity
  8
Layer_1
 62
7
100
AcDbPolyline
 90
1
 70
1
 10
35.662222
 20
64.405162
 30
0.0
  0
SPLINE
  5
194
100
AcDbEntity
  8
Layer_1
 62
7
100
AcDbSpline
 70
8
 71
3
 72
8
 73
4
 74
0
 40
0
 40
0
 40
0
 40
0
 40
1
 40
1
 40
1
 40
1
 10
42.077362
 20
64.405162
 30
0.0
 10
42.077362
 20
64.299904
 30
0.0
 10
42.035549
 20
64.198958
 30
0.0
 10
41.961120
 20
64.124529
 30
0.0
  0
SPLINE
  5
195
100
AcDbEntity
  8
Layer_1
 62
7
100
AcDbSpline
 70
8
 71
3
 72
8
 73
4
 74
0
 40
0
 40
0
 40
0
 40
0
 40
1
 40
1
 40
1
 40
1
 10
41.961120
 20
64.124529
 30
0.0
 10
41.886692
 20
64.050101
 30
0.0
 10
41.785745
 20
64.008287
 30
0.0
 10
41.680487
 20
64.008287
 30
0.0
  0
SPLINE
  5
196
100
AcDbEntity
  8
Layer_1
 62
7
100
AcDbSpline
 70
8
 71
3
 72
8
 73
4
 74
0
 40
0
 40
0
 40
0
 40
0
 40
1
 40
1
 40
1
 40
1
 10
41.680487
 20
64.008287
 30
0.0
 10
41.461299
 20
64.008287
 30
0.0
 10
41.283612
 20
64.185974
 30
0.0
 10
41.283612
 20
64.405162
 30
0.0
  0
SPLINE
  5
197
100
AcDbEntity
  8
Layer_1
 62
7
100
AcDbSpline
 70
8
 71
3
 72
8
 73
4
 74
0
 40
0
 40
0
 40
0
 40
0
 40
1
 40
1
 40
1
 40
1
 10
41.283612
 20
64.405162
 30
0.0
 10
41.283612
 20
64.510420
 30
0.0
 10
41.325426
 20
64.611367
 30
0.0
 10
41.399854
 20
64.685795
 30
0.0
  0
SPLINE
  5
198
100
AcDbEntity
  8
Layer_1
 62
7
100
AcDbSpline
 70
8
 71
3
 72
8
 73
4
 74
0
 40
0
 40
0
 40
0
 40
0
 40
1
 40
1
 40
1
 40
1
 10
41.399854
 20
64.685795
 30
0.0
 10
41.474283
 20
64.760224
 30
0.0
 10
41.575229
 20
64.802037
 30
0.0
 10
41.680487
 20
64.802037
 30
0.0
  0
SPLINE
  5
199
100
AcDbEntity
  8
Layer_1
 62
7
100
AcDbSpline
 70
8
 71
3
 72
8
 73
4
 74
0
 40
0
 40
0
 40
0
 40
0
 40
1
 40
1
 40
1
 40
1
 10
41.680487
 20
64.802037
 30
0.0
 10
41.785745
 20
64.802037
 30
0.0
 10
41.886692
 20
64.760224
 30
0.0
 10
41.961120
 20
64.685795
 30
0.0
  0
SPLINE
  5
19a
100
AcDbEntity
  8
Layer_1
 62
7
100
AcDbSpline
 70
8
 71
3
 72
8
 73
4
 74
0
 40
0
 40
0
 40
0
 40
0
 40
1
 40
1
 40
1
 40
1
 10
41.961120
 20
64.685795
 30
0.0
 10
42.035549
 20
64.611367
 30
0.0
 10
42.077362
 20
64.510420
 30
0.0
 10
42.077362
 20
64.405162
 30
0.0
  0
LWPOLYLINE
  5
19b
100
AcDbEntity
  8
Layer_1
 62
7
100
AcDbPolyline
 90
1
 70
1
 10
38.869792
 20
64.405162
 30
0.0
  0
SPLINE
  5
19c
100
AcDbEntity
  8
Layer_1
 62
7
100
AcDbSpline
 70
8
 71
3
 72
8
 73
4
 74
0
 40
0
 40
0
 40
0
 40
0
 40
1
 40
1
 40
1
 40
1
 10
45.284922
 20
64.405162
 30
0.0
 10
45.284922
 20
64.299904
 30
0.0
 10
45.243108
 20
64.198958
 30
0.0
 10
45.168680
 20
64.124529
 30
0.0
  0
SPLINE
  5
19d
100
AcDbEntity
  8
Layer_1
 62
7
100
AcDbSpline
 70
8
 71
3
 72
8
 73
4
 74
0
 40
0
 40
0
 40
0
 40
0
 40
1
 40
1
 40
1
 40
1
 10
45.168680
 20
64.124529
 30
0.0
 10
45.094251
 20
64.050101
 30
0.0
 10
44.993305
 20
64.008287
 30
0.0
 10
44.888047
 20
64.008287
 30
0.0
  0
SPLINE
  5
19e
100
AcDbEntity
  8
Layer_1
 62
7
100
AcDbSpline
 70
8
 71
3
 72
8
 73
4
 74
0
 40
0
 40
0
 40
0
 40
0
 40
1
 40
1
 40
1
 40
1
 10
44.888047
 20
64.008287
 30
0.0
 10
44.668859
 20
64.008287
 30
0.0
 10
44.491172
 20
64.185974
 30
0.0
 10
44.491172
 20
64.405162
 30
0.0
  0
SPLINE
  5
19f
100
AcDbEntity
  8
Layer_1
 62
7
100
AcDbSpline
 70
8
 71
3
 72
8
 73
4
 74
0
 40
0
 40
0
 40
0
 40
0
 40
1
 40
1
 40
1
 40
1
 10
44.491172
 20
64.405162
 30
0.0
 10
44.491172
 20
64.510420
 30
0.0
 10
44.532985
 20
64.611367
 30
0.0
 10
44.607414
 20
64.685795
 30
0.0
  0
SPLINE
  5
1a0
100
AcDbEntity
  8
Layer_1
 62
7
100
AcDbSpline
 70
8
 71
3
 72
8
 73
4
 74
0
 40
0
 40
0
 40
0
 40
0
 40
1
 40
1
 40
1
 40
1
 10
44.607414
 20
64.685795
 30
0.0
 10
44.681842
 20
64.760224
 30
0.0
 10
44.782789
 20
64.802037
 30
0.0
 10
44.888047
 20
64.802037
 30
0.0
  0
SPLINE
  5
1a1
100
AcDbEntity
  8
Layer_1
 62
7
100
AcDbSpline
 70
8
 71
3
 72
8
 73
4
 74
0
 40
0
 40
0
 40
0
 40
0
 40
1
 40
1
 40
1
 40
1
 10
44.888047
 20
64.802037
 30
0.0
 10
44.993305
 20
64.802037
 30
0.0
 10
45.094251
 20
64.760224
 30
0.0
 10
45.168680
 20
64.685795
 30
0.0
  0
SPLINE
  5
1a2
100
AcDbEntity
  8
Layer_1
 62
7
100
AcDbSpline
 70
8
 71
3
 72
8
 73
4
 74
0
 40
0
 40
0
 40
0
 40
0
 40
1
 40
1
 40
1
 40
1
 10
45.168680
 20
64.685795
 30
0.0
 10
45.243108
 20
64.611367
 30
0.0
 10
45.284922
 20
64.510420
 30
0.0
 10
45.284922
 20
64.405162
 30
0.0
  0
LWPOLYLINE
  5
1a3
100
AcDbEntity
  8
Layer_1
 62
7
100
AcDbPolyline
 90
1
 70
1
 10
42.077362
 20
64.405162
 30
0.0
  0
SPLINE
  5
1a4
100
AcDbEntity
  8
Layer_1
 62
7
100
AcDbSpline
 70
8
 71
3
 72
8
 73
4
 74
0
 40
0
 40
0
 40
0
 40
0
 40
1
 40
1
 40
1
 40
1
 10
48.492495
 20
64.405162
 30
0.0
 10
48.492495
 20
64.299904
 30
0.0
 10
48.450681
 20
64.198958
 30
0.0
 10
48.376253
 20
64.124529
 30
0.0
  0
SPLINE
  5
1a5
100
AcDbEntity
  8
Layer_1
 62
7
100
AcDbSpline
 70
8
 71
3
 72
8
 73
4
 74
0
 40
0
 40
0
 40
0
 40
0
 40
1
 40
1
 40
1
 40
1
 10
48.376253
 20
64.124529
 30
0.0
 10
48.301824
 20
64.050101
 30
0.0
 10
48.200877
 20
64.008287
 30
0.0
 10
48.095620
 20
64.008287
 30
0.0
  0
SPLINE
  5
1a6
100
AcDbEntity
  8
Layer_1
 62
7
100
AcDbSpline
 70
8
 71
3
 72
8
 73
4
 74
0
 40
0
 40
0
 40
0
 40
0
 40
1
 40
1
 40
1
 40
1
 10
48.095620
 20
64.008287
 30
0.0
 10
47.990362
 20
64.008287
 30
0.0
 10
47.889415
 20
64.050101
 30
0.0
 10
47.814987
 20
64.124529
 30
0.0
  0
SPLINE
  5
1a7
100
AcDbEntity
  8
Layer_1
 62
7
100
AcDbSpline
 70
8
 71
3
 72
8
 73
4
 74
0
 40
0
 40
0
 40
0
 40
0
 40
1
 40
1
 40
1
 40
1
 10
47.814987
 20
64.124529
 30
0.0
 10
47.740558
 20
64.198958
 30
0.0
 10
47.698745
 20
64.299904
 30
0.0
 10
47.698745
 20
64.405162
 30
0.0
  0
SPLINE
  5
1a8
100
AcDbEntity
  8
Layer_1
 62
7
100
AcDbSpline
 70
8
 71
3
 72
8
 73
4
 74
0
 40
0
 40
0
 40
0
 40
0
 40
1
 40
1
 40
1
 40
1
 10
47.698745
 20
64.405162
 30
0.0
 10
47.698745
 20
64.510420
 30
0.0
 10
47.740558
 20
64.611367
 30
0.0
 10
47.814987
 20
64.685795
 30
0.0
  0
SPLINE
  5
1a9
100
AcDbEntity
  8
Layer_1
 62
7
100
AcDbSpline
 70
8
 71
3
 72
8
 73
4
 74
0
 40
0
 40
0
 40
0
 40
0
 40
1
 40
1
 40
1
 40
1
 10
47.814987
 20
64.685795
 30
0.0
 10
47.889415
 20
64.760224
 30
0.0
 10
47.990362
 20
64.802037
 30
0.0
 10
48.095620
 20
64.802037
 30
0.0
  0
SPLINE
  5
1aa
100
AcDbEntity
  8
Layer_1
 62
7
100
AcDbSpline
 70
8
 71
3
 72
8
 73
4
 74
0
 40
0
 40
0
 40
0
 40
0
 40
1
 40
1
 40
1
 40
1
 10
48.095620
 20
64.802037
 30
0.0
 10
48.200877
 20
64.802037
 30
0.0
 10
48.301824
 20
64.760224
 30
0.0
 10
48.376253
 20
64.685795
 30
0.0
  0
SPLINE
  5
1ab
100
AcDbEntity
  8
Layer_1
 62
7
100
AcDbSpline
 70
8
 71
3
 72
8
 73
4
 74
0
 40
0
 40
0
 40
0
 40
0
 40
1
 40
1
 40
1
 40
1
 10
48.376253
 20
64.685795
 30
0.0
 10
48.450681
 20
64.611367
 30
0.0
 10
48.492495
 20
64.510420
 30
0.0
 10
48.492495
 20
64.405162
 30
0.0
  0
LWPOLYLINE
  5
1ac
100
AcDbEntity
  8
Layer_1
 62
7
100
AcDbPolyline
 90
1
 70
1
 10
45.284922
 20
64.405162
 30
0.0
  0
SPLINE
  5
1ad
100
AcDbEntity
  8
Layer_1
 62
7
100
AcDbSpline
 70
8
 71
3
 72
8
 73
4
 74
0
 40
0
 40
0
 40
0
 40
0
 40
1
 40
1
 40
1
 40
1
 10
51.700057
 20
64.405162
 30
0.0
 10
51.700057
 20
64.299904
 30
0.0
 10
51.658243
 20
64.198958
 30
0.0
 10
51.583815
 20
64.124529
 30
0.0
  0
SPLINE
  5
1ae
100
AcDbEntity
  8
Layer_1
 62
7
100
AcDbSpline
 70
8
 71
3
 72
8
 73
4
 74
0
 40
0
 40
0
 40
0
 40
0
 40
1
 40
1
 40
1
 40
1
 10
51.583815
 20
64.124529
 30
0.0
 10
51.509386
 20
64.050101
 30
0.0
 10
51.408440
 20
64.008287
 30
0.0
 10
51.303182
 20
64.008287
 30
0.0
  0
SPLINE
  5
1af
100
AcDbEntity
  8
Layer_1
 62
7
100
AcDbSpline
 70
8
 71
3
 72
8
 73
4
 74
0
 40
0
 40
0
 40
0
 40
0
 40
1
 40
1
 40
1
 40
1
 10
51.303182
 20
64.008287
 30
0.0
 10
51.197924
 20
64.008287
 30
0.0
 10
51.096977
 20
64.050101
 30
0.0
 10
51.022549
 20
64.124529
 30
0.0
  0
SPLINE
  5
1b0
100
AcDbEntity
  8
Layer_1
 62
7
100
AcDbSpline
 70
8
 71
3
 72
8
 73
4
 74
0
 40
0
 40
0
 40
0
 40
0
 40
1
 40
1
 40
1
 40
1
 10
51.022549
 20
64.124529
 30
0.0
 10
50.948120
 20
64.198958
 30
0.0
 10
50.906307
 20
64.299904
 30
0.0
 10
50.906307
 20
64.405162
 30
0.0
  0
SPLINE
  5
1b1
100
AcDbEntity
  8
Layer_1
 62
7
100
AcDbSpline
 70
8
 71
3
 72
8
 73
4
 74
0
 40
0
 40
0
 40
0
 40
0
 40
1
 40
1
 40
1
 40
1
 10
50.906307
 20
64.405162
 30
0.0
 10
50.906307
 20
64.510420
 30
0.0
 10
50.948120
 20
64.611367
 30
0.0
 10
51.022549
 20
64.685795
 30
0.0
  0
SPLINE
  5
1b2
100
AcDbEntity
  8
Layer_1
 62
7
100
AcDbSpline
 70
8
 71
3
 72
8
 73
4
 74
0
 40
0
 40
0
 40
0
 40
0
 40
1
 40
1
 40
1
 40
1
 10
51.022549
 20
64.685795
 30
0.0
 10
51.096977
 20
64.760224
 30
0.0
 10
51.197924
 20
64.802037
 30
0.0
 10
51.303182
 20
64.802037
 30
0.0
  0
SPLINE
  5
1b3
100
AcDbEntity
  8
Layer_1
 62
7
100
AcDbSpline
 70
8
 71
3
 72
8
 73
4
 74
0
 40
0
 40
0
 40
0
 40
0
 40
1
 40
1
 40
1
 40
1
 10
51.303182
 20
64.802037
 30
0.0
 10
51.408440
 20
64.802037
 30
0.0
 10
51.509386
 20
64.760224
 30
0.0
 10
51.583815
 20
64.685795
 30
0.0
  0
SPLINE
  5
1b4
100
AcDbEntity
  8
Layer_1
 62
7
100
AcDbSpline
 70
8
 71
3
 72
8
 73
4
 74
0
 40
0
 40
0
 40
0
 40
0
 40
1
 40
1
 40
1
 40
1
 10
51.583815
 20
64.685795
 30
0.0
 10
51.658243
 20
64.611367
 30
0.0
 10
51.700057
 20
64.510420
 30
0.0
 10
51.700057
 20
64.405162
 30
0.0
  0
LWPOLYLINE
  5
1b5
100
AcDbEntity
  8
Layer_1
 62
7
100
AcDbPolyline
 90
1
 70
1
 10
48.492495
 20
64.405162
 30
0.0
  0
SPLINE
  5
1b6
100
AcDbEntity
  8
Layer_1
 62
7
100
AcDbSpline
 70
8
 71
3
 72
8
 73
4
 74
0
 40
0
 40
0
 40
0
 40
0
 40
1
 40
1
 40
1
 40
1
 10
22.831958
 20
64.405162
 30
0.0
 10
22.831958
 20
64.299904
 30
0.0
 10
22.790144
 20
64.198958
 30
0.0
 10
22.715716
 20
64.124529
 30
0.0
  0
SPLINE
  5
1b7
100
AcDbEntity
  8
Layer_1
 62
7
100
AcDbSpline
 70
8
 71
3
 72
8
 73
4
 74
0
 40
0
 40
0
 40
0
 40
0
 40
1
 40
1
 40
1
 40
1
 10
22.715716
 20
64.124529
 30
0.0
 10
22.641287
 20
64.050101
 30
0.0
 10
22.540341
 20
64.008287
 30
0.0
 10
22.435083
 20
64.008287
 30
0.0
  0
SPLINE
  5
1b8
100
AcDbEntity
  8
Layer_1
 62
7
100
AcDbSpline
 70
8
 71
3
 72
8
 73
4
 74
0
 40
0
 40
0
 40
0
 40
0
 40
1
 40
1
 40
1
 40
1
 10
22.435083
 20
64.008287
 30
0.0
 10
22.329825
 20
64.008287
 30
0.0
 10
22.228878
 20
64.050101
 30
0.0
 10
22.154450
 20
64.124529
 30
0.0
  0
SPLINE
  5
1b9
100
AcDbEntity
  8
Layer_1
 62
7
100
AcDbSpline
 70
8
 71
3
 72
8
 73
4
 74
0
 40
0
 40
0
 40
0
 40
0
 40
1
 40
1
 40
1
 40
1
 10
22.154450
 20
64.124529
 30
0.0
 10
22.080021
 20
64.198958
 30
0.0
 10
22.038208
 20
64.299904
 30
0.0
 10
22.038208
 20
64.405162
 30
0.0
  0
SPLINE
  5
1ba
100
AcDbEntity
  8
Layer_1
 62
7
100
AcDbSpline
 70
8
 71
3
 72
8
 73
4
 74
0
 40
0
 40
0
 40
0
 40
0
 40
1
 40
1
 40
1
 40
1
 10
22.038208
 20
64.405162
 30
0.0
 10
22.038208
 20
64.510420
 30
0.0
 10
22.080021
 20
64.611367
 30
0.0
 10
22.154450
 20
64.685795
 30
0.0
  0
SPLINE
  5
1bb
100
AcDbEntity
  8
Layer_1
 62
7
100
AcDbSpline
 70
8
 71
3
 72
8
 73
4
 74
0
 40
0
 40
0
 40
0
 40
0
 40
1
 40
1
 40
1
 40
1
 10
22.154450
 20
64.685795
 30
0.0
 10
22.228878
 20
64.760224
 30
0.0
 10
22.329825
 20
64.802037
 30
0.0
 10
22.435083
 20
64.802037
 30
0.0
  0
SPLINE
  5
1bc
100
AcDbEntity
  8
Layer_1
 62
7
100
AcDbSpline
 70
8
 71
3
 72
8
 73
4
 74
0
 40
0
 40
0
 40
0
 40
0
 40
1
 40
1
 40
1
 40
1
 10
22.435083
 20
64.802037
 30
0.0
 10
22.540341
 20
64.802037
 30
0.0
 10
22.641287
 20
64.760224
 30
0.0
 10
22.715716
 20
64.685795
 30
0.0
  0
SPLINE
  5
1bd
100
AcDbEntity
  8
Layer_1
 62
7
100
AcDbSpline
 70
8
 71
3
 72
8
 73
4
 74
0
 40
0
 40
0
 40
0
 40
0
 40
1
 40
1
 40
1
 40
1
 10
22.715716
 20
64.685795
 30
0.0
 10
22.790144
 20
64.611367
 30
0.0
 10
22.831958
 20
64.510420
 30
0.0
 10
22.831958
 20
64.405162
 30
0.0
  0
LWPOLYLINE
  5
1be
100
AcDbEntity
  8
Layer_1
 62
7
100
AcDbPolyline
 90
1
 70
1
 10
51.700057
 20
64.405162
 30
0.0
  0
SPLINE
  5
1bf
100
AcDbEntity
  8
Layer_1
 62
7
100
AcDbSpline
 70
8
 71
3
 72
8
 73
4
 74
0
 40
0
 40
0
 40
0
 40
0
 40
1
 40
1
 40
1
 40
1
 10
19.624390
 20
64.405162
 30
0.0
 10
19.624390
 20
64.299904
 30
0.0
 10
19.582576
 20
64.198958
 30
0.0
 10
19.508148
 20
64.124529
 30
0.0
  0
SPLINE
  5
1c0
100
AcDbEntity
  8
Layer_1
 62
7
100
AcDbSpline
 70
8
 71
3
 72
8
 73
4
 74
0
 40
0
 40
0
 40
0
 40
0
 40
1
 40
1
 40
1
 40
1
 10
19.508148
 20
64.124529
 30
0.0
 10
19.433719
 20
64.050101
 30
0.0
 10
19.332772
 20
64.008287
 30
0.0
 10
19.227515
 20
64.008287
 30
0.0
  0
SPLINE
  5
1c1
100
AcDbEntity
  8
Layer_1
 62
7
100
AcDbSpline
 70
8
 71
3
 72
8
 73
4
 74
0
 40
0
 40
0
 40
0
 40
0
 40
1
 40
1
 40
1
 40
1
 10
19.227515
 20
64.008287
 30
0.0
 10
19.122257
 20
64.008287
 30
0.0
 10
19.021310
 20
64.050101
 30
0.0
 10
18.946882
 20
64.124529
 30
0.0
  0
SPLINE
  5
1c2
100
AcDbEntity
  8
Layer_1
 62
7
100
AcDbSpline
 70
8
 71
3
 72
8
 73
4
 74
0
 40
0
 40
0
 40
0
 40
0
 40
1
 40
1
 40
1
 40
1
 10
18.946882
 20
64.124529
 30
0.0
 10
18.872453
 20
64.198958
 30
0.0
 10
18.830640
 20
64.299904
 30
0.0
 10
18.830640
 20
64.405162
 30
0.0
  0
SPLINE
  5
1c3
100
AcDbEntity
  8
Layer_1
 62
7
100
AcDbSpline
 70
8
 71
3
 72
8
 73
4
 74
0
 40
0
 40
0
 40
0
 40
0
 40
1
 40
1
 40
1
 40
1
 10
18.830640
 20
64.405162
 30
0.0
 10
18.830640
 20
64.510420
 30
0.0
 10
18.872453
 20
64.611367
 30
0.0
 10
18.946882
 20
64.685795
 30
0.0
  0
SPLINE
  5
1c4
100
AcDbEntity
  8
Layer_1
 62
7
100
AcDbSpline
 70
8
 71
3
 72
8
 73
4
 74
0
 40
0
 40
0
 40
0
 40
0
 40
1
 40
1
 40
1
 40
1
 10
18.946882
 20
64.685795
 30
0.0
 10
19.021310
 20
64.760224
 30
0.0
 10
19.122257
 20
64.802037
 30
0.0
 10
19.227515
 20
64.802037
 30
0.0
  0
SPLINE
  5
1c5
100
AcDbEntity
  8
Layer_1
 62
7
100
AcDbSpline
 70
8
 71
3
 72
8
 73
4
 74
0
 40
0
 40
0
 40
0
 40
0
 40
1
 40
1
 40
1
 40
1
 10
19.227515
 20
64.802037
 30
0.0
 10
19.332772
 20
64.802037
 30
0.0
 10
19.433719
 20
64.760224
 30
0.0
 10
19.508148
 20
64.685795
 30
0.0
  0
SPLINE
  5
1c6
100
AcDbEntity
  8
Layer_1
 62
7
100
AcDbSpline
 70
8
 71
3
 72
8
 73
4
 74
0
 40
0
 40
0
 40
0
 40
0
 40
1
 40
1
 40
1
 40
1
 10
19.508148
 20
64.685795
 30
0.0
 10
19.582576
 20
64.611367
 30
0.0
 10
19.624390
 20
64.510420
 30
0.0
 10
19.624390
 20
64.405162
 30
0.0
  0
LWPOLYLINE
  5
1c7
100
AcDbEntity
  8
Layer_1
 62
7
100
AcDbPolyline
 90
1
 70
1
 10
22.831958
 20
64.405162
 30
0.0
  0
SPLINE
  5
1c8
100
AcDbEntity
  8
Layer_1
 62
7
100
AcDbSpline
 70
8
 71
3
 72
8
 73
4
 74
0
 40
0
 40
0
 40
0
 40
0
 40
1
 40
1
 40
1
 40
1
 10
13.209256
 20
64.405162
 30
0.0
 10
13.209256
 20
64.299904
 30
0.0
 10
13.167442
 20
64.198958
 30
0.0
 10
13.093014
 20
64.124529
 30
0.0
  0
SPLINE
  5
1c9
100
AcDbEntity
  8
Layer_1
 62
7
100
AcDbSpline
 70
8
 71
3
 72
8
 73
4
 74
0
 40
0
 40
0
 40
0
 40
0
 40
1
 40
1
 40
1
 40
1
 10
13.093014
 20
64.124529
 30
0.0
 10
13.018585
 20
64.050101
 30
0.0
 10
12.917639
 20
64.008287
 30
0.0
 10
12.812381
 20
64.008287
 30
0.0
  0
SPLINE
  5
1ca
100
AcDbEntity
  8
Layer_1
 62
7
100
AcDbSpline
 70
8
 71
3
 72
8
 73
4
 74
0
 40
0
 40
0
 40
0
 40
0
 40
1
 40
1
 40
1
 40
1
 10
12.812381
 20
64.008287
 30
0.0
 10
12.707123
 20
64.008287
 30
0.0
 10
12.606176
 20
64.050101
 30
0.0
 10
12.531748
 20
64.124529
 30
0.0
  0
SPLINE
  5
1cb
100
AcDbEntity
  8
Layer_1
 62
7
100
AcDbSpline
 70
8
 71
3
 72
8
 73
4
 74
0
 40
0
 40
0
 40
0
 40
0
 40
1
 40
1
 40
1
 40
1
 10
12.531748
 20
64.124529
 30
0.0
 10
12.457319
 20
64.198958
 30
0.0
 10
12.415506
 20
64.299904
 30
0.0
 10
12.415506
 20
64.405162
 30
0.0
  0
SPLINE
  5
1cc
100
AcDbEntity
  8
Layer_1
 62
7
100
AcDbSpline
 70
8
 71
3
 72
8
 73
4
 74
0
 40
0
 40
0
 40
0
 40
0
 40
1
 40
1
 40
1
 40
1
 10
12.415506
 20
64.405162
 30
0.0
 10
12.415506
 20
64.510420
 30
0.0
 10
12.457319
 20
64.611367
 30
0.0
 10
12.531748
 20
64.685795
 30
0.0
  0
SPLINE
  5
1cd
100
AcDbEntity
  8
Layer_1
 62
7
100
AcDbSpline
 70
8
 71
3
 72
8
 73
4
 74
0
 40
0
 40
0
 40
0
 40
0
 40
1
 40
1
 40
1
 40
1
 10
12.531748
 20
64.685795
 30
0.0
 10
12.606176
 20
64.760224
 30
0.0
 10
12.707123
 20
64.802037
 30
0.0
 10
12.812381
 20
64.802037
 30
0.0
  0
SPLINE
  5
1ce
100
AcDbEntity
  8
Layer_1
 62
7
100
AcDbSpline
 70
8
 71
3
 72
8
 73
4
 74
0
 40
0
 40
0
 40
0
 40
0
 40
1
 40
1
 40
1
 40
1
 10
12.812381
 20
64.802037
 30
0.0
 10
12.917639
 20
64.802037
 30
0.0
 10
13.018585
 20
64.760224
 30
0.0
 10
13.093014
 20
64.685795
 30
0.0
  0
SPLINE
  5
1cf
100
AcDbEntity
  8
Layer_1
 62
7
100
AcDbSpline
 70
8
 71
3
 72
8
 73
4
 74
0
 40
0
 40
0
 40
0
 40
0
 40
1
 40
1
 40
1
 40
1
 10
13.093014
 20
64.685795
 30
0.0
 10
13.167442
 20
64.611367
 30
0.0
 10
13.209256
 20
64.510420
 30
0.0
 10
13.209256
 20
64.405162
 30
0.0
  0
LWPOLYLINE
  5
1d0
100
AcDbEntity
  8
Layer_1
 62
7
100
AcDbPolyline
 90
1
 70
1
 10
19.624390
 20
64.405162
 30
0.0
  0
SPLINE
  5
1d1
100
AcDbEntity
  8
Layer_1
 62
7
100
AcDbSpline
 70
8
 71
3
 72
8
 73
4
 74
0
 40
0
 40
0
 40
0
 40
0
 40
1
 40
1
 40
1
 40
1
 10
6.794123
 20
61.572703
 30
0.0
 10
6.794123
 20
61.467446
 30
0.0
 10
6.752309
 20
61.366499
 30
0.0
 10
6.677881
 20
61.292070
 30
0.0
  0
SPLINE
  5
1d2
100
AcDbEntity
  8
Layer_1
 62
7
100
AcDbSpline
 70
8
 71
3
 72
8
 73
4
 74
0
 40
0
 40
0
 40
0
 40
0
 40
1
 40
1
 40
1
 40
1
 10
6.677881
 20
61.292070
 30
0.0
 10
6.603452
 20
61.217642
 30
0.0
 10
6.502505
 20
61.175828
 30
0.0
 10
6.397248
 20
61.175828
 30
0.0
  0
SPLINE
  5
1d3
100
AcDbEntity
  8
Layer_1
 62
7
100
AcDbSpline
 70
8
 71
3
 72
8
 73
4
 74
0
 40
0
 40
0
 40
0
 40
0
 40
1
 40
1
 40
1
 40
1
 10
6.397248
 20
61.175828
 30
0.0
 10
6.178060
 20
61.175828
 30
0.0
 10
6.000373
 20
61.353515
 30
0.0
 10
6.000373
 20
61.572703
 30
0.0
  0
SPLINE
  5
1d4
100
AcDbEntity
  8
Layer_1
 62
7
100
AcDbSpline
 70
8
 71
3
 72
8
 73
4
 74
0
 40
0
 40
0
 40
0
 40
0
 40
1
 40
1
 40
1
 40
1
 10
6.000373
 20
61.572703
 30
0.0
 10
6.000373
 20
61.677961
 30
0.0
 10
6.042186
 20
61.778908
 30
0.0
 10
6.116615
 20
61.853336
 30
0.0
  0
SPLINE
  5
1d5
100
AcDbEntity
  8
Layer_1
 62
7
100
AcDbSpline
 70
8
 71
3
 72
8
 73
4
 74
0
 40
0
 40
0
 40
0
 40
0
 40
1
 40
1
 40
1
 40
1
 10
6.116615
 20
61.853336
 30
0.0
 10
6.191043
 20
61.927765
 30
0.0
 10
6.291990
 20
61.969578
 30
0.0
 10
6.397248
 20
61.969578
 30
0.0
  0
SPLINE
  5
1d6
100
AcDbEntity
  8
Layer_1
 62
7
100
AcDbSpline
 70
8
 71
3
 72
8
 73
4
 74
0
 40
0
 40
0
 40
0
 40
0
 40
1
 40
1
 40
1
 40
1
 10
6.397248
 20
61.969578
 30
0.0
 10
6.502505
 20
61.969578
 30
0.0
 10
6.603452
 20
61.927765
 30
0.0
 10
6.677881
 20
61.853336
 30
0.0
  0
SPLINE
  5
1d7
100
AcDbEntity
  8
Layer_1
 62
7
100
AcDbSpline
 70
8
 71
3
 72
8
 73
4
 74
0
 40
0
 40
0
 40
0
 40
0
 40
1
 40
1
 40
1
 40
1
 10
6.677881
 20
61.853336
 30
0.0
 10
6.752309
 20
61.778908
 30
0.0
 10
6.794123
 20
61.677961
 30
0.0
 10
6.794123
 20
61.572703
 30
0.0
  0
LWPOLYLINE
  5
1d8
100
AcDbEntity
  8
Layer_1
 62
7
100
AcDbPolyline
 90
1
 70
1
 10
13.209256
 20
64.405162
 30
0.0
  0
SPLINE
  5
1d9
100
AcDbEntity
  8
Layer_1
 62
7
100
AcDbSpline
 70
8
 71
3
 72
8
 73
4
 74
0
 40
0
 40
0
 40
0
 40
0
 40
1
 40
1
 40
1
 40
1
 10
10.001688
 20
61.572703
 30
0.0
 10
10.001688
 20
61.467446
 30
0.0
 10
9.959874
 20
61.366499
 30
0.0
 10
9.885446
 20
61.292070
 30
0.0
  0
SPLINE
  5
1da
100
AcDbEntity
  8
Layer_1
 62
7
100
AcDbSpline
 70
8
 71
3
 72
8
 73
4
 74
0
 40
0
 40
0
 40
0
 40
0
 40
1
 40
1
 40
1
 40
1
 10
9.885446
 20
61.292070
 30
0.0
 10
9.811017
 20
61.217642
 30
0.0
 10
9.710071
 20
61.175828
 30
0.0
 10
9.604813
 20
61.175828
 30
0.0
  0
SPLINE
  5
1db
100
AcDbEntity
  8
Layer_1
 62
7
100
AcDbSpline
 70
8
 71
3
 72
8
 73
4
 74
0
 40
0
 40
0
 40
0
 40
0
 40
1
 40
1
 40
1
 40
1
 10
9.604813
 20
61.175828
 30
0.0
 10
9.499555
 20
61.175828
 30
0.0
 10
9.398608
 20
61.217642
 30
0.0
 10
9.324180
 20
61.292070
 30
0.0
  0
SPLINE
  5
1dc
100
AcDbEntity
  8
Layer_1
 62
7
100
AcDbSpline
 70
8
 71
3
 72
8
 73
4
 74
0
 40
0
 40
0
 40
0
 40
0
 40
1
 40
1
 40
1
 40
1
 10
9.324180
 20
61.292070
 30
0.0
 10
9.249751
 20
61.366499
 30
0.0
 10
9.207938
 20
61.467446
 30
0.0
 10
9.207938
 20
61.572703
 30
0.0
  0
SPLINE
  5
1dd
100
AcDbEntity
  8
Layer_1
 62
7
100
AcDbSpline
 70
8
 71
3
 72
8
 73
4
 74
0
 40
0
 40
0
 40
0
 40
0
 40
1
 40
1
 40
1
 40
1
 10
9.207938
 20
61.572703
 30
0.0
 10
9.207938
 20
61.677961
 30
0.0
 10
9.249751
 20
61.778908
 30
0.0
 10
9.324180
 20
61.853336
 30
0.0
  0
SPLINE
  5
1de
100
AcDbEntity
  8
Layer_1
 62
7
100
AcDbSpline
 70
8
 71
3
 72
8
 73
4
 74
0
 40
0
 40
0
 40
0
 40
0
 40
1
 40
1
 40
1
 40
1
 10
9.324180
 20
61.853336
 30
0.0
 10
9.398608
 20
61.927765
 30
0.0
 10
9.499555
 20
61.969578
 30
0.0
 10
9.604813
 20
61.969578
 30
0.0
  0
SPLINE
  5
1df
100
AcDbEntity
  8
Layer_1
 62
7
100
AcDbSpline
 70
8
 71
3
 72
8
 73
4
 74
0
 40
0
 40
0
 40
0
 40
0
 40
1
 40
1
 40
1
 40
1
 10
9.604813
 20
61.969578
 30
0.0
 10
9.710071
 20
61.969578
 30
0.0
 10
9.811017
 20
61.927765
 30
0.0
 10
9.885446
 20
61.853336
 30
0.0
  0
SPLINE
  5
1e0
100
AcDbEntity
  8
Layer_1
 62
7
100
AcDbSpline
 70
8
 71
3
 72
8
 73
4
 74
0
 40
0
 40
0
 40
0
 40
0
 40
1
 40
1
 40
1
 40
1
 10
9.885446
 20
61.853336
 30
0.0
 10
9.959874
 20
61.778908
 30
0.0
 10
10.001688
 20
61.677961
 30
0.0
 10
10.001688
 20
61.572703
 30
0.0
  0
LWPOLYLINE
  5
1e1
100
AcDbEntity
  8
Layer_1
 62
7
100
AcDbPolyline
 90
1
 70
1
 10
6.794123
 20
61.572703
 30
0.0
  0
SPLINE
  5
1e2
100
AcDbEntity
  8
Layer_1
 62
7
100
AcDbSpline
 70
8
 71
3
 72
8
 73
4
 74
0
 40
0
 40
0
 40
0
 40
0
 40
1
 40
1
 40
1
 40
1
 10
16.416822
 20
61.572703
 30
0.0
 10
16.416822
 20
61.467446
 30
0.0
 10
16.375009
 20
61.366499
 30
0.0
 10
16.300580
 20
61.292070
 30
0.0
  0
SPLINE
  5
1e3
100
AcDbEntity
  8
Layer_1
 62
7
100
AcDbSpline
 70
8
 71
3
 72
8
 73
4
 74
0
 40
0
 40
0
 40
0
 40
0
 40
1
 40
1
 40
1
 40
1
 10
16.300580
 20
61.292070
 30
0.0
 10
16.226152
 20
61.217642
 30
0.0
 10
16.125205
 20
61.175828
 30
0.0
 10
16.019947
 20
61.175828
 30
0.0
  0
SPLINE
  5
1e4
100
AcDbEntity
  8
Layer_1
 62
7
100
AcDbSpline
 70
8
 71
3
 72
8
 73
4
 74
0
 40
0
 40
0
 40
0
 40
0
 40
1
 40
1
 40
1
 40
1
 10
16.019947
 20
61.175828
 30
0.0
 10
15.914689
 20
61.175828
 30
0.0
 10
15.813743
 20
61.217642
 30
0.0
 10
15.739314
 20
61.292070
 30
0.0
  0
SPLINE
  5
1e5
100
AcDbEntity
  8
Layer_1
 62
7
100
AcDbSpline
 70
8
 71
3
 72
8
 73
4
 74
0
 40
0
 40
0
 40
0
 40
0
 40
1
 40
1
 40
1
 40
1
 10
15.739314
 20
61.292070
 30
0.0
 10
15.664886
 20
61.366499
 30
0.0
 10
15.623072
 20
61.467446
 30
0.0
 10
15.623072
 20
61.572703
 30
0.0
  0
SPLINE
  5
1e6
100
AcDbEntity
  8
Layer_1
 62
7
100
AcDbSpline
 70
8
 71
3
 72
8
 73
4
 74
0
 40
0
 40
0
 40
0
 40
0
 40
1
 40
1
 40
1
 40
1
 10
15.623072
 20
61.572703
 30
0.0
 10
15.623072
 20
61.677961
 30
0.0
 10
15.664886
 20
61.778908
 30
0.0
 10
15.739314
 20
61.853336
 30
0.0
  0
SPLINE
  5
1e7
100
AcDbEntity
  8
Layer_1
 62
7
100
AcDbSpline
 70
8
 71
3
 72
8
 73
4
 74
0
 40
0
 40
0
 40
0
 40
0
 40
1
 40
1
 40
1
 40
1
 10
15.739314
 20
61.853336
 30
0.0
 10
15.813743
 20
61.927765
 30
0.0
 10
15.914689
 20
61.969578
 30
0.0
 10
16.019947
 20
61.969578
 30
0.0
  0
SPLINE
  5
1e8
100
AcDbEntity
  8
Layer_1
 62
7
100
AcDbSpline
 70
8
 71
3
 72
8
 73
4
 74
0
 40
0
 40
0
 40
0
 40
0
 40
1
 40
1
 40
1
 40
1
 10
16.019947
 20
61.969578
 30
0.0
 10
16.125205
 20
61.969578
 30
0.0
 10
16.226152
 20
61.927765
 30
0.0
 10
16.300580
 20
61.853336
 30
0.0
  0
SPLINE
  5
1e9
100
AcDbEntity
  8
Layer_1
 62
7
100
AcDbSpline
 70
8
 71
3
 72
8
 73
4
 74
0
 40
0
 40
0
 40
0
 40
0
 40
1
 40
1
 40
1
 40
1
 10
16.300580
 20
61.853336
 30
0.0
 10
16.375009
 20
61.778908
 30
0.0
 10
16.416822
 20
61.677961
 30
0.0
 10
16.416822
 20
61.572703
 30
0.0
  0
LWPOLYLINE
  5
1ea
100
AcDbEntity
  8
Layer_1
 62
7
100
AcDbPolyline
 90
1
 70
1
 10
10.001688
 20
61.572703
 30
0.0
  0
SPLINE
  5
1eb
100
AcDbEntity
  8
Layer_1
 62
7
100
AcDbSpline
 70
8
 71
3
 72
8
 73
4
 74
0
 40
0
 40
0
 40
0
 40
0
 40
1
 40
1
 40
1
 40
1
 10
29.247089
 20
61.572703
 30
0.0
 10
29.247089
 20
61.467446
 30
0.0
 10
29.205276
 20
61.366499
 30
0.0
 10
29.130847
 20
61.292070
 30
0.0
  0
SPLINE
  5
1ec
100
AcDbEntity
  8
Layer_1
 62
7
100
AcDbSpline
 70
8
 71
3
 72
8
 73
4
 74
0
 40
0
 40
0
 40
0
 40
0
 40
1
 40
1
 40
1
 40
1
 10
29.130847
 20
61.292070
 30
0.0
 10
29.056419
 20
61.217642
 30
0.0
 10
28.955472
 20
61.175828
 30
0.0
 10
28.850214
 20
61.175828
 30
0.0
  0
SPLINE
  5
1ed
100
AcDbEntity
  8
Layer_1
 62
7
100
AcDbSpline
 70
8
 71
3
 72
8
 73
4
 74
0
 40
0
 40
0
 40
0
 40
0
 40
1
 40
1
 40
1
 40
1
 10
28.850214
 20
61.175828
 30
0.0
 10
28.744956
 20
61.175828
 30
0.0
 10
28.644010
 20
61.217642
 30
0.0
 10
28.569581
 20
61.292070
 30
0.0
  0
SPLINE
  5
1ee
100
AcDbEntity
  8
Layer_1
 62
7
100
AcDbSpline
 70
8
 71
3
 72
8
 73
4
 74
0
 40
0
 40
0
 40
0
 40
0
 40
1
 40
1
 40
1
 40
1
 10
28.569581
 20
61.292070
 30
0.0
 10
28.495153
 20
61.366499
 30
0.0
 10
28.453339
 20
61.467446
 30
0.0
 10
28.453339
 20
61.572703
 30
0.0
  0
SPLINE
  5
1ef
100
AcDbEntity
  8
Layer_1
 62
7
100
AcDbSpline
 70
8
 71
3
 72
8
 73
4
 74
0
 40
0
 40
0
 40
0
 40
0
 40
1
 40
1
 40
1
 40
1
 10
28.453339
 20
61.572703
 30
0.0
 10
28.453339
 20
61.677961
 30
0.0
 10
28.495153
 20
61.778908
 30
0.0
 10
28.569581
 20
61.853336
 30
0.0
  0
SPLINE
  5
1f0
100
AcDbEntity
  8
Layer_1
 62
7
100
AcDbSpline
 70
8
 71
3
 72
8
 73
4
 74
0
 40
0
 40
0
 40
0
 40
0
 40
1
 40
1
 40
1
 40
1
 10
28.569581
 20
61.853336
 30
0.0
 10
28.644010
 20
61.927765
 30
0.0
 10
28.744956
 20
61.969578
 30
0.0
 10
28.850214
 20
61.969578
 30
0.0
  0
SPLINE
  5
1f1
100
AcDbEntity
  8
Layer_1
 62
7
100
AcDbSpline
 70
8
 71
3
 72
8
 73
4
 74
0
 40
0
 40
0
 40
0
 40
0
 40
1
 40
1
 40
1
 40
1
 10
28.850214
 20
61.969578
 30
0.0
 10
28.955472
 20
61.969578
 30
0.0
 10
29.056419
 20
61.927765
 30
0.0
 10
29.130847
 20
61.853336
 30
0.0
  0
SPLINE
  5
1f2
100
AcDbEntity
  8
Layer_1
 62
7
100
AcDbSpline
 70
8
 71
3
 72
8
 73
4
 74
0
 40
0
 40
0
 40
0
 40
0
 40
1
 40
1
 40
1
 40
1
 10
29.130847
 20
61.853336
 30
0.0
 10
29.205276
 20
61.778908
 30
0.0
 10
29.247089
 20
61.677961
 30
0.0
 10
29.247089
 20
61.572703
 30
0.0
  0
LWPOLYLINE
  5
1f3
100
AcDbEntity
  8
Layer_1
 62
7
100
AcDbPolyline
 90
1
 70
1
 10
16.416822
 20
61.572703
 30
0.0
  0
SPLINE
  5
1f4
100
AcDbEntity
  8
Layer_1
 62
7
100
AcDbSpline
 70
8
 71
3
 72
8
 73
4
 74
0
 40
0
 40
0
 40
0
 40
0
 40
1
 40
1
 40
1
 40
1
 10
26.039524
 20
61.572703
 30
0.0
 10
26.039524
 20
61.467446
 30
0.0
 10
25.997711
 20
61.366499
 30
0.0
 10
25.923282
 20
61.292070
 30
0.0
  0
SPLINE
  5
1f5
100
AcDbEntity
  8
Layer_1
 62
7
100
AcDbSpline
 70
8
 71
3
 72
8
 73
4
 74
0
 40
0
 40
0
 40
0
 40
0
 40
1
 40
1
 40
1
 40
1
 10
25.923282
 20
61.292070
 30
0.0
 10
25.848854
 20
61.217642
 30
0.0
 10
25.747907
 20
61.175828
 30
0.0
 10
25.642649
 20
61.175828
 30
0.0
  0
SPLINE
  5
1f6
100
AcDbEntity
  8
Layer_1
 62
7
100
AcDbSpline
 70
8
 71
3
 72
8
 73
4
 74
0
 40
0
 40
0
 40
0
 40
0
 40
1
 40
1
 40
1
 40
1
 10
25.642649
 20
61.175828
 30
0.0
 10
25.537391
 20
61.175828
 30
0.0
 10
25.436445
 20
61.217642
 30
0.0
 10
25.362016
 20
61.292070
 30
0.0
  0
SPLINE
  5
1f7
100
AcDbEntity
  8
Layer_1
 62
7
100
AcDbSpline
 70
8
 71
3
 72
8
 73
4
 74
0
 40
0
 40
0
 40
0
 40
0
 40
1
 40
1
 40
1
 40
1
 10
25.362016
 20
61.292070
 30
0.0
 10
25.287588
 20
61.366499
 30
0.0
 10
25.245774
 20
61.467446
 30
0.0
 10
25.245774
 20
61.572703
 30
0.0
  0
SPLINE
  5
1f8
100
AcDbEntity
  8
Layer_1
 62
7
100
AcDbSpline
 70
8
 71
3
 72
8
 73
4
 74
0
 40
0
 40
0
 40
0
 40
0
 40
1
 40
1
 40
1
 40
1
 10
25.245774
 20
61.572703
 30
0.0
 10
25.245774
 20
61.677961
 30
0.0
 10
25.287588
 20
61.778908
 30
0.0
 10
25.362016
 20
61.853336
 30
0.0
  0
SPLINE
  5
1f9
100
AcDbEntity
  8
Layer_1
 62
7
100
AcDbSpline
 70
8
 71
3
 72
8
 73
4
 74
0
 40
0
 40
0
 40
0
 40
0
 40
1
 40
1
 40
1
 40
1
 10
25.362016
 20
61.853336
 30
0.0
 10
25.436445
 20
61.927765
 30
0.0
 10
25.537391
 20
61.969578
 30
0.0
 10
25.642649
 20
61.969578
 30
0.0
  0
SPLINE
  5
1fa
100
AcDbEntity
  8
Layer_1
 62
7
100
AcDbSpline
 70
8
 71
3
 72
8
 73
4
 74
0
 40
0
 40
0
 40
0
 40
0
 40
1
 40
1
 40
1
 40
1
 10
25.642649
 20
61.969578
 30
0.0
 10
25.747907
 20
61.969578
 30
0.0
 10
25.848854
 20
61.927765
 30
0.0
 10
25.923282
 20
61.853336
 30
0.0
  0
SPLINE
  5
1fb
100
AcDbEntity
  8
Layer_1
 62
7
100
AcDbSpline
 70
8
 71
3
 72
8
 73
4
 74
0
 40
0
 40
0
 40
0
 40
0
 40
1
 40
1
 40
1
 40
1
 10
25.923282
 20
61.853336
 30
0.0
 10
25.997711
 20
61.778908
 30
0.0
 10
26.039524
 20
61.677961
 30
0.0
 10
26.039524
 20
61.572703
 30
0.0
  0
LWPOLYLINE
  5
1fc
100
AcDbEntity
  8
Layer_1
 62
7
100
AcDbPolyline
 90
1
 70
1
 10
29.247089
 20
61.572703
 30
0.0
  0
SPLINE
  5
1fd
100
AcDbEntity
  8
Layer_1
 62
7
100
AcDbSpline
 70
8
 71
3
 72
8
 73
4
 74
0
 40
0
 40
0
 40
0
 40
0
 40
1
 40
1
 40
1
 40
1
 10
32.454659
 20
61.572703
 30
0.0
 10
32.454659
 20
61.467446
 30
0.0
 10
32.412846
 20
61.366499
 30
0.0
 10
32.338418
 20
61.292070
 30
0.0
  0
SPLINE
  5
1fe
100
AcDbEntity
  8
Layer_1
 62
7
100
AcDbSpline
 70
8
 71
3
 72
8
 73
4
 74
0
 40
0
 40
0
 40
0
 40
0
 40
1
 40
1
 40
1
 40
1
 10
32.338418
 20
61.292070
 30
0.0
 10
32.263989
 20
61.217642
 30
0.0
 10
32.163042
 20
61.175828
 30
0.0
 10
32.057785
 20
61.175828
 30
0.0
  0
SPLINE
  5
1ff
100
AcDbEntity
  8
Layer_1
 62
7
100
AcDbSpline
 70
8
 71
3
 72
8
 73
4
 74
0
 40
0
 40
0
 40
0
 40
0
 40
1
 40
1
 40
1
 40
1
 10
32.057785
 20
61.175828
 30
0.0
 10
31.952527
 20
61.175828
 30
0.0
 10
31.851580
 20
61.217642
 30
0.0
 10
31.777151
 20
61.292070
 30
0.0
  0
SPLINE
  5
200
100
AcDbEntity
  8
Layer_1
 62
7
100
AcDbSpline
 70
8
 71
3
 72
8
 73
4
 74
0
 40
0
 40
0
 40
0
 40
0
 40
1
 40
1
 40
1
 40
1
 10
31.777151
 20
61.292070
 30
0.0
 10
31.702723
 20
61.366499
 30
0.0
 10
31.660909
 20
61.467446
 30
0.0
 10
31.660909
 20
61.572703
 30
0.0
  0
SPLINE
  5
201
100
AcDbEntity
  8
Layer_1
 62
7
100
AcDbSpline
 70
8
 71
3
 72
8
 73
4
 74
0
 40
0
 40
0
 40
0
 40
0
 40
1
 40
1
 40
1
 40
1
 10
31.660909
 20
61.572703
 30
0.0
 10
31.660909
 20
61.677961
 30
0.0
 10
31.702723
 20
61.778908
 30
0.0
 10
31.777151
 20
61.853336
 30
0.0
  0
SPLINE
  5
202
100
AcDbEntity
  8
Layer_1
 62
7
100
AcDbSpline
 70
8
 71
3
 72
8
 73
4
 74
0
 40
0
 40
0
 40
0
 40
0
 40
1
 40
1
 40
1
 40
1
 10
31.777151
 20
61.853336
 30
0.0
 10
31.851580
 20
61.927765
 30
0.0
 10
31.952527
 20
61.969578
 30
0.0
 10
32.057785
 20
61.969578
 30
0.0
  0
SPLINE
  5
203
100
AcDbEntity
  8
Layer_1
 62
7
100
AcDbSpline
 70
8
 71
3
 72
8
 73
4
 74
0
 40
0
 40
0
 40
0
 40
0
 40
1
 40
1
 40
1
 40
1
 10
32.057785
 20
61.969578
 30
0.0
 10
32.163042
 20
61.969578
 30
0.0
 10
32.263989
 20
61.927765
 30
0.0
 10
32.338418
 20
61.853336
 30
0.0
  0
SPLINE
  5
204
100
AcDbEntity
  8
Layer_1
 62
7
100
AcDbSpline
 70
8
 71
3
 72
8
 73
4
 74
0
 40
0
 40
0
 40
0
 40
0
 40
1
 40
1
 40
1
 40
1
 10
32.338418
 20
61.853336
 30
0.0
 10
32.412846
 20
61.778908
 30
0.0
 10
32.454659
 20
61.677961
 30
0.0
 10
32.454659
 20
61.572703
 30
0.0
  0
LWPOLYLINE
  5
205
100
AcDbEntity
  8
Layer_1
 62
7
100
AcDbPolyline
 90
1
 70
1
 10
26.039524
 20
61.572703
 30
0.0
  0
SPLINE
  5
206
100
AcDbEntity
  8
Layer_1
 62
7
100
AcDbSpline
 70
8
 71
3
 72
8
 73
4
 74
0
 40
0
 40
0
 40
0
 40
0
 40
1
 40
1
 40
1
 40
1
 10
35.662222
 20
61.572703
 30
0.0
 10
35.662222
 20
61.467446
 30
0.0
 10
35.620408
 20
61.366499
 30
0.0
 10
35.545980
 20
61.292070
 30
0.0
  0
SPLINE
  5
207
100
AcDbEntity
  8
Layer_1
 62
7
100
AcDbSpline
 70
8
 71
3
 72
8
 73
4
 74
0
 40
0
 40
0
 40
0
 40
0
 40
1
 40
1
 40
1
 40
1
 10
35.545980
 20
61.292070
 30
0.0
 10
35.471551
 20
61.217642
 30
0.0
 10
35.370605
 20
61.175828
 30
0.0
 10
35.265347
 20
61.175828
 30
0.0
  0
SPLINE
  5
208
100
AcDbEntity
  8
Layer_1
 62
7
100
AcDbSpline
 70
8
 71
3
 72
8
 73
4
 74
0
 40
0
 40
0
 40
0
 40
0
 40
1
 40
1
 40
1
 40
1
 10
35.265347
 20
61.175828
 30
0.0
 10
35.046159
 20
61.175828
 30
0.0
 10
34.868472
 20
61.353515
 30
0.0
 10
34.868472
 20
61.572703
 30
0.0
  0
SPLINE
  5
209
100
AcDbEntity
  8
Layer_1
 62
7
100
AcDbSpline
 70
8
 71
3
 72
8
 73
4
 74
0
 40
0
 40
0
 40
0
 40
0
 40
1
 40
1
 40
1
 40
1
 10
34.868472
 20
61.572703
 30
0.0
 10
34.868472
 20
61.677961
 30
0.0
 10
34.910285
 20
61.778908
 30
0.0
 10
34.984714
 20
61.853336
 30
0.0
  0
SPLINE
  5
20a
100
AcDbEntity
  8
Layer_1
 62
7
100
AcDbSpline
 70
8
 71
3
 72
8
 73
4
 74
0
 40
0
 40
0
 40
0
 40
0
 40
1
 40
1
 40
1
 40
1
 10
34.984714
 20
61.853336
 30
0.0
 10
35.059142
 20
61.927765
 30
0.0
 10
35.160089
 20
61.969578
 30
0.0
 10
35.265347
 20
61.969578
 30
0.0
  0
SPLINE
  5
20b
100
AcDbEntity
  8
Layer_1
 62
7
100
AcDbSpline
 70
8
 71
3
 72
8
 73
4
 74
0
 40
0
 40
0
 40
0
 40
0
 40
1
 40
1
 40
1
 40
1
 10
35.265347
 20
61.969578
 30
0.0
 10
35.370605
 20
61.969578
 30
0.0
 10
35.471551
 20
61.927765
 30
0.0
 10
35.545980
 20
61.853336
 30
0.0
  0
SPLINE
  5
20c
100
AcDbEntity
  8
Layer_1
 62
7
100
AcDbSpline
 70
8
 71
3
 72
8
 73
4
 74
0
 40
0
 40
0
 40
0
 40
0
 40
1
 40
1
 40
1
 40
1
 10
35.545980
 20
61.853336
 30
0.0
 10
35.620408
 20
61.778908
 30
0.0
 10
35.662222
 20
61.677961
 30
0.0
 10
35.662222
 20
61.572703
 30
0.0
  0
LWPOLYLINE
  5
20d
100
AcDbEntity
  8
Layer_1
 62
7
100
AcDbPolyline
 90
1
 70
1
 10
32.454659
 20
61.572703
 30
0.0
  0
SPLINE
  5
20e
100
AcDbEntity
  8
Layer_1
 62
7
100
AcDbSpline
 70
8
 71
3
 72
8
 73
4
 74
0
 40
0
 40
0
 40
0
 40
0
 40
1
 40
1
 40
1
 40
1
 10
38.869792
 20
61.572703
 30
0.0
 10
38.869792
 20
61.467446
 30
0.0
 10
38.827978
 20
61.366499
 30
0.0
 10
38.753550
 20
61.292070
 30
0.0
  0
SPLINE
  5
20f
100
AcDbEntity
  8
Layer_1
 62
7
100
AcDbSpline
 70
8
 71
3
 72
8
 73
4
 74
0
 40
0
 40
0
 40
0
 40
0
 40
1
 40
1
 40
1
 40
1
 10
38.753550
 20
61.292070
 30
0.0
 10
38.679121
 20
61.217642
 30
0.0
 10
38.578175
 20
61.175828
 30
0.0
 10
38.472917
 20
61.175828
 30
0.0
  0
SPLINE
  5
210
100
AcDbEntity
  8
Layer_1
 62
7
100
AcDbSpline
 70
8
 71
3
 72
8
 73
4
 74
0
 40
0
 40
0
 40
0
 40
0
 40
1
 40
1
 40
1
 40
1
 10
38.472917
 20
61.175828
 30
0.0
 10
38.367659
 20
61.175828
 30
0.0
 10
38.266712
 20
61.217642
 30
0.0
 10
38.192284
 20
61.292070
 30
0.0
  0
SPLINE
  5
211
100
AcDbEntity
  8
Layer_1
 62
7
100
AcDbSpline
 70
8
 71
3
 72
8
 73
4
 74
0
 40
0
 40
0
 40
0
 40
0
 40
1
 40
1
 40
1
 40
1
 10
38.192284
 20
61.292070
 30
0.0
 10
38.117855
 20
61.366499
 30
0.0
 10
38.076042
 20
61.467446
 30
0.0
 10
38.076042
 20
61.572703
 30
0.0
  0
SPLINE
  5
212
100
AcDbEntity
  8
Layer_1
 62
7
100
AcDbSpline
 70
8
 71
3
 72
8
 73
4
 74
0
 40
0
 40
0
 40
0
 40
0
 40
1
 40
1
 40
1
 40
1
 10
38.076042
 20
61.572703
 30
0.0
 10
38.076042
 20
61.677961
 30
0.0
 10
38.117855
 20
61.778908
 30
0.0
 10
38.192284
 20
61.853336
 30
0.0
  0
SPLINE
  5
213
100
AcDbEntity
  8
Layer_1
 62
7
100
AcDbSpline
 70
8
 71
3
 72
8
 73
4
 74
0
 40
0
 40
0
 40
0
 40
0
 40
1
 40
1
 40
1
 40
1
 10
38.192284
 20
61.853336
 30
0.0
 10
38.266712
 20
61.927765
 30
0.0
 10
38.367659
 20
61.969578
 30
0.0
 10
38.472917
 20
61.969578
 30
0.0
  0
SPLINE
  5
214
100
AcDbEntity
  8
Layer_1
 62
7
100
AcDbSpline
 70
8
 71
3
 72
8
 73
4
 74
0
 40
0
 40
0
 40
0
 40
0
 40
1
 40
1
 40
1
 40
1
 10
38.472917
 20
61.969578
 30
0.0
 10
38.578175
 20
61.969578
 30
0.0
 10
38.679121
 20
61.927765
 30
0.0
 10
38.753550
 20
61.853336
 30
0.0
  0
SPLINE
  5
215
100
AcDbEntity
  8
Layer_1
 62
7
100
AcDbSpline
 70
8
 71
3
 72
8
 73
4
 74
0
 40
0
 40
0
 40
0
 40
0
 40
1
 40
1
 40
1
 40
1
 10
38.753550
 20
61.853336
 30
0.0
 10
38.827978
 20
61.778908
 30
0.0
 10
38.869792
 20
61.677961
 30
0.0
 10
38.869792
 20
61.572703
 30
0.0
  0
LWPOLYLINE
  5
216
100
AcDbEntity
  8
Layer_1
 62
7
100
AcDbPolyline
 90
1
 70
1
 10
35.662222
 20
61.572703
 30
0.0
  0
SPLINE
  5
217
100
AcDbEntity
  8
Layer_1
 62
7
100
AcDbSpline
 70
8
 71
3
 72
8
 73
4
 74
0
 40
0
 40
0
 40
0
 40
0
 40
1
 40
1
 40
1
 40
1
 10
42.077362
 20
61.572703
 30
0.0
 10
42.077362
 20
61.467446
 30
0.0
 10
42.035549
 20
61.366499
 30
0.0
 10
41.961120
 20
61.292070
 30
0.0
  0
SPLINE
  5
218
100
AcDbEntity
  8
Layer_1
 62
7
100
AcDbSpline
 70
8
 71
3
 72
8
 73
4
 74
0
 40
0
 40
0
 40
0
 40
0
 40
1
 40
1
 40
1
 40
1
 10
41.961120
 20
61.292070
 30
0.0
 10
41.886692
 20
61.217642
 30
0.0
 10
41.785745
 20
61.175828
 30
0.0
 10
41.680487
 20
61.175828
 30
0.0
  0
SPLINE
  5
219
100
AcDbEntity
  8
Layer_1
 62
7
100
AcDbSpline
 70
8
 71
3
 72
8
 73
4
 74
0
 40
0
 40
0
 40
0
 40
0
 40
1
 40
1
 40
1
 40
1
 10
41.680487
 20
61.175828
 30
0.0
 10
41.461299
 20
61.175828
 30
0.0
 10
41.283612
 20
61.353515
 30
0.0
 10
41.283612
 20
61.572703
 30
0.0
  0
SPLINE
  5
21a
100
AcDbEntity
  8
Layer_1
 62
7
100
AcDbSpline
 70
8
 71
3
 72
8
 73
4
 74
0
 40
0
 40
0
 40
0
 40
0
 40
1
 40
1
 40
1
 40
1
 10
41.283612
 20
61.572703
 30
0.0
 10
41.283612
 20
61.677961
 30
0.0
 10
41.325426
 20
61.778908
 30
0.0
 10
41.399854
 20
61.853336
 30
0.0
  0
SPLINE
  5
21b
100
AcDbEntity
  8
Layer_1
 62
7
100
AcDbSpline
 70
8
 71
3
 72
8
 73
4
 74
0
 40
0
 40
0
 40
0
 40
0
 40
1
 40
1
 40
1
 40
1
 10
41.399854
 20
61.853336
 30
0.0
 10
41.474283
 20
61.927765
 30
0.0
 10
41.575229
 20
61.969578
 30
0.0
 10
41.680487
 20
61.969578
 30
0.0
  0
SPLINE
  5
21c
100
AcDbEntity
  8
Layer_1
 62
7
100
AcDbSpline
 70
8
 71
3
 72
8
 73
4
 74
0
 40
0
 40
0
 40
0
 40
0
 40
1
 40
1
 40
1
 40
1
 10
41.680487
 20
61.969578
 30
0.0
 10
41.785745
 20
61.969578
 30
0.0
 10
41.886692
 20
61.927765
 30
0.0
 10
41.961120
 20
61.853336
 30
0.0
  0
SPLINE
  5
21d
100
AcDbEntity
  8
Layer_1
 62
7
100
AcDbSpline
 70
8
 71
3
 72
8
 73
4
 74
0
 40
0
 40
0
 40
0
 40
0
 40
1
 40
1
 40
1
 40
1
 10
41.961120
 20
61.853336
 30
0.0
 10
42.035549
 20
61.778908
 30
0.0
 10
42.077362
 20
61.677961
 30
0.0
 10
42.077362
 20
61.572703
 30
0.0
  0
LWPOLYLINE
  5
21e
100
AcDbEntity
  8
Layer_1
 62
7
100
AcDbPolyline
 90
1
 70
1
 10
38.869792
 20
61.572703
 30
0.0
  0
SPLINE
  5
21f
100
AcDbEntity
  8
Layer_1
 62
7
100
AcDbSpline
 70
8
 71
3
 72
8
 73
4
 74
0
 40
0
 40
0
 40
0
 40
0
 40
1
 40
1
 40
1
 40
1
 10
45.284922
 20
61.572703
 30
0.0
 10
45.284922
 20
61.467446
 30
0.0
 10
45.243108
 20
61.366499
 30
0.0
 10
45.168680
 20
61.292070
 30
0.0
  0
SPLINE
  5
220
100
AcDbEntity
  8
Layer_1
 62
7
100
AcDbSpline
 70
8
 71
3
 72
8
 73
4
 74
0
 40
0
 40
0
 40
0
 40
0
 40
1
 40
1
 40
1
 40
1
 10
45.168680
 20
61.292070
 30
0.0
 10
45.094251
 20
61.217642
 30
0.0
 10
44.993305
 20
61.175828
 30
0.0
 10
44.888047
 20
61.175828
 30
0.0
  0
SPLINE
  5
221
100
AcDbEntity
  8
Layer_1
 62
7
100
AcDbSpline
 70
8
 71
3
 72
8
 73
4
 74
0
 40
0
 40
0
 40
0
 40
0
 40
1
 40
1
 40
1
 40
1
 10
44.888047
 20
61.175828
 30
0.0
 10
44.668859
 20
61.175828
 30
0.0
 10
44.491172
 20
61.353515
 30
0.0
 10
44.491172
 20
61.572703
 30
0.0
  0
SPLINE
  5
222
100
AcDbEntity
  8
Layer_1
 62
7
100
AcDbSpline
 70
8
 71
3
 72
8
 73
4
 74
0
 40
0
 40
0
 40
0
 40
0
 40
1
 40
1
 40
1
 40
1
 10
44.491172
 20
61.572703
 30
0.0
 10
44.491172
 20
61.677961
 30
0.0
 10
44.532985
 20
61.778908
 30
0.0
 10
44.607414
 20
61.853336
 30
0.0
  0
SPLINE
  5
223
100
AcDbEntity
  8
Layer_1
 62
7
100
AcDbSpline
 70
8
 71
3
 72
8
 73
4
 74
0
 40
0
 40
0
 40
0
 40
0
 40
1
 40
1
 40
1
 40
1
 10
44.607414
 20
61.853336
 30
0.0
 10
44.681842
 20
61.927765
 30
0.0
 10
44.782789
 20
61.969578
 30
0.0
 10
44.888047
 20
61.969578
 30
0.0
  0
SPLINE
  5
224
100
AcDbEntity
  8
Layer_1
 62
7
100
AcDbSpline
 70
8
 71
3
 72
8
 73
4
 74
0
 40
0
 40
0
 40
0
 40
0
 40
1
 40
1
 40
1
 40
1
 10
44.888047
 20
61.969578
 30
0.0
 10
44.993305
 20
61.969578
 30
0.0
 10
45.094251
 20
61.927765
 30
0.0
 10
45.168680
 20
61.853336
 30
0.0
  0
SPLINE
  5
225
100
AcDbEntity
  8
Layer_1
 62
7
100
AcDbSpline
 70
8
 71
3
 72
8
 73
4
 74
0
 40
0
 40
0
 40
0
 40
0
 40
1
 40
1
 40
1
 40
1
 10
45.168680
 20
61.853336
 30
0.0
 10
45.243108
 20
61.778908
 30
0.0
 10
45.284922
 20
61.677961
 30
0.0
 10
45.284922
 20
61.572703
 30
0.0
  0
LWPOLYLINE
  5
226
100
AcDbEntity
  8
Layer_1
 62
7
100
AcDbPolyline
 90
1
 70
1
 10
42.077362
 20
61.572703
 30
0.0
  0
SPLINE
  5
227
100
AcDbEntity
  8
Layer_1
 62
7
100
AcDbSpline
 70
8
 71
3
 72
8
 73
4
 74
0
 40
0
 40
0
 40
0
 40
0
 40
1
 40
1
 40
1
 40
1
 10
48.492495
 20
61.572703
 30
0.0
 10
48.492495
 20
61.467446
 30
0.0
 10
48.450681
 20
61.366499
 30
0.0
 10
48.376253
 20
61.292070
 30
0.0
  0
SPLINE
  5
228
100
AcDbEntity
  8
Layer_1
 62
7
100
AcDbSpline
 70
8
 71
3
 72
8
 73
4
 74
0
 40
0
 40
0
 40
0
 40
0
 40
1
 40
1
 40
1
 40
1
 10
48.376253
 20
61.292070
 30
0.0
 10
48.301824
 20
61.217642
 30
0.0
 10
48.200877
 20
61.175828
 30
0.0
 10
48.095620
 20
61.175828
 30
0.0
  0
SPLINE
  5
229
100
AcDbEntity
  8
Layer_1
 62
7
100
AcDbSpline
 70
8
 71
3
 72
8
 73
4
 74
0
 40
0
 40
0
 40
0
 40
0
 40
1
 40
1
 40
1
 40
1
 10
48.095620
 20
61.175828
 30
0.0
 10
47.990362
 20
61.175828
 30
0.0
 10
47.889415
 20
61.217642
 30
0.0
 10
47.814987
 20
61.292070
 30
0.0
  0
SPLINE
  5
22a
100
AcDbEntity
  8
Layer_1
 62
7
100
AcDbSpline
 70
8
 71
3
 72
8
 73
4
 74
0
 40
0
 40
0
 40
0
 40
0
 40
1
 40
1
 40
1
 40
1
 10
47.814987
 20
61.292070
 30
0.0
 10
47.740558
 20
61.366499
 30
0.0
 10
47.698745
 20
61.467446
 30
0.0
 10
47.698745
 20
61.572703
 30
0.0
  0
SPLINE
  5
22b
100
AcDbEntity
  8
Layer_1
 62
7
100
AcDbSpline
 70
8
 71
3
 72
8
 73
4
 74
0
 40
0
 40
0
 40
0
 40
0
 40
1
 40
1
 40
1
 40
1
 10
47.698745
 20
61.572703
 30
0.0
 10
47.698745
 20
61.677961
 30
0.0
 10
47.740558
 20
61.778908
 30
0.0
 10
47.814987
 20
61.853336
 30
0.0
  0
SPLINE
  5
22c
100
AcDbEntity
  8
Layer_1
 62
7
100
AcDbSpline
 70
8
 71
3
 72
8
 73
4
 74
0
 40
0
 40
0
 40
0
 40
0
 40
1
 40
1
 40
1
 40
1
 10
47.814987
 20
61.853336
 30
0.0
 10
47.889415
 20
61.927765
 30
0.0
 10
47.990362
 20
61.969578
 30
0.0
 10
48.095620
 20
61.969578
 30
0.0
  0
SPLINE
  5
22d
100
AcDbEntity
  8
Layer_1
 62
7
100
AcDbSpline
 70
8
 71
3
 72
8
 73
4
 74
0
 40
0
 40
0
 40
0
 40
0
 40
1
 40
1
 40
1
 40
1
 10
48.095620
 20
61.969578
 30
0.0
 10
48.200877
 20
61.969578
 30
0.0
 10
48.301824
 20
61.927765
 30
0.0
 10
48.376253
 20
61.853336
 30
0.0
  0
SPLINE
  5
22e
100
AcDbEntity
  8
Layer_1
 62
7
100
AcDbSpline
 70
8
 71
3
 72
8
 73
4
 74
0
 40
0
 40
0
 40
0
 40
0
 40
1
 40
1
 40
1
 40
1
 10
48.376253
 20
61.853336
 30
0.0
 10
48.450681
 20
61.778908
 30
0.0
 10
48.492495
 20
61.677961
 30
0.0
 10
48.492495
 20
61.572703
 30
0.0
  0
LWPOLYLINE
  5
22f
100
AcDbEntity
  8
Layer_1
 62
7
100
AcDbPolyline
 90
1
 70
1
 10
45.284922
 20
61.572703
 30
0.0
  0
SPLINE
  5
230
100
AcDbEntity
  8
Layer_1
 62
7
100
AcDbSpline
 70
8
 71
3
 72
8
 73
4
 74
0
 40
0
 40
0
 40
0
 40
0
 40
1
 40
1
 40
1
 40
1
 10
51.700057
 20
61.572703
 30
0.0
 10
51.700057
 20
61.467446
 30
0.0
 10
51.658243
 20
61.366499
 30
0.0
 10
51.583815
 20
61.292070
 30
0.0
  0
SPLINE
  5
231
100
AcDbEntity
  8
Layer_1
 62
7
100
AcDbSpline
 70
8
 71
3
 72
8
 73
4
 74
0
 40
0
 40
0
 40
0
 40
0
 40
1
 40
1
 40
1
 40
1
 10
51.583815
 20
61.292070
 30
0.0
 10
51.509386
 20
61.217642
 30
0.0
 10
51.408440
 20
61.175828
 30
0.0
 10
51.303182
 20
61.175828
 30
0.0
  0
SPLINE
  5
232
100
AcDbEntity
  8
Layer_1
 62
7
100
AcDbSpline
 70
8
 71
3
 72
8
 73
4
 74
0
 40
0
 40
0
 40
0
 40
0
 40
1
 40
1
 40
1
 40
1
 10
51.303182
 20
61.175828
 30
0.0
 10
51.197924
 20
61.175828
 30
0.0
 10
51.096977
 20
61.217642
 30
0.0
 10
51.022549
 20
61.292070
 30
0.0
  0
SPLINE
  5
233
100
AcDbEntity
  8
Layer_1
 62
7
100
AcDbSpline
 70
8
 71
3
 72
8
 73
4
 74
0
 40
0
 40
0
 40
0
 40
0
 40
1
 40
1
 40
1
 40
1
 10
51.022549
 20
61.292070
 30
0.0
 10
50.948120
 20
61.366499
 30
0.0
 10
50.906307
 20
61.467446
 30
0.0
 10
50.906307
 20
61.572703
 30
0.0
  0
SPLINE
  5
234
100
AcDbEntity
  8
Layer_1
 62
7
100
AcDbSpline
 70
8
 71
3
 72
8
 73
4
 74
0
 40
0
 40
0
 40
0
 40
0
 40
1
 40
1
 40
1
 40
1
 10
50.906307
 20
61.572703
 30
0.0
 10
50.906307
 20
61.677961
 30
0.0
 10
50.948120
 20
61.778908
 30
0.0
 10
51.022549
 20
61.853336
 30
0.0
  0
SPLINE
  5
235
100
AcDbEntity
  8
Layer_1
 62
7
100
AcDbSpline
 70
8
 71
3
 72
8
 73
4
 74
0
 40
0
 40
0
 40
0
 40
0
 40
1
 40
1
 40
1
 40
1
 10
51.022549
 20
61.853336
 30
0.0
 10
51.096977
 20
61.927765
 30
0.0
 10
51.197924
 20
61.969578
 30
0.0
 10
51.303182
 20
61.969578
 30
0.0
  0
SPLINE
  5
236
100
AcDbEntity
  8
Layer_1
 62
7
100
AcDbSpline
 70
8
 71
3
 72
8
 73
4
 74
0
 40
0
 40
0
 40
0
 40
0
 40
1
 40
1
 40
1
 40
1
 10
51.303182
 20
61.969578
 30
0.0
 10
51.408440
 20
61.969578
 30
0.0
 10
51.509386
 20
61.927765
 30
0.0
 10
51.583815
 20
61.853336
 30
0.0
  0
SPLINE
  5
237
100
AcDbEntity
  8
Layer_1
 62
7
100
AcDbSpline
 70
8
 71
3
 72
8
 73
4
 74
0
 40
0
 40
0
 40
0
 40
0
 40
1
 40
1
 40
1
 40
1
 10
51.583815
 20
61.853336
 30
0.0
 10
51.658243
 20
61.778908
 30
0.0
 10
51.700057
 20
61.677961
 30
0.0
 10
51.700057
 20
61.572703
 30
0.0
  0
LWPOLYLINE
  5
238
100
AcDbEntity
  8
Layer_1
 62
7
100
AcDbPolyline
 90
1
 70
1
 10
48.492495
 20
61.572703
 30
0.0
  0
SPLINE
  5
239
100
AcDbEntity
  8
Layer_1
 62
7
100
AcDbSpline
 70
8
 71
3
 72
8
 73
4
 74
0
 40
0
 40
0
 40
0
 40
0
 40
1
 40
1
 40
1
 40
1
 10
22.831958
 20
61.572703
 30
0.0
 10
22.831958
 20
61.467446
 30
0.0
 10
22.790144
 20
61.366499
 30
0.0
 10
22.715716
 20
61.292070
 30
0.0
  0
SPLINE
  5
23a
100
AcDbEntity
  8
Layer_1
 62
7
100
AcDbSpline
 70
8
 71
3
 72
8
 73
4
 74
0
 40
0
 40
0
 40
0
 40
0
 40
1
 40
1
 40
1
 40
1
 10
22.715716
 20
61.292070
 30
0.0
 10
22.641287
 20
61.217642
 30
0.0
 10
22.540341
 20
61.175828
 30
0.0
 10
22.435083
 20
61.175828
 30
0.0
  0
SPLINE
  5
23b
100
AcDbEntity
  8
Layer_1
 62
7
100
AcDbSpline
 70
8
 71
3
 72
8
 73
4
 74
0
 40
0
 40
0
 40
0
 40
0
 40
1
 40
1
 40
1
 40
1
 10
22.435083
 20
61.175828
 30
0.0
 10
22.329825
 20
61.175828
 30
0.0
 10
22.228878
 20
61.217642
 30
0.0
 10
22.154450
 20
61.292070
 30
0.0
  0
SPLINE
  5
23c
100
AcDbEntity
  8
Layer_1
 62
7
100
AcDbSpline
 70
8
 71
3
 72
8
 73
4
 74
0
 40
0
 40
0
 40
0
 40
0
 40
1
 40
1
 40
1
 40
1
 10
22.154450
 20
61.292070
 30
0.0
 10
22.080021
 20
61.366499
 30
0.0
 10
22.038208
 20
61.467446
 30
0.0
 10
22.038208
 20
61.572703
 30
0.0
  0
SPLINE
  5
23d
100
AcDbEntity
  8
Layer_1
 62
7
100
AcDbSpline
 70
8
 71
3
 72
8
 73
4
 74
0
 40
0
 40
0
 40
0
 40
0
 40
1
 40
1
 40
1
 40
1
 10
22.038208
 20
61.572703
 30
0.0
 10
22.038208
 20
61.677961
 30
0.0
 10
22.080021
 20
61.778908
 30
0.0
 10
22.154450
 20
61.853336
 30
0.0
  0
SPLINE
  5
23e
100
AcDbEntity
  8
Layer_1
 62
7
100
AcDbSpline
 70
8
 71
3
 72
8
 73
4
 74
0
 40
0
 40
0
 40
0
 40
0
 40
1
 40
1
 40
1
 40
1
 10
22.154450
 20
61.853336
 30
0.0
 10
22.228878
 20
61.927765
 30
0.0
 10
22.329825
 20
61.969578
 30
0.0
 10
22.435083
 20
61.969578
 30
0.0
  0
SPLINE
  5
23f
100
AcDbEntity
  8
Layer_1
 62
7
100
AcDbSpline
 70
8
 71
3
 72
8
 73
4
 74
0
 40
0
 40
0
 40
0
 40
0
 40
1
 40
1
 40
1
 40
1
 10
22.435083
 20
61.969578
 30
0.0
 10
22.540341
 20
61.969578
 30
0.0
 10
22.641287
 20
61.927765
 30
0.0
 10
22.715716
 20
61.853336
 30
0.0
  0
SPLINE
  5
240
100
AcDbEntity
  8
Layer_1
 62
7
100
AcDbSpline
 70
8
 71
3
 72
8
 73
4
 74
0
 40
0
 40
0
 40
0
 40
0
 40
1
 40
1
 40
1
 40
1
 10
22.715716
 20
61.853336
 30
0.0
 10
22.790144
 20
61.778908
 30
0.0
 10
22.831958
 20
61.677961
 30
0.0
 10
22.831958
 20
61.572703
 30
0.0
  0
LWPOLYLINE
  5
241
100
AcDbEntity
  8
Layer_1
 62
7
100
AcDbPolyline
 90
1
 70
1
 10
51.700057
 20
61.572703
 30
0.0
  0
SPLINE
  5
242
100
AcDbEntity
  8
Layer_1
 62
7
100
AcDbSpline
 70
8
 71
3
 72
8
 73
4
 74
0
 40
0
 40
0
 40
0
 40
0
 40
1
 40
1
 40
1
 40
1
 10
19.624390
 20
61.572703
 30
0.0
 10
19.624390
 20
61.467446
 30
0.0
 10
19.582576
 20
61.366499
 30
0.0
 10
19.508148
 20
61.292070
 30
0.0
  0
SPLINE
  5
243
100
AcDbEntity
  8
Layer_1
 62
7
100
AcDbSpline
 70
8
 71
3
 72
8
 73
4
 74
0
 40
0
 40
0
 40
0
 40
0
 40
1
 40
1
 40
1
 40
1
 10
19.508148
 20
61.292070
 30
0.0
 10
19.433719
 20
61.217642
 30
0.0
 10
19.332772
 20
61.175828
 30
0.0
 10
19.227515
 20
61.175828
 30
0.0
  0
SPLINE
  5
244
100
AcDbEntity
  8
Layer_1
 62
7
100
AcDbSpline
 70
8
 71
3
 72
8
 73
4
 74
0
 40
0
 40
0
 40
0
 40
0
 40
1
 40
1
 40
1
 40
1
 10
19.227515
 20
61.175828
 30
0.0
 10
19.122257
 20
61.175828
 30
0.0
 10
19.021310
 20
61.217642
 30
0.0
 10
18.946882
 20
61.292070
 30
0.0
  0
SPLINE
  5
245
100
AcDbEntity
  8
Layer_1
 62
7
100
AcDbSpline
 70
8
 71
3
 72
8
 73
4
 74
0
 40
0
 40
0
 40
0
 40
0
 40
1
 40
1
 40
1
 40
1
 10
18.946882
 20
61.292070
 30
0.0
 10
18.872453
 20
61.366499
 30
0.0
 10
18.830640
 20
61.467446
 30
0.0
 10
18.830640
 20
61.572703
 30
0.0
  0
SPLINE
  5
246
100
AcDbEntity
  8
Layer_1
 62
7
100
AcDbSpline
 70
8
 71
3
 72
8
 73
4
 74
0
 40
0
 40
0
 40
0
 40
0
 40
1
 40
1
 40
1
 40
1
 10
18.830640
 20
61.572703
 30
0.0
 10
18.830640
 20
61.677961
 30
0.0
 10
18.872453
 20
61.778908
 30
0.0
 10
18.946882
 20
61.853336
 30
0.0
  0
SPLINE
  5
247
100
AcDbEntity
  8
Layer_1
 62
7
100
AcDbSpline
 70
8
 71
3
 72
8
 73
4
 74
0
 40
0
 40
0
 40
0
 40
0
 40
1
 40
1
 40
1
 40
1
 10
18.946882
 20
61.853336
 30
0.0
 10
19.021310
 20
61.927765
 30
0.0
 10
19.122257
 20
61.969578
 30
0.0
 10
19.227515
 20
61.969578
 30
0.0
  0
SPLINE
  5
248
100
AcDbEntity
  8
Layer_1
 62
7
100
AcDbSpline
 70
8
 71
3
 72
8
 73
4
 74
0
 40
0
 40
0
 40
0
 40
0
 40
1
 40
1
 40
1
 40
1
 10
19.227515
 20
61.969578
 30
0.0
 10
19.332772
 20
61.969578
 30
0.0
 10
19.433719
 20
61.927765
 30
0.0
 10
19.508148
 20
61.853336
 30
0.0
  0
SPLINE
  5
249
100
AcDbEntity
  8
Layer_1
 62
7
100
AcDbSpline
 70
8
 71
3
 72
8
 73
4
 74
0
 40
0
 40
0
 40
0
 40
0
 40
1
 40
1
 40
1
 40
1
 10
19.508148
 20
61.853336
 30
0.0
 10
19.582576
 20
61.778908
 30
0.0
 10
19.624390
 20
61.677961
 30
0.0
 10
19.624390
 20
61.572703
 30
0.0
  0
LWPOLYLINE
  5
24a
100
AcDbEntity
  8
Layer_1
 62
7
100
AcDbPolyline
 90
1
 70
1
 10
22.831958
 20
61.572703
 30
0.0
  0
SPLINE
  5
24b
100
AcDbEntity
  8
Layer_1
 62
7
100
AcDbSpline
 70
8
 71
3
 72
8
 73
4
 74
0
 40
0
 40
0
 40
0
 40
0
 40
1
 40
1
 40
1
 40
1
 10
13.209256
 20
61.572703
 30
0.0
 10
13.209256
 20
61.467446
 30
0.0
 10
13.167442
 20
61.366499
 30
0.0
 10
13.093014
 20
61.292070
 30
0.0
  0
SPLINE
  5
24c
100
AcDbEntity
  8
Layer_1
 62
7
100
AcDbSpline
 70
8
 71
3
 72
8
 73
4
 74
0
 40
0
 40
0
 40
0
 40
0
 40
1
 40
1
 40
1
 40
1
 10
13.093014
 20
61.292070
 30
0.0
 10
13.018585
 20
61.217642
 30
0.0
 10
12.917639
 20
61.175828
 30
0.0
 10
12.812381
 20
61.175828
 30
0.0
  0
SPLINE
  5
24d
100
AcDbEntity
  8
Layer_1
 62
7
100
AcDbSpline
 70
8
 71
3
 72
8
 73
4
 74
0
 40
0
 40
0
 40
0
 40
0
 40
1
 40
1
 40
1
 40
1
 10
12.812381
 20
61.175828
 30
0.0
 10
12.707123
 20
61.175828
 30
0.0
 10
12.606176
 20
61.217642
 30
0.0
 10
12.531748
 20
61.292070
 30
0.0
  0
SPLINE
  5
24e
100
AcDbEntity
  8
Layer_1
 62
7
100
AcDbSpline
 70
8
 71
3
 72
8
 73
4
 74
0
 40
0
 40
0
 40
0
 40
0
 40
1
 40
1
 40
1
 40
1
 10
12.531748
 20
61.292070
 30
0.0
 10
12.457319
 20
61.366499
 30
0.0
 10
12.415506
 20
61.467446
 30
0.0
 10
12.415506
 20
61.572703
 30
0.0
  0
SPLINE
  5
24f
100
AcDbEntity
  8
Layer_1
 62
7
100
AcDbSpline
 70
8
 71
3
 72
8
 73
4
 74
0
 40
0
 40
0
 40
0
 40
0
 40
1
 40
1
 40
1
 40
1
 10
12.415506
 20
61.572703
 30
0.0
 10
12.415506
 20
61.677961
 30
0.0
 10
12.457319
 20
61.778908
 30
0.0
 10
12.531748
 20
61.853336
 30
0.0
  0
SPLINE
  5
250
100
AcDbEntity
  8
Layer_1
 62
7
100
AcDbSpline
 70
8
 71
3
 72
8
 73
4
 74
0
 40
0
 40
0
 40
0
 40
0
 40
1
 40
1
 40
1
 40
1
 10
12.531748
 20
61.853336
 30
0.0
 10
12.606176
 20
61.927765
 30
0.0
 10
12.707123
 20
61.969578
 30
0.0
 10
12.812381
 20
61.969578
 30
0.0
  0
SPLINE
  5
251
100
AcDbEntity
  8
Layer_1
 62
7
100
AcDbSpline
 70
8
 71
3
 72
8
 73
4
 74
0
 40
0
 40
0
 40
0
 40
0
 40
1
 40
1
 40
1
 40
1
 10
12.812381
 20
61.969578
 30
0.0
 10
12.917639
 20
61.969578
 30
0.0
 10
13.018585
 20
61.927765
 30
0.0
 10
13.093014
 20
61.853336
 30
0.0
  0
SPLINE
  5
252
100
AcDbEntity
  8
Layer_1
 62
7
100
AcDbSpline
 70
8
 71
3
 72
8
 73
4
 74
0
 40
0
 40
0
 40
0
 40
0
 40
1
 40
1
 40
1
 40
1
 10
13.093014
 20
61.853336
 30
0.0
 10
13.167442
 20
61.778908
 30
0.0
 10
13.209256
 20
61.677961
 30
0.0
 10
13.209256
 20
61.572703
 30
0.0
  0
LWPOLYLINE
  5
253
100
AcDbEntity
  8
Layer_1
 62
7
100
AcDbPolyline
 90
1
 70
1
 10
19.624390
 20
61.572703
 30
0.0
  0
SPLINE
  5
254
100
AcDbEntity
  8
Layer_1
 62
7
100
AcDbSpline
 70
8
 71
3
 72
8
 73
4
 74
0
 40
0
 40
0
 40
0
 40
0
 40
1
 40
1
 40
1
 40
1
 10
6.794123
 20
58.740239
 30
0.0
 10
6.794123
 20
58.634981
 30
0.0
 10
6.752309
 20
58.534035
 30
0.0
 10
6.677881
 20
58.459606
 30
0.0
  0
SPLINE
  5
255
100
AcDbEntity
  8
Layer_1
 62
7
100
AcDbSpline
 70
8
 71
3
 72
8
 73
4
 74
0
 40
0
 40
0
 40
0
 40
0
 40
1
 40
1
 40
1
 40
1
 10
6.677881
 20
58.459606
 30
0.0
 10
6.603452
 20
58.385178
 30
0.0
 10
6.502505
 20
58.343364
 30
0.0
 10
6.397248
 20
58.343364
 30
0.0
  0
SPLINE
  5
256
100
AcDbEntity
  8
Layer_1
 62
7
100
AcDbSpline
 70
8
 71
3
 72
8
 73
4
 74
0
 40
0
 40
0
 40
0
 40
0
 40
1
 40
1
 40
1
 40
1
 10
6.397248
 20
58.343364
 30
0.0
 10
6.178060
 20
58.343364
 30
0.0
 10
6.000373
 20
58.521051
 30
0.0
 10
6.000373
 20
58.740239
 30
0.0
  0
SPLINE
  5
257
100
AcDbEntity
  8
Layer_1
 62
7
100
AcDbSpline
 70
8
 71
3
 72
8
 73
4
 74
0
 40
0
 40
0
 40
0
 40
0
 40
1
 40
1
 40
1
 40
1
 10
6.000373
 20
58.740239
 30
0.0
 10
6.000373
 20
58.845497
 30
0.0
 10
6.042186
 20
58.946444
 30
0.0
 10
6.116615
 20
59.020872
 30
0.0
  0
SPLINE
  5
258
100
AcDbEntity
  8
Layer_1
 62
7
100
AcDbSpline
 70
8
 71
3
 72
8
 73
4
 74
0
 40
0
 40
0
 40
0
 40
0
 40
1
 40
1
 40
1
 40
1
 10
6.116615
 20
59.020872
 30
0.0
 10
6.191043
 20
59.095301
 30
0.0
 10
6.291990
 20
59.137114
 30
0.0
 10
6.397248
 20
59.137114
 30
0.0
  0
SPLINE
  5
259
100
AcDbEntity
  8
Layer_1
 62
7
100
AcDbSpline
 70
8
 71
3
 72
8
 73
4
 74
0
 40
0
 40
0
 40
0
 40
0
 40
1
 40
1
 40
1
 40
1
 10
6.397248
 20
59.137114
 30
0.0
 10
6.502505
 20
59.137114
 30
0.0
 10
6.603452
 20
59.095301
 30
0.0
 10
6.677881
 20
59.020872
 30
0.0
  0
SPLINE
  5
25a
100
AcDbEntity
  8
Layer_1
 62
7
100
AcDbSpline
 70
8
 71
3
 72
8
 73
4
 74
0
 40
0
 40
0
 40
0
 40
0
 40
1
 40
1
 40
1
 40
1
 10
6.677881
 20
59.020872
 30
0.0
 10
6.752309
 20
58.946444
 30
0.0
 10
6.794123
 20
58.845497
 30
0.0
 10
6.794123
 20
58.740239
 30
0.0
  0
LWPOLYLINE
  5
25b
100
AcDbEntity
  8
Layer_1
 62
7
100
AcDbPolyline
 90
1
 70
1
 10
13.209256
 20
61.572703
 30
0.0
  0
SPLINE
  5
25c
100
AcDbEntity
  8
Layer_1
 62
7
100
AcDbSpline
 70
8
 71
3
 72
8
 73
4
 74
0
 40
0
 40
0
 40
0
 40
0
 40
1
 40
1
 40
1
 40
1
 10
10.001688
 20
58.740239
 30
0.0
 10
10.001688
 20
58.634981
 30
0.0
 10
9.959874
 20
58.534035
 30
0.0
 10
9.885446
 20
58.459606
 30
0.0
  0
SPLINE
  5
25d
100
AcDbEntity
  8
Layer_1
 62
7
100
AcDbSpline
 70
8
 71
3
 72
8
 73
4
 74
0
 40
0
 40
0
 40
0
 40
0
 40
1
 40
1
 40
1
 40
1
 10
9.885446
 20
58.459606
 30
0.0
 10
9.811017
 20
58.385178
 30
0.0
 10
9.710071
 20
58.343364
 30
0.0
 10
9.604813
 20
58.343364
 30
0.0
  0
SPLINE
  5
25e
100
AcDbEntity
  8
Layer_1
 62
7
100
AcDbSpline
 70
8
 71
3
 72
8
 73
4
 74
0
 40
0
 40
0
 40
0
 40
0
 40
1
 40
1
 40
1
 40
1
 10
9.604813
 20
58.343364
 30
0.0
 10
9.499555
 20
58.343364
 30
0.0
 10
9.398608
 20
58.385178
 30
0.0
 10
9.324180
 20
58.459606
 30
0.0
  0
SPLINE
  5
25f
100
AcDbEntity
  8
Layer_1
 62
7
100
AcDbSpline
 70
8
 71
3
 72
8
 73
4
 74
0
 40
0
 40
0
 40
0
 40
0
 40
1
 40
1
 40
1
 40
1
 10
9.324180
 20
58.459606
 30
0.0
 10
9.249751
 20
58.534035
 30
0.0
 10
9.207938
 20
58.634981
 30
0.0
 10
9.207938
 20
58.740239
 30
0.0
  0
SPLINE
  5
260
100
AcDbEntity
  8
Layer_1
 62
7
100
AcDbSpline
 70
8
 71
3
 72
8
 73
4
 74
0
 40
0
 40
0
 40
0
 40
0
 40
1
 40
1
 40
1
 40
1
 10
9.207938
 20
58.740239
 30
0.0
 10
9.207938
 20
58.845497
 30
0.0
 10
9.249751
 20
58.946444
 30
0.0
 10
9.324180
 20
59.020872
 30
0.0
  0
SPLINE
  5
261
100
AcDbEntity
  8
Layer_1
 62
7
100
AcDbSpline
 70
8
 71
3
 72
8
 73
4
 74
0
 40
0
 40
0
 40
0
 40
0
 40
1
 40
1
 40
1
 40
1
 10
9.324180
 20
59.020872
 30
0.0
 10
9.398608
 20
59.095301
 30
0.0
 10
9.499555
 20
59.137114
 30
0.0
 10
9.604813
 20
59.137114
 30
0.0
  0
SPLINE
  5
262
100
AcDbEntity
  8
Layer_1
 62
7
100
AcDbSpline
 70
8
 71
3
 72
8
 73
4
 74
0
 40
0
 40
0
 40
0
 40
0
 40
1
 40
1
 40
1
 40
1
 10
9.604813
 20
59.137114
 30
0.0
 10
9.710071
 20
59.137114
 30
0.0
 10
9.811017
 20
59.095301
 30
0.0
 10
9.885446
 20
59.020872
 30
0.0
  0
SPLINE
  5
263
100
AcDbEntity
  8
Layer_1
 62
7
100
AcDbSpline
 70
8
 71
3
 72
8
 73
4
 74
0
 40
0
 40
0
 40
0
 40
0
 40
1
 40
1
 40
1
 40
1
 10
9.885446
 20
59.020872
 30
0.0
 10
9.959874
 20
58.946444
 30
0.0
 10
10.001688
 20
58.845497
 30
0.0
 10
10.001688
 20
58.740239
 30
0.0
  0
LWPOLYLINE
  5
264
100
AcDbEntity
  8
Layer_1
 62
7
100
AcDbPolyline
 90
1
 70
1
 10
6.794123
 20
58.740239
 30
0.0
  0
SPLINE
  5
265
100
AcDbEntity
  8
Layer_1
 62
7
100
AcDbSpline
 70
8
 71
3
 72
8
 73
4
 74
0
 40
0
 40
0
 40
0
 40
0
 40
1
 40
1
 40
1
 40
1
 10
16.416822
 20
58.740239
 30
0.0
 10
16.416822
 20
58.634981
 30
0.0
 10
16.375009
 20
58.534035
 30
0.0
 10
16.300580
 20
58.459606
 30
0.0
  0
SPLINE
  5
266
100
AcDbEntity
  8
Layer_1
 62
7
100
AcDbSpline
 70
8
 71
3
 72
8
 73
4
 74
0
 40
0
 40
0
 40
0
 40
0
 40
1
 40
1
 40
1
 40
1
 10
16.300580
 20
58.459606
 30
0.0
 10
16.226152
 20
58.385178
 30
0.0
 10
16.125205
 20
58.343364
 30
0.0
 10
16.019947
 20
58.343364
 30
0.0
  0
SPLINE
  5
267
100
AcDbEntity
  8
Layer_1
 62
7
100
AcDbSpline
 70
8
 71
3
 72
8
 73
4
 74
0
 40
0
 40
0
 40
0
 40
0
 40
1
 40
1
 40
1
 40
1
 10
16.019947
 20
58.343364
 30
0.0
 10
15.914689
 20
58.343364
 30
0.0
 10
15.813743
 20
58.385178
 30
0.0
 10
15.739314
 20
58.459606
 30
0.0
  0
SPLINE
  5
268
100
AcDbEntity
  8
Layer_1
 62
7
100
AcDbSpline
 70
8
 71
3
 72
8
 73
4
 74
0
 40
0
 40
0
 40
0
 40
0
 40
1
 40
1
 40
1
 40
1
 10
15.739314
 20
58.459606
 30
0.0
 10
15.664886
 20
58.534035
 30
0.0
 10
15.623072
 20
58.634981
 30
0.0
 10
15.623072
 20
58.740239
 30
0.0
  0
SPLINE
  5
269
100
AcDbEntity
  8
Layer_1
 62
7
100
AcDbSpline
 70
8
 71
3
 72
8
 73
4
 74
0
 40
0
 40
0
 40
0
 40
0
 40
1
 40
1
 40
1
 40
1
 10
15.623072
 20
58.740239
 30
0.0
 10
15.623072
 20
58.845497
 30
0.0
 10
15.664886
 20
58.946444
 30
0.0
 10
15.739314
 20
59.020872
 30
0.0
  0
SPLINE
  5
26a
100
AcDbEntity
  8
Layer_1
 62
7
100
AcDbSpline
 70
8
 71
3
 72
8
 73
4
 74
0
 40
0
 40
0
 40
0
 40
0
 40
1
 40
1
 40
1
 40
1
 10
15.739314
 20
59.020872
 30
0.0
 10
15.813743
 20
59.095301
 30
0.0
 10
15.914689
 20
59.137114
 30
0.0
 10
16.019947
 20
59.137114
 30
0.0
  0
SPLINE
  5
26b
100
AcDbEntity
  8
Layer_1
 62
7
100
AcDbSpline
 70
8
 71
3
 72
8
 73
4
 74
0
 40
0
 40
0
 40
0
 40
0
 40
1
 40
1
 40
1
 40
1
 10
16.019947
 20
59.137114
 30
0.0
 10
16.125205
 20
59.137114
 30
0.0
 10
16.226152
 20
59.095301
 30
0.0
 10
16.300580
 20
59.020872
 30
0.0
  0
SPLINE
  5
26c
100
AcDbEntity
  8
Layer_1
 62
7
100
AcDbSpline
 70
8
 71
3
 72
8
 73
4
 74
0
 40
0
 40
0
 40
0
 40
0
 40
1
 40
1
 40
1
 40
1
 10
16.300580
 20
59.020872
 30
0.0
 10
16.375009
 20
58.946444
 30
0.0
 10
16.416822
 20
58.845497
 30
0.0
 10
16.416822
 20
58.740239
 30
0.0
  0
LWPOLYLINE
  5
26d
100
AcDbEntity
  8
Layer_1
 62
7
100
AcDbPolyline
 90
1
 70
1
 10
10.001688
 20
58.740239
 30
0.0
  0
SPLINE
  5
26e
100
AcDbEntity
  8
Layer_1
 62
7
100
AcDbSpline
 70
8
 71
3
 72
8
 73
4
 74
0
 40
0
 40
0
 40
0
 40
0
 40
1
 40
1
 40
1
 40
1
 10
29.247089
 20
58.740239
 30
0.0
 10
29.247089
 20
58.634981
 30
0.0
 10
29.205276
 20
58.534035
 30
0.0
 10
29.130847
 20
58.459606
 30
0.0
  0
SPLINE
  5
26f
100
AcDbEntity
  8
Layer_1
 62
7
100
AcDbSpline
 70
8
 71
3
 72
8
 73
4
 74
0
 40
0
 40
0
 40
0
 40
0
 40
1
 40
1
 40
1
 40
1
 10
29.130847
 20
58.459606
 30
0.0
 10
29.056419
 20
58.385178
 30
0.0
 10
28.955472
 20
58.343364
 30
0.0
 10
28.850214
 20
58.343364
 30
0.0
  0
SPLINE
  5
270
100
AcDbEntity
  8
Layer_1
 62
7
100
AcDbSpline
 70
8
 71
3
 72
8
 73
4
 74
0
 40
0
 40
0
 40
0
 40
0
 40
1
 40
1
 40
1
 40
1
 10
28.850214
 20
58.343364
 30
0.0
 10
28.744956
 20
58.343364
 30
0.0
 10
28.644010
 20
58.385178
 30
0.0
 10
28.569581
 20
58.459606
 30
0.0
  0
SPLINE
  5
271
100
AcDbEntity
  8
Layer_1
 62
7
100
AcDbSpline
 70
8
 71
3
 72
8
 73
4
 74
0
 40
0
 40
0
 40
0
 40
0
 40
1
 40
1
 40
1
 40
1
 10
28.569581
 20
58.459606
 30
0.0
 10
28.495153
 20
58.534035
 30
0.0
 10
28.453339
 20
58.634981
 30
0.0
 10
28.453339
 20
58.740239
 30
0.0
  0
SPLINE
  5
272
100
AcDbEntity
  8
Layer_1
 62
7
100
AcDbSpline
 70
8
 71
3
 72
8
 73
4
 74
0
 40
0
 40
0
 40
0
 40
0
 40
1
 40
1
 40
1
 40
1
 10
28.453339
 20
58.740239
 30
0.0
 10
28.453339
 20
58.845497
 30
0.0
 10
28.495153
 20
58.946444
 30
0.0
 10
28.569581
 20
59.020872
 30
0.0
  0
SPLINE
  5
273
100
AcDbEntity
  8
Layer_1
 62
7
100
AcDbSpline
 70
8
 71
3
 72
8
 73
4
 74
0
 40
0
 40
0
 40
0
 40
0
 40
1
 40
1
 40
1
 40
1
 10
28.569581
 20
59.020872
 30
0.0
 10
28.644010
 20
59.095301
 30
0.0
 10
28.744956
 20
59.137114
 30
0.0
 10
28.850214
 20
59.137114
 30
0.0
  0
SPLINE
  5
274
100
AcDbEntity
  8
Layer_1
 62
7
100
AcDbSpline
 70
8
 71
3
 72
8
 73
4
 74
0
 40
0
 40
0
 40
0
 40
0
 40
1
 40
1
 40
1
 40
1
 10
28.850214
 20
59.137114
 30
0.0
 10
28.955472
 20
59.137114
 30
0.0
 10
29.056419
 20
59.095301
 30
0.0
 10
29.130847
 20
59.020872
 30
0.0
  0
SPLINE
  5
275
100
AcDbEntity
  8
Layer_1
 62
7
100
AcDbSpline
 70
8
 71
3
 72
8
 73
4
 74
0
 40
0
 40
0
 40
0
 40
0
 40
1
 40
1
 40
1
 40
1
 10
29.130847
 20
59.020872
 30
0.0
 10
29.205276
 20
58.946444
 30
0.0
 10
29.247089
 20
58.845497
 30
0.0
 10
29.247089
 20
58.740239
 30
0.0
  0
LWPOLYLINE
  5
276
100
AcDbEntity
  8
Layer_1
 62
7
100
AcDbPolyline
 90
1
 70
1
 10
16.416822
 20
58.740239
 30
0.0
  0
SPLINE
  5
277
100
AcDbEntity
  8
Layer_1
 62
7
100
AcDbSpline
 70
8
 71
3
 72
8
 73
4
 74
0
 40
0
 40
0
 40
0
 40
0
 40
1
 40
1
 40
1
 40
1
 10
26.039524
 20
58.740239
 30
0.0
 10
26.039524
 20
58.634981
 30
0.0
 10
25.997711
 20
58.534035
 30
0.0
 10
25.923282
 20
58.459606
 30
0.0
  0
SPLINE
  5
278
100
AcDbEntity
  8
Layer_1
 62
7
100
AcDbSpline
 70
8
 71
3
 72
8
 73
4
 74
0
 40
0
 40
0
 40
0
 40
0
 40
1
 40
1
 40
1
 40
1
 10
25.923282
 20
58.459606
 30
0.0
 10
25.848854
 20
58.385178
 30
0.0
 10
25.747907
 20
58.343364
 30
0.0
 10
25.642649
 20
58.343364
 30
0.0
  0
SPLINE
  5
279
100
AcDbEntity
  8
Layer_1
 62
7
100
AcDbSpline
 70
8
 71
3
 72
8
 73
4
 74
0
 40
0
 40
0
 40
0
 40
0
 40
1
 40
1
 40
1
 40
1
 10
25.642649
 20
58.343364
 30
0.0
 10
25.537391
 20
58.343364
 30
0.0
 10
25.436445
 20
58.385178
 30
0.0
 10
25.362016
 20
58.459606
 30
0.0
  0
SPLINE
  5
27a
100
AcDbEntity
  8
Layer_1
 62
7
100
AcDbSpline
 70
8
 71
3
 72
8
 73
4
 74
0
 40
0
 40
0
 40
0
 40
0
 40
1
 40
1
 40
1
 40
1
 10
25.362016
 20
58.459606
 30
0.0
 10
25.287588
 20
58.534035
 30
0.0
 10
25.245774
 20
58.634981
 30
0.0
 10
25.245774
 20
58.740239
 30
0.0
  0
SPLINE
  5
27b
100
AcDbEntity
  8
Layer_1
 62
7
100
AcDbSpline
 70
8
 71
3
 72
8
 73
4
 74
0
 40
0
 40
0
 40
0
 40
0
 40
1
 40
1
 40
1
 40
1
 10
25.245774
 20
58.740239
 30
0.0
 10
25.245774
 20
58.845497
 30
0.0
 10
25.287588
 20
58.946444
 30
0.0
 10
25.362016
 20
59.020872
 30
0.0
  0
SPLINE
  5
27c
100
AcDbEntity
  8
Layer_1
 62
7
100
AcDbSpline
 70
8
 71
3
 72
8
 73
4
 74
0
 40
0
 40
0
 40
0
 40
0
 40
1
 40
1
 40
1
 40
1
 10
25.362016
 20
59.020872
 30
0.0
 10
25.436445
 20
59.095301
 30
0.0
 10
25.537391
 20
59.137114
 30
0.0
 10
25.642649
 20
59.137114
 30
0.0
  0
SPLINE
  5
27d
100
AcDbEntity
  8
Layer_1
 62
7
100
AcDbSpline
 70
8
 71
3
 72
8
 73
4
 74
0
 40
0
 40
0
 40
0
 40
0
 40
1
 40
1
 40
1
 40
1
 10
25.642649
 20
59.137114
 30
0.0
 10
25.747907
 20
59.137114
 30
0.0
 10
25.848854
 20
59.095301
 30
0.0
 10
25.923282
 20
59.020872
 30
0.0
  0
SPLINE
  5
27e
100
AcDbEntity
  8
Layer_1
 62
7
100
AcDbSpline
 70
8
 71
3
 72
8
 73
4
 74
0
 40
0
 40
0
 40
0
 40
0
 40
1
 40
1
 40
1
 40
1
 10
25.923282
 20
59.020872
 30
0.0
 10
25.997711
 20
58.946444
 30
0.0
 10
26.039524
 20
58.845497
 30
0.0
 10
26.039524
 20
58.740239
 30
0.0
  0
LWPOLYLINE
  5
27f
100
AcDbEntity
  8
Layer_1
 62
7
100
AcDbPolyline
 90
1
 70
1
 10
29.247089
 20
58.740239
 30
0.0
  0
SPLINE
  5
280
100
AcDbEntity
  8
Layer_1
 62
7
100
AcDbSpline
 70
8
 71
3
 72
8
 73
4
 74
0
 40
0
 40
0
 40
0
 40
0
 40
1
 40
1
 40
1
 40
1
 10
32.454659
 20
58.740239
 30
0.0
 10
32.454659
 20
58.634981
 30
0.0
 10
32.412846
 20
58.534035
 30
0.0
 10
32.338418
 20
58.459606
 30
0.0
  0
SPLINE
  5
281
100
AcDbEntity
  8
Layer_1
 62
7
100
AcDbSpline
 70
8
 71
3
 72
8
 73
4
 74
0
 40
0
 40
0
 40
0
 40
0
 40
1
 40
1
 40
1
 40
1
 10
32.338418
 20
58.459606
 30
0.0
 10
32.263989
 20
58.385178
 30
0.0
 10
32.163042
 20
58.343364
 30
0.0
 10
32.057785
 20
58.343364
 30
0.0
  0
SPLINE
  5
282
100
AcDbEntity
  8
Layer_1
 62
7
100
AcDbSpline
 70
8
 71
3
 72
8
 73
4
 74
0
 40
0
 40
0
 40
0
 40
0
 40
1
 40
1
 40
1
 40
1
 10
32.057785
 20
58.343364
 30
0.0
 10
31.952527
 20
58.343364
 30
0.0
 10
31.851580
 20
58.385178
 30
0.0
 10
31.777151
 20
58.459606
 30
0.0
  0
SPLINE
  5
283
100
AcDbEntity
  8
Layer_1
 62
7
100
AcDbSpline
 70
8
 71
3
 72
8
 73
4
 74
0
 40
0
 40
0
 40
0
 40
0
 40
1
 40
1
 40
1
 40
1
 10
31.777151
 20
58.459606
 30
0.0
 10
31.702723
 20
58.534035
 30
0.0
 10
31.660909
 20
58.634981
 30
0.0
 10
31.660909
 20
58.740239
 30
0.0
  0
SPLINE
  5
284
100
AcDbEntity
  8
Layer_1
 62
7
100
AcDbSpline
 70
8
 71
3
 72
8
 73
4
 74
0
 40
0
 40
0
 40
0
 40
0
 40
1
 40
1
 40
1
 40
1
 10
31.660909
 20
58.740239
 30
0.0
 10
31.660909
 20
58.845497
 30
0.0
 10
31.702723
 20
58.946444
 30
0.0
 10
31.777151
 20
59.020872
 30
0.0
  0
SPLINE
  5
285
100
AcDbEntity
  8
Layer_1
 62
7
100
AcDbSpline
 70
8
 71
3
 72
8
 73
4
 74
0
 40
0
 40
0
 40
0
 40
0
 40
1
 40
1
 40
1
 40
1
 10
31.777151
 20
59.020872
 30
0.0
 10
31.851580
 20
59.095301
 30
0.0
 10
31.952527
 20
59.137114
 30
0.0
 10
32.057785
 20
59.137114
 30
0.0
  0
SPLINE
  5
286
100
AcDbEntity
  8
Layer_1
 62
7
100
AcDbSpline
 70
8
 71
3
 72
8
 73
4
 74
0
 40
0
 40
0
 40
0
 40
0
 40
1
 40
1
 40
1
 40
1
 10
32.057785
 20
59.137114
 30
0.0
 10
32.163042
 20
59.137114
 30
0.0
 10
32.263989
 20
59.095301
 30
0.0
 10
32.338418
 20
59.020872
 30
0.0
  0
SPLINE
  5
287
100
AcDbEntity
  8
Layer_1
 62
7
100
AcDbSpline
 70
8
 71
3
 72
8
 73
4
 74
0
 40
0
 40
0
 40
0
 40
0
 40
1
 40
1
 40
1
 40
1
 10
32.338418
 20
59.020872
 30
0.0
 10
32.412846
 20
58.946444
 30
0.0
 10
32.454659
 20
58.845497
 30
0.0
 10
32.454659
 20
58.740239
 30
0.0
  0
LWPOLYLINE
  5
288
100
AcDbEntity
  8
Layer_1
 62
7
100
AcDbPolyline
 90
1
 70
1
 10
26.039524
 20
58.740239
 30
0.0
  0
SPLINE
  5
289
100
AcDbEntity
  8
Layer_1
 62
7
100
AcDbSpline
 70
8
 71
3
 72
8
 73
4
 74
0
 40
0
 40
0
 40
0
 40
0
 40
1
 40
1
 40
1
 40
1
 10
35.662222
 20
58.740239
 30
0.0
 10
35.662222
 20
58.634981
 30
0.0
 10
35.620408
 20
58.534035
 30
0.0
 10
35.545980
 20
58.459606
 30
0.0
  0
SPLINE
  5
28a
100
AcDbEntity
  8
Layer_1
 62
7
100
AcDbSpline
 70
8
 71
3
 72
8
 73
4
 74
0
 40
0
 40
0
 40
0
 40
0
 40
1
 40
1
 40
1
 40
1
 10
35.545980
 20
58.459606
 30
0.0
 10
35.471551
 20
58.385178
 30
0.0
 10
35.370605
 20
58.343364
 30
0.0
 10
35.265347
 20
58.343364
 30
0.0
  0
SPLINE
  5
28b
100
AcDbEntity
  8
Layer_1
 62
7
100
AcDbSpline
 70
8
 71
3
 72
8
 73
4
 74
0
 40
0
 40
0
 40
0
 40
0
 40
1
 40
1
 40
1
 40
1
 10
35.265347
 20
58.343364
 30
0.0
 10
35.046159
 20
58.343364
 30
0.0
 10
34.868472
 20
58.521051
 30
0.0
 10
34.868472
 20
58.740239
 30
0.0
  0
SPLINE
  5
28c
100
AcDbEntity
  8
Layer_1
 62
7
100
AcDbSpline
 70
8
 71
3
 72
8
 73
4
 74
0
 40
0
 40
0
 40
0
 40
0
 40
1
 40
1
 40
1
 40
1
 10
34.868472
 20
58.740239
 30
0.0
 10
34.868472
 20
58.845497
 30
0.0
 10
34.910285
 20
58.946444
 30
0.0
 10
34.984714
 20
59.020872
 30
0.0
  0
SPLINE
  5
28d
100
AcDbEntity
  8
Layer_1
 62
7
100
AcDbSpline
 70
8
 71
3
 72
8
 73
4
 74
0
 40
0
 40
0
 40
0
 40
0
 40
1
 40
1
 40
1
 40
1
 10
34.984714
 20
59.020872
 30
0.0
 10
35.059142
 20
59.095301
 30
0.0
 10
35.160089
 20
59.137114
 30
0.0
 10
35.265347
 20
59.137114
 30
0.0
  0
SPLINE
  5
28e
100
AcDbEntity
  8
Layer_1
 62
7
100
AcDbSpline
 70
8
 71
3
 72
8
 73
4
 74
0
 40
0
 40
0
 40
0
 40
0
 40
1
 40
1
 40
1
 40
1
 10
35.265347
 20
59.137114
 30
0.0
 10
35.370605
 20
59.137114
 30
0.0
 10
35.471551
 20
59.095301
 30
0.0
 10
35.545980
 20
59.020872
 30
0.0
  0
SPLINE
  5
28f
100
AcDbEntity
  8
Layer_1
 62
7
100
AcDbSpline
 70
8
 71
3
 72
8
 73
4
 74
0
 40
0
 40
0
 40
0
 40
0
 40
1
 40
1
 40
1
 40
1
 10
35.545980
 20
59.020872
 30
0.0
 10
35.620408
 20
58.946444
 30
0.0
 10
35.662222
 20
58.845497
 30
0.0
 10
35.662222
 20
58.740239
 30
0.0
  0
LWPOLYLINE
  5
290
100
AcDbEntity
  8
Layer_1
 62
7
100
AcDbPolyline
 90
1
 70
1
 10
32.454659
 20
58.740239
 30
0.0
  0
SPLINE
  5
291
100
AcDbEntity
  8
Layer_1
 62
7
100
AcDbSpline
 70
8
 71
3
 72
8
 73
4
 74
0
 40
0
 40
0
 40
0
 40
0
 40
1
 40
1
 40
1
 40
1
 10
38.869792
 20
58.740239
 30
0.0
 10
38.869792
 20
58.634981
 30
0.0
 10
38.827978
 20
58.534035
 30
0.0
 10
38.753550
 20
58.459606
 30
0.0
  0
SPLINE
  5
292
100
AcDbEntity
  8
Layer_1
 62
7
100
AcDbSpline
 70
8
 71
3
 72
8
 73
4
 74
0
 40
0
 40
0
 40
0
 40
0
 40
1
 40
1
 40
1
 40
1
 10
38.753550
 20
58.459606
 30
0.0
 10
38.679121
 20
58.385178
 30
0.0
 10
38.578175
 20
58.343364
 30
0.0
 10
38.472917
 20
58.343364
 30
0.0
  0
SPLINE
  5
293
100
AcDbEntity
  8
Layer_1
 62
7
100
AcDbSpline
 70
8
 71
3
 72
8
 73
4
 74
0
 40
0
 40
0
 40
0
 40
0
 40
1
 40
1
 40
1
 40
1
 10
38.472917
 20
58.343364
 30
0.0
 10
38.367659
 20
58.343364
 30
0.0
 10
38.266712
 20
58.385178
 30
0.0
 10
38.192284
 20
58.459606
 30
0.0
  0
SPLINE
  5
294
100
AcDbEntity
  8
Layer_1
 62
7
100
AcDbSpline
 70
8
 71
3
 72
8
 73
4
 74
0
 40
0
 40
0
 40
0
 40
0
 40
1
 40
1
 40
1
 40
1
 10
38.192284
 20
58.459606
 30
0.0
 10
38.117855
 20
58.534035
 30
0.0
 10
38.076042
 20
58.634981
 30
0.0
 10
38.076042
 20
58.740239
 30
0.0
  0
SPLINE
  5
295
100
AcDbEntity
  8
Layer_1
 62
7
100
AcDbSpline
 70
8
 71
3
 72
8
 73
4
 74
0
 40
0
 40
0
 40
0
 40
0
 40
1
 40
1
 40
1
 40
1
 10
38.076042
 20
58.740239
 30
0.0
 10
38.076042
 20
58.845497
 30
0.0
 10
38.117855
 20
58.946444
 30
0.0
 10
38.192284
 20
59.020872
 30
0.0
  0
SPLINE
  5
296
100
AcDbEntity
  8
Layer_1
 62
7
100
AcDbSpline
 70
8
 71
3
 72
8
 73
4
 74
0
 40
0
 40
0
 40
0
 40
0
 40
1
 40
1
 40
1
 40
1
 10
38.192284
 20
59.020872
 30
0.0
 10
38.266712
 20
59.095301
 30
0.0
 10
38.367659
 20
59.137114
 30
0.0
 10
38.472917
 20
59.137114
 30
0.0
  0
SPLINE
  5
297
100
AcDbEntity
  8
Layer_1
 62
7
100
AcDbSpline
 70
8
 71
3
 72
8
 73
4
 74
0
 40
0
 40
0
 40
0
 40
0
 40
1
 40
1
 40
1
 40
1
 10
38.472917
 20
59.137114
 30
0.0
 10
38.578175
 20
59.137114
 30
0.0
 10
38.679121
 20
59.095301
 30
0.0
 10
38.753550
 20
59.020872
 30
0.0
  0
SPLINE
  5
298
100
AcDbEntity
  8
Layer_1
 62
7
100
AcDbSpline
 70
8
 71
3
 72
8
 73
4
 74
0
 40
0
 40
0
 40
0
 40
0
 40
1
 40
1
 40
1
 40
1
 10
38.753550
 20
59.020872
 30
0.0
 10
38.827978
 20
58.946444
 30
0.0
 10
38.869792
 20
58.845497
 30
0.0
 10
38.869792
 20
58.740239
 30
0.0
  0
LWPOLYLINE
  5
299
100
AcDbEntity
  8
Layer_1
 62
7
100
AcDbPolyline
 90
1
 70
1
 10
35.662222
 20
58.740239
 30
0.0
  0
SPLINE
  5
29a
100
AcDbEntity
  8
Layer_1
 62
7
100
AcDbSpline
 70
8
 71
3
 72
8
 73
4
 74
0
 40
0
 40
0
 40
0
 40
0
 40
1
 40
1
 40
1
 40
1
 10
42.077362
 20
58.740239
 30
0.0
 10
42.077362
 20
58.634981
 30
0.0
 10
42.035549
 20
58.534035
 30
0.0
 10
41.961120
 20
58.459606
 30
0.0
  0
SPLINE
  5
29b
100
AcDbEntity
  8
Layer_1
 62
7
100
AcDbSpline
 70
8
 71
3
 72
8
 73
4
 74
0
 40
0
 40
0
 40
0
 40
0
 40
1
 40
1
 40
1
 40
1
 10
41.961120
 20
58.459606
 30
0.0
 10
41.886692
 20
58.385178
 30
0.0
 10
41.785745
 20
58.343364
 30
0.0
 10
41.680487
 20
58.343364
 30
0.0
  0
SPLINE
  5
29c
100
AcDbEntity
  8
Layer_1
 62
7
100
AcDbSpline
 70
8
 71
3
 72
8
 73
4
 74
0
 40
0
 40
0
 40
0
 40
0
 40
1
 40
1
 40
1
 40
1
 10
41.680487
 20
58.343364
 30
0.0
 10
41.461299
 20
58.343364
 30
0.0
 10
41.283612
 20
58.521051
 30
0.0
 10
41.283612
 20
58.740239
 30
0.0
  0
SPLINE
  5
29d
100
AcDbEntity
  8
Layer_1
 62
7
100
AcDbSpline
 70
8
 71
3
 72
8
 73
4
 74
0
 40
0
 40
0
 40
0
 40
0
 40
1
 40
1
 40
1
 40
1
 10
41.283612
 20
58.740239
 30
0.0
 10
41.283612
 20
58.845497
 30
0.0
 10
41.325426
 20
58.946444
 30
0.0
 10
41.399854
 20
59.020872
 30
0.0
  0
SPLINE
  5
29e
100
AcDbEntity
  8
Layer_1
 62
7
100
AcDbSpline
 70
8
 71
3
 72
8
 73
4
 74
0
 40
0
 40
0
 40
0
 40
0
 40
1
 40
1
 40
1
 40
1
 10
41.399854
 20
59.020872
 30
0.0
 10
41.474283
 20
59.095301
 30
0.0
 10
41.575229
 20
59.137114
 30
0.0
 10
41.680487
 20
59.137114
 30
0.0
  0
SPLINE
  5
29f
100
AcDbEntity
  8
Layer_1
 62
7
100
AcDbSpline
 70
8
 71
3
 72
8
 73
4
 74
0
 40
0
 40
0
 40
0
 40
0
 40
1
 40
1
 40
1
 40
1
 10
41.680487
 20
59.137114
 30
0.0
 10
41.785745
 20
59.137114
 30
0.0
 10
41.886692
 20
59.095301
 30
0.0
 10
41.961120
 20
59.020872
 30
0.0
  0
SPLINE
  5
2a0
100
AcDbEntity
  8
Layer_1
 62
7
100
AcDbSpline
 70
8
 71
3
 72
8
 73
4
 74
0
 40
0
 40
0
 40
0
 40
0
 40
1
 40
1
 40
1
 40
1
 10
41.961120
 20
59.020872
 30
0.0
 10
42.035549
 20
58.946444
 30
0.0
 10
42.077362
 20
58.845497
 30
0.0
 10
42.077362
 20
58.740239
 30
0.0
  0
LWPOLYLINE
  5
2a1
100
AcDbEntity
  8
Layer_1
 62
7
100
AcDbPolyline
 90
1
 70
1
 10
38.869792
 20
58.740239
 30
0.0
  0
SPLINE
  5
2a2
100
AcDbEntity
  8
Layer_1
 62
7
100
AcDbSpline
 70
8
 71
3
 72
8
 73
4
 74
0
 40
0
 40
0
 40
0
 40
0
 40
1
 40
1
 40
1
 40
1
 10
45.284922
 20
58.740239
 30
0.0
 10
45.284922
 20
58.634981
 30
0.0
 10
45.243108
 20
58.534035
 30
0.0
 10
45.168680
 20
58.459606
 30
0.0
  0
SPLINE
  5
2a3
100
AcDbEntity
  8
Layer_1
 62
7
100
AcDbSpline
 70
8
 71
3
 72
8
 73
4
 74
0
 40
0
 40
0
 40
0
 40
0
 40
1
 40
1
 40
1
 40
1
 10
45.168680
 20
58.459606
 30
0.0
 10
45.094251
 20
58.385178
 30
0.0
 10
44.993305
 20
58.343364
 30
0.0
 10
44.888047
 20
58.343364
 30
0.0
  0
SPLINE
  5
2a4
100
AcDbEntity
  8
Layer_1
 62
7
100
AcDbSpline
 70
8
 71
3
 72
8
 73
4
 74
0
 40
0
 40
0
 40
0
 40
0
 40
1
 40
1
 40
1
 40
1
 10
44.888047
 20
58.343364
 30
0.0
 10
44.668859
 20
58.343364
 30
0.0
 10
44.491172
 20
58.521051
 30
0.0
 10
44.491172
 20
58.740239
 30
0.0
  0
SPLINE
  5
2a5
100
AcDbEntity
  8
Layer_1
 62
7
100
AcDbSpline
 70
8
 71
3
 72
8
 73
4
 74
0
 40
0
 40
0
 40
0
 40
0
 40
1
 40
1
 40
1
 40
1
 10
44.491172
 20
58.740239
 30
0.0
 10
44.491172
 20
58.845497
 30
0.0
 10
44.532985
 20
58.946444
 30
0.0
 10
44.607414
 20
59.020872
 30
0.0
  0
SPLINE
  5
2a6
100
AcDbEntity
  8
Layer_1
 62
7
100
AcDbSpline
 70
8
 71
3
 72
8
 73
4
 74
0
 40
0
 40
0
 40
0
 40
0
 40
1
 40
1
 40
1
 40
1
 10
44.607414
 20
59.020872
 30
0.0
 10
44.681842
 20
59.095301
 30
0.0
 10
44.782789
 20
59.137114
 30
0.0
 10
44.888047
 20
59.137114
 30
0.0
  0
SPLINE
  5
2a7
100
AcDbEntity
  8
Layer_1
 62
7
100
AcDbSpline
 70
8
 71
3
 72
8
 73
4
 74
0
 40
0
 40
0
 40
0
 40
0
 40
1
 40
1
 40
1
 40
1
 10
44.888047
 20
59.137114
 30
0.0
 10
44.993305
 20
59.137114
 30
0.0
 10
45.094251
 20
59.095301
 30
0.0
 10
45.168680
 20
59.020872
 30
0.0
  0
SPLINE
  5
2a8
100
AcDbEntity
  8
Layer_1
 62
7
100
AcDbSpline
 70
8
 71
3
 72
8
 73
4
 74
0
 40
0
 40
0
 40
0
 40
0
 40
1
 40
1
 40
1
 40
1
 10
45.168680
 20
59.020872
 30
0.0
 10
45.243108
 20
58.946444
 30
0.0
 10
45.284922
 20
58.845497
 30
0.0
 10
45.284922
 20
58.740239
 30
0.0
  0
LWPOLYLINE
  5
2a9
100
AcDbEntity
  8
Layer_1
 62
7
100
AcDbPolyline
 90
1
 70
1
 10
42.077362
 20
58.740239
 30
0.0
  0
SPLINE
  5
2aa
100
AcDbEntity
  8
Layer_1
 62
7
100
AcDbSpline
 70
8
 71
3
 72
8
 73
4
 74
0
 40
0
 40
0
 40
0
 40
0
 40
1
 40
1
 40
1
 40
1
 10
48.492495
 20
58.740239
 30
0.0
 10
48.492495
 20
58.634981
 30
0.0
 10
48.450681
 20
58.534035
 30
0.0
 10
48.376253
 20
58.459606
 30
0.0
  0
SPLINE
  5
2ab
100
AcDbEntity
  8
Layer_1
 62
7
100
AcDbSpline
 70
8
 71
3
 72
8
 73
4
 74
0
 40
0
 40
0
 40
0
 40
0
 40
1
 40
1
 40
1
 40
1
 10
48.376253
 20
58.459606
 30
0.0
 10
48.301824
 20
58.385178
 30
0.0
 10
48.200877
 20
58.343364
 30
0.0
 10
48.095620
 20
58.343364
 30
0.0
  0
SPLINE
  5
2ac
100
AcDbEntity
  8
Layer_1
 62
7
100
AcDbSpline
 70
8
 71
3
 72
8
 73
4
 74
0
 40
0
 40
0
 40
0
 40
0
 40
1
 40
1
 40
1
 40
1
 10
48.095620
 20
58.343364
 30
0.0
 10
47.990362
 20
58.343364
 30
0.0
 10
47.889415
 20
58.385178
 30
0.0
 10
47.814987
 20
58.459606
 30
0.0
  0
SPLINE
  5
2ad
100
AcDbEntity
  8
Layer_1
 62
7
100
AcDbSpline
 70
8
 71
3
 72
8
 73
4
 74
0
 40
0
 40
0
 40
0
 40
0
 40
1
 40
1
 40
1
 40
1
 10
47.814987
 20
58.459606
 30
0.0
 10
47.740558
 20
58.534035
 30
0.0
 10
47.698745
 20
58.634981
 30
0.0
 10
47.698745
 20
58.740239
 30
0.0
  0
SPLINE
  5
2ae
100
AcDbEntity
  8
Layer_1
 62
7
100
AcDbSpline
 70
8
 71
3
 72
8
 73
4
 74
0
 40
0
 40
0
 40
0
 40
0
 40
1
 40
1
 40
1
 40
1
 10
47.698745
 20
58.740239
 30
0.0
 10
47.698745
 20
58.845497
 30
0.0
 10
47.740558
 20
58.946444
 30
0.0
 10
47.814987
 20
59.020872
 30
0.0
  0
SPLINE
  5
2af
100
AcDbEntity
  8
Layer_1
 62
7
100
AcDbSpline
 70
8
 71
3
 72
8
 73
4
 74
0
 40
0
 40
0
 40
0
 40
0
 40
1
 40
1
 40
1
 40
1
 10
47.814987
 20
59.020872
 30
0.0
 10
47.889415
 20
59.095301
 30
0.0
 10
47.990362
 20
59.137114
 30
0.0
 10
48.095620
 20
59.137114
 30
0.0
  0
SPLINE
  5
2b0
100
AcDbEntity
  8
Layer_1
 62
7
100
AcDbSpline
 70
8
 71
3
 72
8
 73
4
 74
0
 40
0
 40
0
 40
0
 40
0
 40
1
 40
1
 40
1
 40
1
 10
48.095620
 20
59.137114
 30
0.0
 10
48.200877
 20
59.137114
 30
0.0
 10
48.301824
 20
59.095301
 30
0.0
 10
48.376253
 20
59.020872
 30
0.0
  0
SPLINE
  5
2b1
100
AcDbEntity
  8
Layer_1
 62
7
100
AcDbSpline
 70
8
 71
3
 72
8
 73
4
 74
0
 40
0
 40
0
 40
0
 40
0
 40
1
 40
1
 40
1
 40
1
 10
48.376253
 20
59.020872
 30
0.0
 10
48.450681
 20
58.946444
 30
0.0
 10
48.492495
 20
58.845497
 30
0.0
 10
48.492495
 20
58.740239
 30
0.0
  0
LWPOLYLINE
  5
2b2
100
AcDbEntity
  8
Layer_1
 62
7
100
AcDbPolyline
 90
1
 70
1
 10
45.284922
 20
58.740239
 30
0.0
  0
SPLINE
  5
2b3
100
AcDbEntity
  8
Layer_1
 62
7
100
AcDbSpline
 70
8
 71
3
 72
8
 73
4
 74
0
 40
0
 40
0
 40
0
 40
0
 40
1
 40
1
 40
1
 40
1
 10
51.700057
 20
58.740239
 30
0.0
 10
51.700057
 20
58.634981
 30
0.0
 10
51.658243
 20
58.534035
 30
0.0
 10
51.583815
 20
58.459606
 30
0.0
  0
SPLINE
  5
2b4
100
AcDbEntity
  8
Layer_1
 62
7
100
AcDbSpline
 70
8
 71
3
 72
8
 73
4
 74
0
 40
0
 40
0
 40
0
 40
0
 40
1
 40
1
 40
1
 40
1
 10
51.583815
 20
58.459606
 30
0.0
 10
51.509386
 20
58.385178
 30
0.0
 10
51.408440
 20
58.343364
 30
0.0
 10
51.303182
 20
58.343364
 30
0.0
  0
SPLINE
  5
2b5
100
AcDbEntity
  8
Layer_1
 62
7
100
AcDbSpline
 70
8
 71
3
 72
8
 73
4
 74
0
 40
0
 40
0
 40
0
 40
0
 40
1
 40
1
 40
1
 40
1
 10
51.303182
 20
58.343364
 30
0.0
 10
51.197924
 20
58.343364
 30
0.0
 10
51.096977
 20
58.385178
 30
0.0
 10
51.022549
 20
58.459606
 30
0.0
  0
SPLINE
  5
2b6
100
AcDbEntity
  8
Layer_1
 62
7
100
AcDbSpline
 70
8
 71
3
 72
8
 73
4
 74
0
 40
0
 40
0
 40
0
 40
0
 40
1
 40
1
 40
1
 40
1
 10
51.022549
 20
58.459606
 30
0.0
 10
50.948120
 20
58.534035
 30
0.0
 10
50.906307
 20
58.634981
 30
0.0
 10
50.906307
 20
58.740239
 30
0.0
  0
SPLINE
  5
2b7
100
AcDbEntity
  8
Layer_1
 62
7
100
AcDbSpline
 70
8
 71
3
 72
8
 73
4
 74
0
 40
0
 40
0
 40
0
 40
0
 40
1
 40
1
 40
1
 40
1
 10
50.906307
 20
58.740239
 30
0.0
 10
50.906307
 20
58.845497
 30
0.0
 10
50.948120
 20
58.946444
 30
0.0
 10
51.022549
 20
59.020872
 30
0.0
  0
SPLINE
  5
2b8
100
AcDbEntity
  8
Layer_1
 62
7
100
AcDbSpline
 70
8
 71
3
 72
8
 73
4
 74
0
 40
0
 40
0
 40
0
 40
0
 40
1
 40
1
 40
1
 40
1
 10
51.022549
 20
59.020872
 30
0.0
 10
51.096977
 20
59.095301
 30
0.0
 10
51.197924
 20
59.137114
 30
0.0
 10
51.303182
 20
59.137114
 30
0.0
  0
SPLINE
  5
2b9
100
AcDbEntity
  8
Layer_1
 62
7
100
AcDbSpline
 70
8
 71
3
 72
8
 73
4
 74
0
 40
0
 40
0
 40
0
 40
0
 40
1
 40
1
 40
1
 40
1
 10
51.303182
 20
59.137114
 30
0.0
 10
51.408440
 20
59.137114
 30
0.0
 10
51.509386
 20
59.095301
 30
0.0
 10
51.583815
 20
59.020872
 30
0.0
  0
SPLINE
  5
2ba
100
AcDbEntity
  8
Layer_1
 62
7
100
AcDbSpline
 70
8
 71
3
 72
8
 73
4
 74
0
 40
0
 40
0
 40
0
 40
0
 40
1
 40
1
 40
1
 40
1
 10
51.583815
 20
59.020872
 30
0.0
 10
51.658243
 20
58.946444
 30
0.0
 10
51.700057
 20
58.845497
 30
0.0
 10
51.700057
 20
58.740239
 30
0.0
  0
LWPOLYLINE
  5
2bb
100
AcDbEntity
  8
Layer_1
 62
7
100
AcDbPolyline
 90
1
 70
1
 10
48.492495
 20
58.740239
 30
0.0
  0
SPLINE
  5
2bc
100
AcDbEntity
  8
Layer_1
 62
7
100
AcDbSpline
 70
8
 71
3
 72
8
 73
4
 74
0
 40
0
 40
0
 40
0
 40
0
 40
1
 40
1
 40
1
 40
1
 10
22.831958
 20
58.740239
 30
0.0
 10
22.831958
 20
58.634981
 30
0.0
 10
22.790144
 20
58.534035
 30
0.0
 10
22.715716
 20
58.459606
 30
0.0
  0
SPLINE
  5
2bd
100
AcDbEntity
  8
Layer_1
 62
7
100
AcDbSpline
 70
8
 71
3
 72
8
 73
4
 74
0
 40
0
 40
0
 40
0
 40
0
 40
1
 40
1
 40
1
 40
1
 10
22.715716
 20
58.459606
 30
0.0
 10
22.641287
 20
58.385178
 30
0.0
 10
22.540341
 20
58.343364
 30
0.0
 10
22.435083
 20
58.343364
 30
0.0
  0
SPLINE
  5
2be
100
AcDbEntity
  8
Layer_1
 62
7
100
AcDbSpline
 70
8
 71
3
 72
8
 73
4
 74
0
 40
0
 40
0
 40
0
 40
0
 40
1
 40
1
 40
1
 40
1
 10
22.435083
 20
58.343364
 30
0.0
 10
22.329825
 20
58.343364
 30
0.0
 10
22.228878
 20
58.385178
 30
0.0
 10
22.154450
 20
58.459606
 30
0.0
  0
SPLINE
  5
2bf
100
AcDbEntity
  8
Layer_1
 62
7
100
AcDbSpline
 70
8
 71
3
 72
8
 73
4
 74
0
 40
0
 40
0
 40
0
 40
0
 40
1
 40
1
 40
1
 40
1
 10
22.154450
 20
58.459606
 30
0.0
 10
22.080021
 20
58.534035
 30
0.0
 10
22.038208
 20
58.634981
 30
0.0
 10
22.038208
 20
58.740239
 30
0.0
  0
SPLINE
  5
2c0
100
AcDbEntity
  8
Layer_1
 62
7
100
AcDbSpline
 70
8
 71
3
 72
8
 73
4
 74
0
 40
0
 40
0
 40
0
 40
0
 40
1
 40
1
 40
1
 40
1
 10
22.038208
 20
58.740239
 30
0.0
 10
22.038208
 20
58.845497
 30
0.0
 10
22.080021
 20
58.946444
 30
0.0
 10
22.154450
 20
59.020872
 30
0.0
  0
SPLINE
  5
2c1
100
AcDbEntity
  8
Layer_1
 62
7
100
AcDbSpline
 70
8
 71
3
 72
8
 73
4
 74
0
 40
0
 40
0
 40
0
 40
0
 40
1
 40
1
 40
1
 40
1
 10
22.154450
 20
59.020872
 30
0.0
 10
22.228878
 20
59.095301
 30
0.0
 10
22.329825
 20
59.137114
 30
0.0
 10
22.435083
 20
59.137114
 30
0.0
  0
SPLINE
  5
2c2
100
AcDbEntity
  8
Layer_1
 62
7
100
AcDbSpline
 70
8
 71
3
 72
8
 73
4
 74
0
 40
0
 40
0
 40
0
 40
0
 40
1
 40
1
 40
1
 40
1
 10
22.435083
 20
59.137114
 30
0.0
 10
22.540341
 20
59.137114
 30
0.0
 10
22.641287
 20
59.095301
 30
0.0
 10
22.715716
 20
59.020872
 30
0.0
  0
SPLINE
  5
2c3
100
AcDbEntity
  8
Layer_1
 62
7
100
AcDbSpline
 70
8
 71
3
 72
8
 73
4
 74
0
 40
0
 40
0
 40
0
 40
0
 40
1
 40
1
 40
1
 40
1
 10
22.715716
 20
59.020872
 30
0.0
 10
22.790144
 20
58.946444
 30
0.0
 10
22.831958
 20
58.845497
 30
0.0
 10
22.831958
 20
58.740239
 30
0.0
  0
LWPOLYLINE
  5
2c4
100
AcDbEntity
  8
Layer_1
 62
7
100
AcDbPolyline
 90
1
 70
1
 10
51.700057
 20
58.740239
 30
0.0
  0
SPLINE
  5
2c5
100
AcDbEntity
  8
Layer_1
 62
7
100
AcDbSpline
 70
8
 71
3
 72
8
 73
4
 74
0
 40
0
 40
0
 40
0
 40
0
 40
1
 40
1
 40
1
 40
1
 10
19.624390
 20
58.740239
 30
0.0
 10
19.624390
 20
58.634981
 30
0.0
 10
19.582576
 20
58.534035
 30
0.0
 10
19.508148
 20
58.459606
 30
0.0
  0
SPLINE
  5
2c6
100
AcDbEntity
  8
Layer_1
 62
7
100
AcDbSpline
 70
8
 71
3
 72
8
 73
4
 74
0
 40
0
 40
0
 40
0
 40
0
 40
1
 40
1
 40
1
 40
1
 10
19.508148
 20
58.459606
 30
0.0
 10
19.433719
 20
58.385178
 30
0.0
 10
19.332772
 20
58.343364
 30
0.0
 10
19.227515
 20
58.343364
 30
0.0
  0
SPLINE
  5
2c7
100
AcDbEntity
  8
Layer_1
 62
7
100
AcDbSpline
 70
8
 71
3
 72
8
 73
4
 74
0
 40
0
 40
0
 40
0
 40
0
 40
1
 40
1
 40
1
 40
1
 10
19.227515
 20
58.343364
 30
0.0
 10
19.122257
 20
58.343364
 30
0.0
 10
19.021310
 20
58.385178
 30
0.0
 10
18.946882
 20
58.459606
 30
0.0
  0
SPLINE
  5
2c8
100
AcDbEntity
  8
Layer_1
 62
7
100
AcDbSpline
 70
8
 71
3
 72
8
 73
4
 74
0
 40
0
 40
0
 40
0
 40
0
 40
1
 40
1
 40
1
 40
1
 10
18.946882
 20
58.459606
 30
0.0
 10
18.872453
 20
58.534035
 30
0.0
 10
18.830640
 20
58.634981
 30
0.0
 10
18.830640
 20
58.740239
 30
0.0
  0
SPLINE
  5
2c9
100
AcDbEntity
  8
Layer_1
 62
7
100
AcDbSpline
 70
8
 71
3
 72
8
 73
4
 74
0
 40
0
 40
0
 40
0
 40
0
 40
1
 40
1
 40
1
 40
1
 10
18.830640
 20
58.740239
 30
0.0
 10
18.830640
 20
58.845497
 30
0.0
 10
18.872453
 20
58.946444
 30
0.0
 10
18.946882
 20
59.020872
 30
0.0
  0
SPLINE
  5
2ca
100
AcDbEntity
  8
Layer_1
 62
7
100
AcDbSpline
 70
8
 71
3
 72
8
 73
4
 74
0
 40
0
 40
0
 40
0
 40
0
 40
1
 40
1
 40
1
 40
1
 10
18.946882
 20
59.020872
 30
0.0
 10
19.021310
 20
59.095301
 30
0.0
 10
19.122257
 20
59.137114
 30
0.0
 10
19.227515
 20
59.137114
 30
0.0
  0
SPLINE
  5
2cb
100
AcDbEntity
  8
Layer_1
 62
7
100
AcDbSpline
 70
8
 71
3
 72
8
 73
4
 74
0
 40
0
 40
0
 40
0
 40
0
 40
1
 40
1
 40
1
 40
1
 10
19.227515
 20
59.137114
 30
0.0
 10
19.332772
 20
59.137114
 30
0.0
 10
19.433719
 20
59.095301
 30
0.0
 10
19.508148
 20
59.020872
 30
0.0
  0
SPLINE
  5
2cc
100
AcDbEntity
  8
Layer_1
 62
7
100
AcDbSpline
 70
8
 71
3
 72
8
 73
4
 74
0
 40
0
 40
0
 40
0
 40
0
 40
1
 40
1
 40
1
 40
1
 10
19.508148
 20
59.020872
 30
0.0
 10
19.582576
 20
58.946444
 30
0.0
 10
19.624390
 20
58.845497
 30
0.0
 10
19.624390
 20
58.740239
 30
0.0
  0
LWPOLYLINE
  5
2cd
100
AcDbEntity
  8
Layer_1
 62
7
100
AcDbPolyline
 90
1
 70
1
 10
22.831958
 20
58.740239
 30
0.0
  0
SPLINE
  5
2ce
100
AcDbEntity
  8
Layer_1
 62
7
100
AcDbSpline
 70
8
 71
3
 72
8
 73
4
 74
0
 40
0
 40
0
 40
0
 40
0
 40
1
 40
1
 40
1
 40
1
 10
13.209256
 20
58.740239
 30
0.0
 10
13.209256
 20
58.634981
 30
0.0
 10
13.167442
 20
58.534035
 30
0.0
 10
13.093014
 20
58.459606
 30
0.0
  0
SPLINE
  5
2cf
100
AcDbEntity
  8
Layer_1
 62
7
100
AcDbSpline
 70
8
 71
3
 72
8
 73
4
 74
0
 40
0
 40
0
 40
0
 40
0
 40
1
 40
1
 40
1
 40
1
 10
13.093014
 20
58.459606
 30
0.0
 10
13.018585
 20
58.385178
 30
0.0
 10
12.917639
 20
58.343364
 30
0.0
 10
12.812381
 20
58.343364
 30
0.0
  0
SPLINE
  5
2d0
100
AcDbEntity
  8
Layer_1
 62
7
100
AcDbSpline
 70
8
 71
3
 72
8
 73
4
 74
0
 40
0
 40
0
 40
0
 40
0
 40
1
 40
1
 40
1
 40
1
 10
12.812381
 20
58.343364
 30
0.0
 10
12.707123
 20
58.343364
 30
0.0
 10
12.606176
 20
58.385178
 30
0.0
 10
12.531748
 20
58.459606
 30
0.0
  0
SPLINE
  5
2d1
100
AcDbEntity
  8
Layer_1
 62
7
100
AcDbSpline
 70
8
 71
3
 72
8
 73
4
 74
0
 40
0
 40
0
 40
0
 40
0
 40
1
 40
1
 40
1
 40
1
 10
12.531748
 20
58.459606
 30
0.0
 10
12.457319
 20
58.534035
 30
0.0
 10
12.415506
 20
58.634981
 30
0.0
 10
12.415506
 20
58.740239
 30
0.0
  0
SPLINE
  5
2d2
100
AcDbEntity
  8
Layer_1
 62
7
100
AcDbSpline
 70
8
 71
3
 72
8
 73
4
 74
0
 40
0
 40
0
 40
0
 40
0
 40
1
 40
1
 40
1
 40
1
 10
12.415506
 20
58.740239
 30
0.0
 10
12.415506
 20
58.845497
 30
0.0
 10
12.457319
 20
58.946444
 30
0.0
 10
12.531748
 20
59.020872
 30
0.0
  0
SPLINE
  5
2d3
100
AcDbEntity
  8
Layer_1
 62
7
100
AcDbSpline
 70
8
 71
3
 72
8
 73
4
 74
0
 40
0
 40
0
 40
0
 40
0
 40
1
 40
1
 40
1
 40
1
 10
12.531748
 20
59.020872
 30
0.0
 10
12.606176
 20
59.095301
 30
0.0
 10
12.707123
 20
59.137114
 30
0.0
 10
12.812381
 20
59.137114
 30
0.0
  0
SPLINE
  5
2d4
100
AcDbEntity
  8
Layer_1
 62
7
100
AcDbSpline
 70
8
 71
3
 72
8
 73
4
 74
0
 40
0
 40
0
 40
0
 40
0
 40
1
 40
1
 40
1
 40
1
 10
12.812381
 20
59.137114
 30
0.0
 10
12.917639
 20
59.137114
 30
0.0
 10
13.018585
 20
59.095301
 30
0.0
 10
13.093014
 20
59.020872
 30
0.0
  0
SPLINE
  5
2d5
100
AcDbEntity
  8
Layer_1
 62
7
100
AcDbSpline
 70
8
 71
3
 72
8
 73
4
 74
0
 40
0
 40
0
 40
0
 40
0
 40
1
 40
1
 40
1
 40
1
 10
13.093014
 20
59.020872
 30
0.0
 10
13.167442
 20
58.946444
 30
0.0
 10
13.209256
 20
58.845497
 30
0.0
 10
13.209256
 20
58.740239
 30
0.0
  0
LWPOLYLINE
  5
2d6
100
AcDbEntity
  8
Layer_1
 62
7
100
AcDbPolyline
 90
1
 70
1
 10
19.624390
 20
58.740239
 30
0.0
  0
SPLINE
  5
2d7
100
AcDbEntity
  8
Layer_1
 62
7
100
AcDbSpline
 70
8
 71
3
 72
8
 73
4
 74
0
 40
0
 40
0
 40
0
 40
0
 40
1
 40
1
 40
1
 40
1
 10
6.794123
 20
55.907781
 30
0.0
 10
6.794123
 20
55.802523
 30
0.0
 10
6.752309
 20
55.701577
 30
0.0
 10
6.677881
 20
55.627148
 30
0.0
  0
SPLINE
  5
2d8
100
AcDbEntity
  8
Layer_1
 62
7
100
AcDbSpline
 70
8
 71
3
 72
8
 73
4
 74
0
 40
0
 40
0
 40
0
 40
0
 40
1
 40
1
 40
1
 40
1
 10
6.677881
 20
55.627148
 30
0.0
 10
6.603452
 20
55.552720
 30
0.0
 10
6.502505
 20
55.510906
 30
0.0
 10
6.397248
 20
55.510906
 30
0.0
  0
SPLINE
  5
2d9
100
AcDbEntity
  8
Layer_1
 62
7
100
AcDbSpline
 70
8
 71
3
 72
8
 73
4
 74
0
 40
0
 40
0
 40
0
 40
0
 40
1
 40
1
 40
1
 40
1
 10
6.397248
 20
55.510906
 30
0.0
 10
6.178060
 20
55.510906
 30
0.0
 10
6.000373
 20
55.688593
 30
0.0
 10
6.000373
 20
55.907781
 30
0.0
  0
SPLINE
  5
2da
100
AcDbEntity
  8
Layer_1
 62
7
100
AcDbSpline
 70
8
 71
3
 72
8
 73
4
 74
0
 40
0
 40
0
 40
0
 40
0
 40
1
 40
1
 40
1
 40
1
 10
6.000373
 20
55.907781
 30
0.0
 10
6.000373
 20
56.013039
 30
0.0
 10
6.042186
 20
56.113986
 30
0.0
 10
6.116615
 20
56.188414
 30
0.0
  0
SPLINE
  5
2db
100
AcDbEntity
  8
Layer_1
 62
7
100
AcDbSpline
 70
8
 71
3
 72
8
 73
4
 74
0
 40
0
 40
0
 40
0
 40
0
 40
1
 40
1
 40
1
 40
1
 10
6.116615
 20
56.188414
 30
0.0
 10
6.191043
 20
56.262843
 30
0.0
 10
6.291990
 20
56.304656
 30
0.0
 10
6.397248
 20
56.304656
 30
0.0
  0
SPLINE
  5
2dc
100
AcDbEntity
  8
Layer_1
 62
7
100
AcDbSpline
 70
8
 71
3
 72
8
 73
4
 74
0
 40
0
 40
0
 40
0
 40
0
 40
1
 40
1
 40
1
 40
1
 10
6.397248
 20
56.304656
 30
0.0
 10
6.502505
 20
56.304656
 30
0.0
 10
6.603452
 20
56.262843
 30
0.0
 10
6.677881
 20
56.188414
 30
0.0
  0
SPLINE
  5
2dd
100
AcDbEntity
  8
Layer_1
 62
7
100
AcDbSpline
 70
8
 71
3
 72
8
 73
4
 74
0
 40
0
 40
0
 40
0
 40
0
 40
1
 40
1
 40
1
 40
1
 10
6.677881
 20
56.188414
 30
0.0
 10
6.752309
 20
56.113986
 30
0.0
 10
6.794123
 20
56.013039
 30
0.0
 10
6.794123
 20
55.907781
 30
0.0
  0
LWPOLYLINE
  5
2de
100
AcDbEntity
  8
Layer_1
 62
7
100
AcDbPolyline
 90
1
 70
1
 10
13.209256
 20
58.740239
 30
0.0
  0
SPLINE
  5
2df
100
AcDbEntity
  8
Layer_1
 62
7
100
AcDbSpline
 70
8
 71
3
 72
8
 73
4
 74
0
 40
0
 40
0
 40
0
 40
0
 40
1
 40
1
 40
1
 40
1
 10
10.001688
 20
55.907781
 30
0.0
 10
10.001688
 20
55.802523
 30
0.0
 10
9.959874
 20
55.701577
 30
0.0
 10
9.885446
 20
55.627148
 30
0.0
  0
SPLINE
  5
2e0
100
AcDbEntity
  8
Layer_1
 62
7
100
AcDbSpline
 70
8
 71
3
 72
8
 73
4
 74
0
 40
0
 40
0
 40
0
 40
0
 40
1
 40
1
 40
1
 40
1
 10
9.885446
 20
55.627148
 30
0.0
 10
9.811017
 20
55.552720
 30
0.0
 10
9.710071
 20
55.510906
 30
0.0
 10
9.604813
 20
55.510906
 30
0.0
  0
SPLINE
  5
2e1
100
AcDbEntity
  8
Layer_1
 62
7
100
AcDbSpline
 70
8
 71
3
 72
8
 73
4
 74
0
 40
0
 40
0
 40
0
 40
0
 40
1
 40
1
 40
1
 40
1
 10
9.604813
 20
55.510906
 30
0.0
 10
9.499555
 20
55.510906
 30
0.0
 10
9.398608
 20
55.552720
 30
0.0
 10
9.324180
 20
55.627148
 30
0.0
  0
SPLINE
  5
2e2
100
AcDbEntity
  8
Layer_1
 62
7
100
AcDbSpline
 70
8
 71
3
 72
8
 73
4
 74
0
 40
0
 40
0
 40
0
 40
0
 40
1
 40
1
 40
1
 40
1
 10
9.324180
 20
55.627148
 30
0.0
 10
9.249751
 20
55.701577
 30
0.0
 10
9.207938
 20
55.802523
 30
0.0
 10
9.207938
 20
55.907781
 30
0.0
  0
SPLINE
  5
2e3
100
AcDbEntity
  8
Layer_1
 62
7
100
AcDbSpline
 70
8
 71
3
 72
8
 73
4
 74
0
 40
0
 40
0
 40
0
 40
0
 40
1
 40
1
 40
1
 40
1
 10
9.207938
 20
55.907781
 30
0.0
 10
9.207938
 20
56.013039
 30
0.0
 10
9.249751
 20
56.113986
 30
0.0
 10
9.324180
 20
56.188414
 30
0.0
  0
SPLINE
  5
2e4
100
AcDbEntity
  8
Layer_1
 62
7
100
AcDbSpline
 70
8
 71
3
 72
8
 73
4
 74
0
 40
0
 40
0
 40
0
 40
0
 40
1
 40
1
 40
1
 40
1
 10
9.324180
 20
56.188414
 30
0.0
 10
9.398608
 20
56.262843
 30
0.0
 10
9.499555
 20
56.304656
 30
0.0
 10
9.604813
 20
56.304656
 30
0.0
  0
SPLINE
  5
2e5
100
AcDbEntity
  8
Layer_1
 62
7
100
AcDbSpline
 70
8
 71
3
 72
8
 73
4
 74
0
 40
0
 40
0
 40
0
 40
0
 40
1
 40
1
 40
1
 40
1
 10
9.604813
 20
56.304656
 30
0.0
 10
9.710071
 20
56.304656
 30
0.0
 10
9.811017
 20
56.262843
 30
0.0
 10
9.885446
 20
56.188414
 30
0.0
  0
SPLINE
  5
2e6
100
AcDbEntity
  8
Layer_1
 62
7
100
AcDbSpline
 70
8
 71
3
 72
8
 73
4
 74
0
 40
0
 40
0
 40
0
 40
0
 40
1
 40
1
 40
1
 40
1
 10
9.885446
 20
56.188414
 30
0.0
 10
9.959874
 20
56.113986
 30
0.0
 10
10.001688
 20
56.013039
 30
0.0
 10
10.001688
 20
55.907781
 30
0.0
  0
LWPOLYLINE
  5
2e7
100
AcDbEntity
  8
Layer_1
 62
7
100
AcDbPolyline
 90
1
 70
1
 10
6.794123
 20
55.907781
 30
0.0
  0
SPLINE
  5
2e8
100
AcDbEntity
  8
Layer_1
 62
7
100
AcDbSpline
 70
8
 71
3
 72
8
 73
4
 74
0
 40
0
 40
0
 40
0
 40
0
 40
1
 40
1
 40
1
 40
1
 10
16.416822
 20
55.907781
 30
0.0
 10
16.416822
 20
55.802523
 30
0.0
 10
16.375009
 20
55.701577
 30
0.0
 10
16.300580
 20
55.627148
 30
0.0
  0
SPLINE
  5
2e9
100
AcDbEntity
  8
Layer_1
 62
7
100
AcDbSpline
 70
8
 71
3
 72
8
 73
4
 74
0
 40
0
 40
0
 40
0
 40
0
 40
1
 40
1
 40
1
 40
1
 10
16.300580
 20
55.627148
 30
0.0
 10
16.226152
 20
55.552720
 30
0.0
 10
16.125205
 20
55.510906
 30
0.0
 10
16.019947
 20
55.510906
 30
0.0
  0
SPLINE
  5
2ea
100
AcDbEntity
  8
Layer_1
 62
7
100
AcDbSpline
 70
8
 71
3
 72
8
 73
4
 74
0
 40
0
 40
0
 40
0
 40
0
 40
1
 40
1
 40
1
 40
1
 10
16.019947
 20
55.510906
 30
0.0
 10
15.914689
 20
55.510906
 30
0.0
 10
15.813743
 20
55.552720
 30
0.0
 10
15.739314
 20
55.627148
 30
0.0
  0
SPLINE
  5
2eb
100
AcDbEntity
  8
Layer_1
 62
7
100
AcDbSpline
 70
8
 71
3
 72
8
 73
4
 74
0
 40
0
 40
0
 40
0
 40
0
 40
1
 40
1
 40
1
 40
1
 10
15.739314
 20
55.627148
 30
0.0
 10
15.664886
 20
55.701577
 30
0.0
 10
15.623072
 20
55.802523
 30
0.0
 10
15.623072
 20
55.907781
 30
0.0
  0
SPLINE
  5
2ec
100
AcDbEntity
  8
Layer_1
 62
7
100
AcDbSpline
 70
8
 71
3
 72
8
 73
4
 74
0
 40
0
 40
0
 40
0
 40
0
 40
1
 40
1
 40
1
 40
1
 10
15.623072
 20
55.907781
 30
0.0
 10
15.623072
 20
56.013039
 30
0.0
 10
15.664886
 20
56.113986
 30
0.0
 10
15.739314
 20
56.188414
 30
0.0
  0
SPLINE
  5
2ed
100
AcDbEntity
  8
Layer_1
 62
7
100
AcDbSpline
 70
8
 71
3
 72
8
 73
4
 74
0
 40
0
 40
0
 40
0
 40
0
 40
1
 40
1
 40
1
 40
1
 10
15.739314
 20
56.188414
 30
0.0
 10
15.813743
 20
56.262843
 30
0.0
 10
15.914689
 20
56.304656
 30
0.0
 10
16.019947
 20
56.304656
 30
0.0
  0
SPLINE
  5
2ee
100
AcDbEntity
  8
Layer_1
 62
7
100
AcDbSpline
 70
8
 71
3
 72
8
 73
4
 74
0
 40
0
 40
0
 40
0
 40
0
 40
1
 40
1
 40
1
 40
1
 10
16.019947
 20
56.304656
 30
0.0
 10
16.125205
 20
56.304656
 30
0.0
 10
16.226152
 20
56.262843
 30
0.0
 10
16.300580
 20
56.188414
 30
0.0
  0
SPLINE
  5
2ef
100
AcDbEntity
  8
Layer_1
 62
7
100
AcDbSpline
 70
8
 71
3
 72
8
 73
4
 74
0
 40
0
 40
0
 40
0
 40
0
 40
1
 40
1
 40
1
 40
1
 10
16.300580
 20
56.188414
 30
0.0
 10
16.375009
 20
56.113986
 30
0.0
 10
16.416822
 20
56.013039
 30
0.0
 10
16.416822
 20
55.907781
 30
0.0
  0
LWPOLYLINE
  5
2f0
100
AcDbEntity
  8
Layer_1
 62
7
100
AcDbPolyline
 90
1
 70
1
 10
10.001688
 20
55.907781
 30
0.0
  0
SPLINE
  5
2f1
100
AcDbEntity
  8
Layer_1
 62
7
100
AcDbSpline
 70
8
 71
3
 72
8
 73
4
 74
0
 40
0
 40
0
 40
0
 40
0
 40
1
 40
1
 40
1
 40
1
 10
29.247089
 20
55.907781
 30
0.0
 10
29.247089
 20
55.802523
 30
0.0
 10
29.205276
 20
55.701577
 30
0.0
 10
29.130847
 20
55.627148
 30
0.0
  0
SPLINE
  5
2f2
100
AcDbEntity
  8
Layer_1
 62
7
100
AcDbSpline
 70
8
 71
3
 72
8
 73
4
 74
0
 40
0
 40
0
 40
0
 40
0
 40
1
 40
1
 40
1
 40
1
 10
29.130847
 20
55.627148
 30
0.0
 10
29.056419
 20
55.552720
 30
0.0
 10
28.955472
 20
55.510906
 30
0.0
 10
28.850214
 20
55.510906
 30
0.0
  0
SPLINE
  5
2f3
100
AcDbEntity
  8
Layer_1
 62
7
100
AcDbSpline
 70
8
 71
3
 72
8
 73
4
 74
0
 40
0
 40
0
 40
0
 40
0
 40
1
 40
1
 40
1
 40
1
 10
28.850214
 20
55.510906
 30
0.0
 10
28.744956
 20
55.510906
 30
0.0
 10
28.644010
 20
55.552720
 30
0.0
 10
28.569581
 20
55.627148
 30
0.0
  0
SPLINE
  5
2f4
100
AcDbEntity
  8
Layer_1
 62
7
100
AcDbSpline
 70
8
 71
3
 72
8
 73
4
 74
0
 40
0
 40
0
 40
0
 40
0
 40
1
 40
1
 40
1
 40
1
 10
28.569581
 20
55.627148
 30
0.0
 10
28.495153
 20
55.701577
 30
0.0
 10
28.453339
 20
55.802523
 30
0.0
 10
28.453339
 20
55.907781
 30
0.0
  0
SPLINE
  5
2f5
100
AcDbEntity
  8
Layer_1
 62
7
100
AcDbSpline
 70
8
 71
3
 72
8
 73
4
 74
0
 40
0
 40
0
 40
0
 40
0
 40
1
 40
1
 40
1
 40
1
 10
28.453339
 20
55.907781
 30
0.0
 10
28.453339
 20
56.013039
 30
0.0
 10
28.495153
 20
56.113986
 30
0.0
 10
28.569581
 20
56.188414
 30
0.0
  0
SPLINE
  5
2f6
100
AcDbEntity
  8
Layer_1
 62
7
100
AcDbSpline
 70
8
 71
3
 72
8
 73
4
 74
0
 40
0
 40
0
 40
0
 40
0
 40
1
 40
1
 40
1
 40
1
 10
28.569581
 20
56.188414
 30
0.0
 10
28.644010
 20
56.262843
 30
0.0
 10
28.744956
 20
56.304656
 30
0.0
 10
28.850214
 20
56.304656
 30
0.0
  0
SPLINE
  5
2f7
100
AcDbEntity
  8
Layer_1
 62
7
100
AcDbSpline
 70
8
 71
3
 72
8
 73
4
 74
0
 40
0
 40
0
 40
0
 40
0
 40
1
 40
1
 40
1
 40
1
 10
28.850214
 20
56.304656
 30
0.0
 10
28.955472
 20
56.304656
 30
0.0
 10
29.056419
 20
56.262843
 30
0.0
 10
29.130847
 20
56.188414
 30
0.0
  0
SPLINE
  5
2f8
100
AcDbEntity
  8
Layer_1
 62
7
100
AcDbSpline
 70
8
 71
3
 72
8
 73
4
 74
0
 40
0
 40
0
 40
0
 40
0
 40
1
 40
1
 40
1
 40
1
 10
29.130847
 20
56.188414
 30
0.0
 10
29.205276
 20
56.113986
 30
0.0
 10
29.247089
 20
56.013039
 30
0.0
 10
29.247089
 20
55.907781
 30
0.0
  0
LWPOLYLINE
  5
2f9
100
AcDbEntity
  8
Layer_1
 62
7
100
AcDbPolyline
 90
1
 70
1
 10
16.416822
 20
55.907781
 30
0.0
  0
SPLINE
  5
2fa
100
AcDbEntity
  8
Layer_1
 62
7
100
AcDbSpline
 70
8
 71
3
 72
8
 73
4
 74
0
 40
0
 40
0
 40
0
 40
0
 40
1
 40
1
 40
1
 40
1
 10
26.039524
 20
55.907781
 30
0.0
 10
26.039524
 20
55.802523
 30
0.0
 10
25.997711
 20
55.701577
 30
0.0
 10
25.923282
 20
55.627148
 30
0.0
  0
SPLINE
  5
2fb
100
AcDbEntity
  8
Layer_1
 62
7
100
AcDbSpline
 70
8
 71
3
 72
8
 73
4
 74
0
 40
0
 40
0
 40
0
 40
0
 40
1
 40
1
 40
1
 40
1
 10
25.923282
 20
55.627148
 30
0.0
 10
25.848854
 20
55.552720
 30
0.0
 10
25.747907
 20
55.510906
 30
0.0
 10
25.642649
 20
55.510906
 30
0.0
  0
SPLINE
  5
2fc
100
AcDbEntity
  8
Layer_1
 62
7
100
AcDbSpline
 70
8
 71
3
 72
8
 73
4
 74
0
 40
0
 40
0
 40
0
 40
0
 40
1
 40
1
 40
1
 40
1
 10
25.642649
 20
55.510906
 30
0.0
 10
25.537391
 20
55.510906
 30
0.0
 10
25.436445
 20
55.552720
 30
0.0
 10
25.362016
 20
55.627148
 30
0.0
  0
SPLINE
  5
2fd
100
AcDbEntity
  8
Layer_1
 62
7
100
AcDbSpline
 70
8
 71
3
 72
8
 73
4
 74
0
 40
0
 40
0
 40
0
 40
0
 40
1
 40
1
 40
1
 40
1
 10
25.362016
 20
55.627148
 30
0.0
 10
25.287588
 20
55.701577
 30
0.0
 10
25.245774
 20
55.802523
 30
0.0
 10
25.245774
 20
55.907781
 30
0.0
  0
SPLINE
  5
2fe
100
AcDbEntity
  8
Layer_1
 62
7
100
AcDbSpline
 70
8
 71
3
 72
8
 73
4
 74
0
 40
0
 40
0
 40
0
 40
0
 40
1
 40
1
 40
1
 40
1
 10
25.245774
 20
55.907781
 30
0.0
 10
25.245774
 20
56.013039
 30
0.0
 10
25.287588
 20
56.113986
 30
0.0
 10
25.362016
 20
56.188414
 30
0.0
  0
SPLINE
  5
2ff
100
AcDbEntity
  8
Layer_1
 62
7
100
AcDbSpline
 70
8
 71
3
 72
8
 73
4
 74
0
 40
0
 40
0
 40
0
 40
0
 40
1
 40
1
 40
1
 40
1
 10
25.362016
 20
56.188414
 30
0.0
 10
25.436445
 20
56.262843
 30
0.0
 10
25.537391
 20
56.304656
 30
0.0
 10
25.642649
 20
56.304656
 30
0.0
  0
SPLINE
  5
300
100
AcDbEntity
  8
Layer_1
 62
7
100
AcDbSpline
 70
8
 71
3
 72
8
 73
4
 74
0
 40
0
 40
0
 40
0
 40
0
 40
1
 40
1
 40
1
 40
1
 10
25.642649
 20
56.304656
 30
0.0
 10
25.747907
 20
56.304656
 30
0.0
 10
25.848854
 20
56.262843
 30
0.0
 10
25.923282
 20
56.188414
 30
0.0
  0
SPLINE
  5
301
100
AcDbEntity
  8
Layer_1
 62
7
100
AcDbSpline
 70
8
 71
3
 72
8
 73
4
 74
0
 40
0
 40
0
 40
0
 40
0
 40
1
 40
1
 40
1
 40
1
 10
25.923282
 20
56.188414
 30
0.0
 10
25.997711
 20
56.113986
 30
0.0
 10
26.039524
 20
56.013039
 30
0.0
 10
26.039524
 20
55.907781
 30
0.0
  0
LWPOLYLINE
  5
302
100
AcDbEntity
  8
Layer_1
 62
7
100
AcDbPolyline
 90
1
 70
1
 10
29.247089
 20
55.907781
 30
0.0
  0
SPLINE
  5
303
100
AcDbEntity
  8
Layer_1
 62
7
100
AcDbSpline
 70
8
 71
3
 72
8
 73
4
 74
0
 40
0
 40
0
 40
0
 40
0
 40
1
 40
1
 40
1
 40
1
 10
32.454659
 20
55.907781
 30
0.0
 10
32.454659
 20
55.802523
 30
0.0
 10
32.412846
 20
55.701577
 30
0.0
 10
32.338418
 20
55.627148
 30
0.0
  0
SPLINE
  5
304
100
AcDbEntity
  8
Layer_1
 62
7
100
AcDbSpline
 70
8
 71
3
 72
8
 73
4
 74
0
 40
0
 40
0
 40
0
 40
0
 40
1
 40
1
 40
1
 40
1
 10
32.338418
 20
55.627148
 30
0.0
 10
32.263989
 20
55.552720
 30
0.0
 10
32.163042
 20
55.510906
 30
0.0
 10
32.057785
 20
55.510906
 30
0.0
  0
SPLINE
  5
305
100
AcDbEntity
  8
Layer_1
 62
7
100
AcDbSpline
 70
8
 71
3
 72
8
 73
4
 74
0
 40
0
 40
0
 40
0
 40
0
 40
1
 40
1
 40
1
 40
1
 10
32.057785
 20
55.510906
 30
0.0
 10
31.952527
 20
55.510906
 30
0.0
 10
31.851580
 20
55.552720
 30
0.0
 10
31.777151
 20
55.627148
 30
0.0
  0
SPLINE
  5
306
100
AcDbEntity
  8
Layer_1
 62
7
100
AcDbSpline
 70
8
 71
3
 72
8
 73
4
 74
0
 40
0
 40
0
 40
0
 40
0
 40
1
 40
1
 40
1
 40
1
 10
31.777151
 20
55.627148
 30
0.0
 10
31.702723
 20
55.701577
 30
0.0
 10
31.660909
 20
55.802523
 30
0.0
 10
31.660909
 20
55.907781
 30
0.0
  0
SPLINE
  5
307
100
AcDbEntity
  8
Layer_1
 62
7
100
AcDbSpline
 70
8
 71
3
 72
8
 73
4
 74
0
 40
0
 40
0
 40
0
 40
0
 40
1
 40
1
 40
1
 40
1
 10
31.660909
 20
55.907781
 30
0.0
 10
31.660909
 20
56.013039
 30
0.0
 10
31.702723
 20
56.113986
 30
0.0
 10
31.777151
 20
56.188414
 30
0.0
  0
SPLINE
  5
308
100
AcDbEntity
  8
Layer_1
 62
7
100
AcDbSpline
 70
8
 71
3
 72
8
 73
4
 74
0
 40
0
 40
0
 40
0
 40
0
 40
1
 40
1
 40
1
 40
1
 10
31.777151
 20
56.188414
 30
0.0
 10
31.851580
 20
56.262843
 30
0.0
 10
31.952527
 20
56.304656
 30
0.0
 10
32.057785
 20
56.304656
 30
0.0
  0
SPLINE
  5
309
100
AcDbEntity
  8
Layer_1
 62
7
100
AcDbSpline
 70
8
 71
3
 72
8
 73
4
 74
0
 40
0
 40
0
 40
0
 40
0
 40
1
 40
1
 40
1
 40
1
 10
32.057785
 20
56.304656
 30
0.0
 10
32.163042
 20
56.304656
 30
0.0
 10
32.263989
 20
56.262843
 30
0.0
 10
32.338418
 20
56.188414
 30
0.0
  0
SPLINE
  5
30a
100
AcDbEntity
  8
Layer_1
 62
7
100
AcDbSpline
 70
8
 71
3
 72
8
 73
4
 74
0
 40
0
 40
0
 40
0
 40
0
 40
1
 40
1
 40
1
 40
1
 10
32.338418
 20
56.188414
 30
0.0
 10
32.412846
 20
56.113986
 30
0.0
 10
32.454659
 20
56.013039
 30
0.0
 10
32.454659
 20
55.907781
 30
0.0
  0
LWPOLYLINE
  5
30b
100
AcDbEntity
  8
Layer_1
 62
7
100
AcDbPolyline
 90
1
 70
1
 10
26.039524
 20
55.907781
 30
0.0
  0
SPLINE
  5
30c
100
AcDbEntity
  8
Layer_1
 62
7
100
AcDbSpline
 70
8
 71
3
 72
8
 73
4
 74
0
 40
0
 40
0
 40
0
 40
0
 40
1
 40
1
 40
1
 40
1
 10
35.662222
 20
55.907781
 30
0.0
 10
35.662222
 20
55.802523
 30
0.0
 10
35.620408
 20
55.701577
 30
0.0
 10
35.545980
 20
55.627148
 30
0.0
  0
SPLINE
  5
30d
100
AcDbEntity
  8
Layer_1
 62
7
100
AcDbSpline
 70
8
 71
3
 72
8
 73
4
 74
0
 40
0
 40
0
 40
0
 40
0
 40
1
 40
1
 40
1
 40
1
 10
35.545980
 20
55.627148
 30
0.0
 10
35.471551
 20
55.552720
 30
0.0
 10
35.370605
 20
55.510906
 30
0.0
 10
35.265347
 20
55.510906
 30
0.0
  0
SPLINE
  5
30e
100
AcDbEntity
  8
Layer_1
 62
7
100
AcDbSpline
 70
8
 71
3
 72
8
 73
4
 74
0
 40
0
 40
0
 40
0
 40
0
 40
1
 40
1
 40
1
 40
1
 10
35.265347
 20
55.510906
 30
0.0
 10
35.046159
 20
55.510906
 30
0.0
 10
34.868472
 20
55.688593
 30
0.0
 10
34.868472
 20
55.907781
 30
0.0
  0
SPLINE
  5
30f
100
AcDbEntity
  8
Layer_1
 62
7
100
AcDbSpline
 70
8
 71
3
 72
8
 73
4
 74
0
 40
0
 40
0
 40
0
 40
0
 40
1
 40
1
 40
1
 40
1
 10
34.868472
 20
55.907781
 30
0.0
 10
34.868472
 20
56.013039
 30
0.0
 10
34.910285
 20
56.113986
 30
0.0
 10
34.984714
 20
56.188414
 30
0.0
  0
SPLINE
  5
310
100
AcDbEntity
  8
Layer_1
 62
7
100
AcDbSpline
 70
8
 71
3
 72
8
 73
4
 74
0
 40
0
 40
0
 40
0
 40
0
 40
1
 40
1
 40
1
 40
1
 10
34.984714
 20
56.188414
 30
0.0
 10
35.059142
 20
56.262843
 30
0.0
 10
35.160089
 20
56.304656
 30
0.0
 10
35.265347
 20
56.304656
 30
0.0
  0
SPLINE
  5
311
100
AcDbEntity
  8
Layer_1
 62
7
100
AcDbSpline
 70
8
 71
3
 72
8
 73
4
 74
0
 40
0
 40
0
 40
0
 40
0
 40
1
 40
1
 40
1
 40
1
 10
35.265347
 20
56.304656
 30
0.0
 10
35.370605
 20
56.304656
 30
0.0
 10
35.471551
 20
56.262843
 30
0.0
 10
35.545980
 20
56.188414
 30
0.0
  0
SPLINE
  5
312
100
AcDbEntity
  8
Layer_1
 62
7
100
AcDbSpline
 70
8
 71
3
 72
8
 73
4
 74
0
 40
0
 40
0
 40
0
 40
0
 40
1
 40
1
 40
1
 40
1
 10
35.545980
 20
56.188414
 30
0.0
 10
35.620408
 20
56.113986
 30
0.0
 10
35.662222
 20
56.013039
 30
0.0
 10
35.662222
 20
55.907781
 30
0.0
  0
LWPOLYLINE
  5
313
100
AcDbEntity
  8
Layer_1
 62
7
100
AcDbPolyline
 90
1
 70
1
 10
32.454659
 20
55.907781
 30
0.0
  0
SPLINE
  5
314
100
AcDbEntity
  8
Layer_1
 62
7
100
AcDbSpline
 70
8
 71
3
 72
8
 73
4
 74
0
 40
0
 40
0
 40
0
 40
0
 40
1
 40
1
 40
1
 40
1
 10
38.869792
 20
55.907781
 30
0.0
 10
38.869792
 20
55.802523
 30
0.0
 10
38.827978
 20
55.701577
 30
0.0
 10
38.753550
 20
55.627148
 30
0.0
  0
SPLINE
  5
315
100
AcDbEntity
  8
Layer_1
 62
7
100
AcDbSpline
 70
8
 71
3
 72
8
 73
4
 74
0
 40
0
 40
0
 40
0
 40
0
 40
1
 40
1
 40
1
 40
1
 10
38.753550
 20
55.627148
 30
0.0
 10
38.679121
 20
55.552720
 30
0.0
 10
38.578175
 20
55.510906
 30
0.0
 10
38.472917
 20
55.510906
 30
0.0
  0
SPLINE
  5
316
100
AcDbEntity
  8
Layer_1
 62
7
100
AcDbSpline
 70
8
 71
3
 72
8
 73
4
 74
0
 40
0
 40
0
 40
0
 40
0
 40
1
 40
1
 40
1
 40
1
 10
38.472917
 20
55.510906
 30
0.0
 10
38.367659
 20
55.510906
 30
0.0
 10
38.266712
 20
55.552720
 30
0.0
 10
38.192284
 20
55.627148
 30
0.0
  0
SPLINE
  5
317
100
AcDbEntity
  8
Layer_1
 62
7
100
AcDbSpline
 70
8
 71
3
 72
8
 73
4
 74
0
 40
0
 40
0
 40
0
 40
0
 40
1
 40
1
 40
1
 40
1
 10
38.192284
 20
55.627148
 30
0.0
 10
38.117855
 20
55.701577
 30
0.0
 10
38.076042
 20
55.802523
 30
0.0
 10
38.076042
 20
55.907781
 30
0.0
  0
SPLINE
  5
318
100
AcDbEntity
  8
Layer_1
 62
7
100
AcDbSpline
 70
8
 71
3
 72
8
 73
4
 74
0
 40
0
 40
0
 40
0
 40
0
 40
1
 40
1
 40
1
 40
1
 10
38.076042
 20
55.907781
 30
0.0
 10
38.076042
 20
56.013039
 30
0.0
 10
38.117855
 20
56.113986
 30
0.0
 10
38.192284
 20
56.188414
 30
0.0
  0
SPLINE
  5
319
100
AcDbEntity
  8
Layer_1
 62
7
100
AcDbSpline
 70
8
 71
3
 72
8
 73
4
 74
0
 40
0
 40
0
 40
0
 40
0
 40
1
 40
1
 40
1
 40
1
 10
38.192284
 20
56.188414
 30
0.0
 10
38.266712
 20
56.262843
 30
0.0
 10
38.367659
 20
56.304656
 30
0.0
 10
38.472917
 20
56.304656
 30
0.0
  0
SPLINE
  5
31a
100
AcDbEntity
  8
Layer_1
 62
7
100
AcDbSpline
 70
8
 71
3
 72
8
 73
4
 74
0
 40
0
 40
0
 40
0
 40
0
 40
1
 40
1
 40
1
 40
1
 10
38.472917
 20
56.304656
 30
0.0
 10
38.578175
 20
56.304656
 30
0.0
 10
38.679121
 20
56.262843
 30
0.0
 10
38.753550
 20
56.188414
 30
0.0
  0
SPLINE
  5
31b
100
AcDbEntity
  8
Layer_1
 62
7
100
AcDbSpline
 70
8
 71
3
 72
8
 73
4
 74
0
 40
0
 40
0
 40
0
 40
0
 40
1
 40
1
 40
1
 40
1
 10
38.753550
 20
56.188414
 30
0.0
 10
38.827978
 20
56.113986
 30
0.0
 10
38.869792
 20
56.013039
 30
0.0
 10
38.869792
 20
55.907781
 30
0.0
  0
LWPOLYLINE
  5
31c
100
AcDbEntity
  8
Layer_1
 62
7
100
AcDbPolyline
 90
1
 70
1
 10
35.662222
 20
55.907781
 30
0.0
  0
SPLINE
  5
31d
100
AcDbEntity
  8
Layer_1
 62
7
100
AcDbSpline
 70
8
 71
3
 72
8
 73
4
 74
0
 40
0
 40
0
 40
0
 40
0
 40
1
 40
1
 40
1
 40
1
 10
42.077362
 20
55.907781
 30
0.0
 10
42.077362
 20
55.802523
 30
0.0
 10
42.035549
 20
55.701577
 30
0.0
 10
41.961120
 20
55.627148
 30
0.0
  0
SPLINE
  5
31e
100
AcDbEntity
  8
Layer_1
 62
7
100
AcDbSpline
 70
8
 71
3
 72
8
 73
4
 74
0
 40
0
 40
0
 40
0
 40
0
 40
1
 40
1
 40
1
 40
1
 10
41.961120
 20
55.627148
 30
0.0
 10
41.886692
 20
55.552720
 30
0.0
 10
41.785745
 20
55.510906
 30
0.0
 10
41.680487
 20
55.510906
 30
0.0
  0
SPLINE
  5
31f
100
AcDbEntity
  8
Layer_1
 62
7
100
AcDbSpline
 70
8
 71
3
 72
8
 73
4
 74
0
 40
0
 40
0
 40
0
 40
0
 40
1
 40
1
 40
1
 40
1
 10
41.680487
 20
55.510906
 30
0.0
 10
41.461299
 20
55.510906
 30
0.0
 10
41.283612
 20
55.688593
 30
0.0
 10
41.283612
 20
55.907781
 30
0.0
  0
SPLINE
  5
320
100
AcDbEntity
  8
Layer_1
 62
7
100
AcDbSpline
 70
8
 71
3
 72
8
 73
4
 74
0
 40
0
 40
0
 40
0
 40
0
 40
1
 40
1
 40
1
 40
1
 10
41.283612
 20
55.907781
 30
0.0
 10
41.283612
 20
56.013039
 30
0.0
 10
41.325426
 20
56.113986
 30
0.0
 10
41.399854
 20
56.188414
 30
0.0
  0
SPLINE
  5
321
100
AcDbEntity
  8
Layer_1
 62
7
100
AcDbSpline
 70
8
 71
3
 72
8
 73
4
 74
0
 40
0
 40
0
 40
0
 40
0
 40
1
 40
1
 40
1
 40
1
 10
41.399854
 20
56.188414
 30
0.0
 10
41.474283
 20
56.262843
 30
0.0
 10
41.575229
 20
56.304656
 30
0.0
 10
41.680487
 20
56.304656
 30
0.0
  0
SPLINE
  5
322
100
AcDbEntity
  8
Layer_1
 62
7
100
AcDbSpline
 70
8
 71
3
 72
8
 73
4
 74
0
 40
0
 40
0
 40
0
 40
0
 40
1
 40
1
 40
1
 40
1
 10
41.680487
 20
56.304656
 30
0.0
 10
41.785745
 20
56.304656
 30
0.0
 10
41.886692
 20
56.262843
 30
0.0
 10
41.961120
 20
56.188414
 30
0.0
  0
SPLINE
  5
323
100
AcDbEntity
  8
Layer_1
 62
7
100
AcDbSpline
 70
8
 71
3
 72
8
 73
4
 74
0
 40
0
 40
0
 40
0
 40
0
 40
1
 40
1
 40
1
 40
1
 10
41.961120
 20
56.188414
 30
0.0
 10
42.035549
 20
56.113986
 30
0.0
 10
42.077362
 20
56.013039
 30
0.0
 10
42.077362
 20
55.907781
 30
0.0
  0
LWPOLYLINE
  5
324
100
AcDbEntity
  8
Layer_1
 62
7
100
AcDbPolyline
 90
1
 70
1
 10
38.869792
 20
55.907781
 30
0.0
  0
SPLINE
  5
325
100
AcDbEntity
  8
Layer_1
 62
7
100
AcDbSpline
 70
8
 71
3
 72
8
 73
4
 74
0
 40
0
 40
0
 40
0
 40
0
 40
1
 40
1
 40
1
 40
1
 10
45.284922
 20
55.907781
 30
0.0
 10
45.284922
 20
55.802523
 30
0.0
 10
45.243108
 20
55.701577
 30
0.0
 10
45.168680
 20
55.627148
 30
0.0
  0
SPLINE
  5
326
100
AcDbEntity
  8
Layer_1
 62
7
100
AcDbSpline
 70
8
 71
3
 72
8
 73
4
 74
0
 40
0
 40
0
 40
0
 40
0
 40
1
 40
1
 40
1
 40
1
 10
45.168680
 20
55.627148
 30
0.0
 10
45.094251
 20
55.552720
 30
0.0
 10
44.993305
 20
55.510906
 30
0.0
 10
44.888047
 20
55.510906
 30
0.0
  0
SPLINE
  5
327
100
AcDbEntity
  8
Layer_1
 62
7
100
AcDbSpline
 70
8
 71
3
 72
8
 73
4
 74
0
 40
0
 40
0
 40
0
 40
0
 40
1
 40
1
 40
1
 40
1
 10
44.888047
 20
55.510906
 30
0.0
 10
44.668859
 20
55.510906
 30
0.0
 10
44.491172
 20
55.688593
 30
0.0
 10
44.491172
 20
55.907781
 30
0.0
  0
SPLINE
  5
328
100
AcDbEntity
  8
Layer_1
 62
7
100
AcDbSpline
 70
8
 71
3
 72
8
 73
4
 74
0
 40
0
 40
0
 40
0
 40
0
 40
1
 40
1
 40
1
 40
1
 10
44.491172
 20
55.907781
 30
0.0
 10
44.491172
 20
56.013039
 30
0.0
 10
44.532985
 20
56.113986
 30
0.0
 10
44.607414
 20
56.188414
 30
0.0
  0
SPLINE
  5
329
100
AcDbEntity
  8
Layer_1
 62
7
100
AcDbSpline
 70
8
 71
3
 72
8
 73
4
 74
0
 40
0
 40
0
 40
0
 40
0
 40
1
 40
1
 40
1
 40
1
 10
44.607414
 20
56.188414
 30
0.0
 10
44.681842
 20
56.262843
 30
0.0
 10
44.782789
 20
56.304656
 30
0.0
 10
44.888047
 20
56.304656
 30
0.0
  0
SPLINE
  5
32a
100
AcDbEntity
  8
Layer_1
 62
7
100
AcDbSpline
 70
8
 71
3
 72
8
 73
4
 74
0
 40
0
 40
0
 40
0
 40
0
 40
1
 40
1
 40
1
 40
1
 10
44.888047
 20
56.304656
 30
0.0
 10
44.993305
 20
56.304656
 30
0.0
 10
45.094251
 20
56.262843
 30
0.0
 10
45.168680
 20
56.188414
 30
0.0
  0
SPLINE
  5
32b
100
AcDbEntity
  8
Layer_1
 62
7
100
AcDbSpline
 70
8
 71
3
 72
8
 73
4
 74
0
 40
0
 40
0
 40
0
 40
0
 40
1
 40
1
 40
1
 40
1
 10
45.168680
 20
56.188414
 30
0.0
 10
45.243108
 20
56.113986
 30
0.0
 10
45.284922
 20
56.013039
 30
0.0
 10
45.284922
 20
55.907781
 30
0.0
  0
LWPOLYLINE
  5
32c
100
AcDbEntity
  8
Layer_1
 62
7
100
AcDbPolyline
 90
1
 70
1
 10
42.077362
 20
55.907781
 30
0.0
  0
SPLINE
  5
32d
100
AcDbEntity
  8
Layer_1
 62
7
100
AcDbSpline
 70
8
 71
3
 72
8
 73
4
 74
0
 40
0
 40
0
 40
0
 40
0
 40
1
 40
1
 40
1
 40
1
 10
48.492495
 20
55.907781
 30
0.0
 10
48.492495
 20
55.802523
 30
0.0
 10
48.450681
 20
55.701577
 30
0.0
 10
48.376253
 20
55.627148
 30
0.0
  0
SPLINE
  5
32e
100
AcDbEntity
  8
Layer_1
 62
7
100
AcDbSpline
 70
8
 71
3
 72
8
 73
4
 74
0
 40
0
 40
0
 40
0
 40
0
 40
1
 40
1
 40
1
 40
1
 10
48.376253
 20
55.627148
 30
0.0
 10
48.301824
 20
55.552720
 30
0.0
 10
48.200877
 20
55.510906
 30
0.0
 10
48.095620
 20
55.510906
 30
0.0
  0
SPLINE
  5
32f
100
AcDbEntity
  8
Layer_1
 62
7
100
AcDbSpline
 70
8
 71
3
 72
8
 73
4
 74
0
 40
0
 40
0
 40
0
 40
0
 40
1
 40
1
 40
1
 40
1
 10
48.095620
 20
55.510906
 30
0.0
 10
47.990362
 20
55.510906
 30
0.0
 10
47.889415
 20
55.552720
 30
0.0
 10
47.814987
 20
55.627148
 30
0.0
  0
SPLINE
  5
330
100
AcDbEntity
  8
Layer_1
 62
7
100
AcDbSpline
 70
8
 71
3
 72
8
 73
4
 74
0
 40
0
 40
0
 40
0
 40
0
 40
1
 40
1
 40
1
 40
1
 10
47.814987
 20
55.627148
 30
0.0
 10
47.740558
 20
55.701577
 30
0.0
 10
47.698745
 20
55.802523
 30
0.0
 10
47.698745
 20
55.907781
 30
0.0
  0
SPLINE
  5
331
100
AcDbEntity
  8
Layer_1
 62
7
100
AcDbSpline
 70
8
 71
3
 72
8
 73
4
 74
0
 40
0
 40
0
 40
0
 40
0
 40
1
 40
1
 40
1
 40
1
 10
47.698745
 20
55.907781
 30
0.0
 10
47.698745
 20
56.013039
 30
0.0
 10
47.740558
 20
56.113986
 30
0.0
 10
47.814987
 20
56.188414
 30
0.0
  0
SPLINE
  5
332
100
AcDbEntity
  8
Layer_1
 62
7
100
AcDbSpline
 70
8
 71
3
 72
8
 73
4
 74
0
 40
0
 40
0
 40
0
 40
0
 40
1
 40
1
 40
1
 40
1
 10
47.814987
 20
56.188414
 30
0.0
 10
47.889415
 20
56.262843
 30
0.0
 10
47.990362
 20
56.304656
 30
0.0
 10
48.095620
 20
56.304656
 30
0.0
  0
SPLINE
  5
333
100
AcDbEntity
  8
Layer_1
 62
7
100
AcDbSpline
 70
8
 71
3
 72
8
 73
4
 74
0
 40
0
 40
0
 40
0
 40
0
 40
1
 40
1
 40
1
 40
1
 10
48.095620
 20
56.304656
 30
0.0
 10
48.200877
 20
56.304656
 30
0.0
 10
48.301824
 20
56.262843
 30
0.0
 10
48.376253
 20
56.188414
 30
0.0
  0
SPLINE
  5
334
100
AcDbEntity
  8
Layer_1
 62
7
100
AcDbSpline
 70
8
 71
3
 72
8
 73
4
 74
0
 40
0
 40
0
 40
0
 40
0
 40
1
 40
1
 40
1
 40
1
 10
48.376253
 20
56.188414
 30
0.0
 10
48.450681
 20
56.113986
 30
0.0
 10
48.492495
 20
56.013039
 30
0.0
 10
48.492495
 20
55.907781
 30
0.0
  0
LWPOLYLINE
  5
335
100
AcDbEntity
  8
Layer_1
 62
7
100
AcDbPolyline
 90
1
 70
1
 10
45.284922
 20
55.907781
 30
0.0
  0
SPLINE
  5
336
100
AcDbEntity
  8
Layer_1
 62
7
100
AcDbSpline
 70
8
 71
3
 72
8
 73
4
 74
0
 40
0
 40
0
 40
0
 40
0
 40
1
 40
1
 40
1
 40
1
 10
51.700057
 20
55.907781
 30
0.0
 10
51.700057
 20
55.802523
 30
0.0
 10
51.658243
 20
55.701577
 30
0.0
 10
51.583815
 20
55.627148
 30
0.0
  0
SPLINE
  5
337
100
AcDbEntity
  8
Layer_1
 62
7
100
AcDbSpline
 70
8
 71
3
 72
8
 73
4
 74
0
 40
0
 40
0
 40
0
 40
0
 40
1
 40
1
 40
1
 40
1
 10
51.583815
 20
55.627148
 30
0.0
 10
51.509386
 20
55.552720
 30
0.0
 10
51.408440
 20
55.510906
 30
0.0
 10
51.303182
 20
55.510906
 30
0.0
  0
SPLINE
  5
338
100
AcDbEntity
  8
Layer_1
 62
7
100
AcDbSpline
 70
8
 71
3
 72
8
 73
4
 74
0
 40
0
 40
0
 40
0
 40
0
 40
1
 40
1
 40
1
 40
1
 10
51.303182
 20
55.510906
 30
0.0
 10
51.197924
 20
55.510906
 30
0.0
 10
51.096977
 20
55.552720
 30
0.0
 10
51.022549
 20
55.627148
 30
0.0
  0
SPLINE
  5
339
100
AcDbEntity
  8
Layer_1
 62
7
100
AcDbSpline
 70
8
 71
3
 72
8
 73
4
 74
0
 40
0
 40
0
 40
0
 40
0
 40
1
 40
1
 40
1
 40
1
 10
51.022549
 20
55.627148
 30
0.0
 10
50.948120
 20
55.701577
 30
0.0
 10
50.906307
 20
55.802523
 30
0.0
 10
50.906307
 20
55.907781
 30
0.0
  0
SPLINE
  5
33a
100
AcDbEntity
  8
Layer_1
 62
7
100
AcDbSpline
 70
8
 71
3
 72
8
 73
4
 74
0
 40
0
 40
0
 40
0
 40
0
 40
1
 40
1
 40
1
 40
1
 10
50.906307
 20
55.907781
 30
0.0
 10
50.906307
 20
56.013039
 30
0.0
 10
50.948120
 20
56.113986
 30
0.0
 10
51.022549
 20
56.188414
 30
0.0
  0
SPLINE
  5
33b
100
AcDbEntity
  8
Layer_1
 62
7
100
AcDbSpline
 70
8
 71
3
 72
8
 73
4
 74
0
 40
0
 40
0
 40
0
 40
0
 40
1
 40
1
 40
1
 40
1
 10
51.022549
 20
56.188414
 30
0.0
 10
51.096977
 20
56.262843
 30
0.0
 10
51.197924
 20
56.304656
 30
0.0
 10
51.303182
 20
56.304656
 30
0.0
  0
SPLINE
  5
33c
100
AcDbEntity
  8
Layer_1
 62
7
100
AcDbSpline
 70
8
 71
3
 72
8
 73
4
 74
0
 40
0
 40
0
 40
0
 40
0
 40
1
 40
1
 40
1
 40
1
 10
51.303182
 20
56.304656
 30
0.0
 10
51.408440
 20
56.304656
 30
0.0
 10
51.509386
 20
56.262843
 30
0.0
 10
51.583815
 20
56.188414
 30
0.0
  0
SPLINE
  5
33d
100
AcDbEntity
  8
Layer_1
 62
7
100
AcDbSpline
 70
8
 71
3
 72
8
 73
4
 74
0
 40
0
 40
0
 40
0
 40
0
 40
1
 40
1
 40
1
 40
1
 10
51.583815
 20
56.188414
 30
0.0
 10
51.658243
 20
56.113986
 30
0.0
 10
51.700057
 20
56.013039
 30
0.0
 10
51.700057
 20
55.907781
 30
0.0
  0
LWPOLYLINE
  5
33e
100
AcDbEntity
  8
Layer_1
 62
7
100
AcDbPolyline
 90
1
 70
1
 10
48.492495
 20
55.907781
 30
0.0
  0
SPLINE
  5
33f
100
AcDbEntity
  8
Layer_1
 62
7
100
AcDbSpline
 70
8
 71
3
 72
8
 73
4
 74
0
 40
0
 40
0
 40
0
 40
0
 40
1
 40
1
 40
1
 40
1
 10
22.831958
 20
55.907781
 30
0.0
 10
22.831958
 20
55.802523
 30
0.0
 10
22.790144
 20
55.701577
 30
0.0
 10
22.715716
 20
55.627148
 30
0.0
  0
SPLINE
  5
340
100
AcDbEntity
  8
Layer_1
 62
7
100
AcDbSpline
 70
8
 71
3
 72
8
 73
4
 74
0
 40
0
 40
0
 40
0
 40
0
 40
1
 40
1
 40
1
 40
1
 10
22.715716
 20
55.627148
 30
0.0
 10
22.641287
 20
55.552720
 30
0.0
 10
22.540341
 20
55.510906
 30
0.0
 10
22.435083
 20
55.510906
 30
0.0
  0
SPLINE
  5
341
100
AcDbEntity
  8
Layer_1
 62
7
100
AcDbSpline
 70
8
 71
3
 72
8
 73
4
 74
0
 40
0
 40
0
 40
0
 40
0
 40
1
 40
1
 40
1
 40
1
 10
22.435083
 20
55.510906
 30
0.0
 10
22.329825
 20
55.510906
 30
0.0
 10
22.228878
 20
55.552720
 30
0.0
 10
22.154450
 20
55.627148
 30
0.0
  0
SPLINE
  5
342
100
AcDbEntity
  8
Layer_1
 62
7
100
AcDbSpline
 70
8
 71
3
 72
8
 73
4
 74
0
 40
0
 40
0
 40
0
 40
0
 40
1
 40
1
 40
1
 40
1
 10
22.154450
 20
55.627148
 30
0.0
 10
22.080021
 20
55.701577
 30
0.0
 10
22.038208
 20
55.802523
 30
0.0
 10
22.038208
 20
55.907781
 30
0.0
  0
SPLINE
  5
343
100
AcDbEntity
  8
Layer_1
 62
7
100
AcDbSpline
 70
8
 71
3
 72
8
 73
4
 74
0
 40
0
 40
0
 40
0
 40
0
 40
1
 40
1
 40
1
 40
1
 10
22.038208
 20
55.907781
 30
0.0
 10
22.038208
 20
56.013039
 30
0.0
 10
22.080021
 20
56.113986
 30
0.0
 10
22.154450
 20
56.188414
 30
0.0
  0
SPLINE
  5
344
100
AcDbEntity
  8
Layer_1
 62
7
100
AcDbSpline
 70
8
 71
3
 72
8
 73
4
 74
0
 40
0
 40
0
 40
0
 40
0
 40
1
 40
1
 40
1
 40
1
 10
22.154450
 20
56.188414
 30
0.0
 10
22.228878
 20
56.262843
 30
0.0
 10
22.329825
 20
56.304656
 30
0.0
 10
22.435083
 20
56.304656
 30
0.0
  0
SPLINE
  5
345
100
AcDbEntity
  8
Layer_1
 62
7
100
AcDbSpline
 70
8
 71
3
 72
8
 73
4
 74
0
 40
0
 40
0
 40
0
 40
0
 40
1
 40
1
 40
1
 40
1
 10
22.435083
 20
56.304656
 30
0.0
 10
22.540341
 20
56.304656
 30
0.0
 10
22.641287
 20
56.262843
 30
0.0
 10
22.715716
 20
56.188414
 30
0.0
  0
SPLINE
  5
346
100
AcDbEntity
  8
Layer_1
 62
7
100
AcDbSpline
 70
8
 71
3
 72
8
 73
4
 74
0
 40
0
 40
0
 40
0
 40
0
 40
1
 40
1
 40
1
 40
1
 10
22.715716
 20
56.188414
 30
0.0
 10
22.790144
 20
56.113986
 30
0.0
 10
22.831958
 20
56.013039
 30
0.0
 10
22.831958
 20
55.907781
 30
0.0
  0
LWPOLYLINE
  5
347
100
AcDbEntity
  8
Layer_1
 62
7
100
AcDbPolyline
 90
1
 70
1
 10
51.700057
 20
55.907781
 30
0.0
  0
SPLINE
  5
348
100
AcDbEntity
  8
Layer_1
 62
7
100
AcDbSpline
 70
8
 71
3
 72
8
 73
4
 74
0
 40
0
 40
0
 40
0
 40
0
 40
1
 40
1
 40
1
 40
1
 10
19.624390
 20
55.907781
 30
0.0
 10
19.624390
 20
55.802523
 30
0.0
 10
19.582576
 20
55.701577
 30
0.0
 10
19.508148
 20
55.627148
 30
0.0
  0
SPLINE
  5
349
100
AcDbEntity
  8
Layer_1
 62
7
100
AcDbSpline
 70
8
 71
3
 72
8
 73
4
 74
0
 40
0
 40
0
 40
0
 40
0
 40
1
 40
1
 40
1
 40
1
 10
19.508148
 20
55.627148
 30
0.0
 10
19.433719
 20
55.552720
 30
0.0
 10
19.332772
 20
55.510906
 30
0.0
 10
19.227515
 20
55.510906
 30
0.0
  0
SPLINE
  5
34a
100
AcDbEntity
  8
Layer_1
 62
7
100
AcDbSpline
 70
8
 71
3
 72
8
 73
4
 74
0
 40
0
 40
0
 40
0
 40
0
 40
1
 40
1
 40
1
 40
1
 10
19.227515
 20
55.510906
 30
0.0
 10
19.122257
 20
55.510906
 30
0.0
 10
19.021310
 20
55.552720
 30
0.0
 10
18.946882
 20
55.627148
 30
0.0
  0
SPLINE
  5
34b
100
AcDbEntity
  8
Layer_1
 62
7
100
AcDbSpline
 70
8
 71
3
 72
8
 73
4
 74
0
 40
0
 40
0
 40
0
 40
0
 40
1
 40
1
 40
1
 40
1
 10
18.946882
 20
55.627148
 30
0.0
 10
18.872453
 20
55.701577
 30
0.0
 10
18.830640
 20
55.802523
 30
0.0
 10
18.830640
 20
55.907781
 30
0.0
  0
SPLINE
  5
34c
100
AcDbEntity
  8
Layer_1
 62
7
100
AcDbSpline
 70
8
 71
3
 72
8
 73
4
 74
0
 40
0
 40
0
 40
0
 40
0
 40
1
 40
1
 40
1
 40
1
 10
18.830640
 20
55.907781
 30
0.0
 10
18.830640
 20
56.013039
 30
0.0
 10
18.872453
 20
56.113986
 30
0.0
 10
18.946882
 20
56.188414
 30
0.0
  0
SPLINE
  5
34d
100
AcDbEntity
  8
Layer_1
 62
7
100
AcDbSpline
 70
8
 71
3
 72
8
 73
4
 74
0
 40
0
 40
0
 40
0
 40
0
 40
1
 40
1
 40
1
 40
1
 10
18.946882
 20
56.188414
 30
0.0
 10
19.021310
 20
56.262843
 30
0.0
 10
19.122257
 20
56.304656
 30
0.0
 10
19.227515
 20
56.304656
 30
0.0
  0
SPLINE
  5
34e
100
AcDbEntity
  8
Layer_1
 62
7
100
AcDbSpline
 70
8
 71
3
 72
8
 73
4
 74
0
 40
0
 40
0
 40
0
 40
0
 40
1
 40
1
 40
1
 40
1
 10
19.227515
 20
56.304656
 30
0.0
 10
19.332772
 20
56.304656
 30
0.0
 10
19.433719
 20
56.262843
 30
0.0
 10
19.508148
 20
56.188414
 30
0.0
  0
SPLINE
  5
34f
100
AcDbEntity
  8
Layer_1
 62
7
100
AcDbSpline
 70
8
 71
3
 72
8
 73
4
 74
0
 40
0
 40
0
 40
0
 40
0
 40
1
 40
1
 40
1
 40
1
 10
19.508148
 20
56.188414
 30
0.0
 10
19.582576
 20
56.113986
 30
0.0
 10
19.624390
 20
56.013039
 30
0.0
 10
19.624390
 20
55.907781
 30
0.0
  0
LWPOLYLINE
  5
350
100
AcDbEntity
  8
Layer_1
 62
7
100
AcDbPolyline
 90
1
 70
1
 10
22.831958
 20
55.907781
 30
0.0
  0
SPLINE
  5
351
100
AcDbEntity
  8
Layer_1
 62
7
100
AcDbSpline
 70
8
 71
3
 72
8
 73
4
 74
0
 40
0
 40
0
 40
0
 40
0
 40
1
 40
1
 40
1
 40
1
 10
13.209256
 20
55.907781
 30
0.0
 10
13.209256
 20
55.802523
 30
0.0
 10
13.167442
 20
55.701577
 30
0.0
 10
13.093014
 20
55.627148
 30
0.0
  0
SPLINE
  5
352
100
AcDbEntity
  8
Layer_1
 62
7
100
AcDbSpline
 70
8
 71
3
 72
8
 73
4
 74
0
 40
0
 40
0
 40
0
 40
0
 40
1
 40
1
 40
1
 40
1
 10
13.093014
 20
55.627148
 30
0.0
 10
13.018585
 20
55.552720
 30
0.0
 10
12.917639
 20
55.510906
 30
0.0
 10
12.812381
 20
55.510906
 30
0.0
  0
SPLINE
  5
353
100
AcDbEntity
  8
Layer_1
 62
7
100
AcDbSpline
 70
8
 71
3
 72
8
 73
4
 74
0
 40
0
 40
0
 40
0
 40
0
 40
1
 40
1
 40
1
 40
1
 10
12.812381
 20
55.510906
 30
0.0
 10
12.707123
 20
55.510906
 30
0.0
 10
12.606176
 20
55.552720
 30
0.0
 10
12.531748
 20
55.627148
 30
0.0
  0
SPLINE
  5
354
100
AcDbEntity
  8
Layer_1
 62
7
100
AcDbSpline
 70
8
 71
3
 72
8
 73
4
 74
0
 40
0
 40
0
 40
0
 40
0
 40
1
 40
1
 40
1
 40
1
 10
12.531748
 20
55.627148
 30
0.0
 10
12.457319
 20
55.701577
 30
0.0
 10
12.415506
 20
55.802523
 30
0.0
 10
12.415506
 20
55.907781
 30
0.0
  0
SPLINE
  5
355
100
AcDbEntity
  8
Layer_1
 62
7
100
AcDbSpline
 70
8
 71
3
 72
8
 73
4
 74
0
 40
0
 40
0
 40
0
 40
0
 40
1
 40
1
 40
1
 40
1
 10
12.415506
 20
55.907781
 30
0.0
 10
12.415506
 20
56.013039
 30
0.0
 10
12.457319
 20
56.113986
 30
0.0
 10
12.531748
 20
56.188414
 30
0.0
  0
SPLINE
  5
356
100
AcDbEntity
  8
Layer_1
 62
7
100
AcDbSpline
 70
8
 71
3
 72
8
 73
4
 74
0
 40
0
 40
0
 40
0
 40
0
 40
1
 40
1
 40
1
 40
1
 10
12.531748
 20
56.188414
 30
0.0
 10
12.606176
 20
56.262843
 30
0.0
 10
12.707123
 20
56.304656
 30
0.0
 10
12.812381
 20
56.304656
 30
0.0
  0
SPLINE
  5
357
100
AcDbEntity
  8
Layer_1
 62
7
100
AcDbSpline
 70
8
 71
3
 72
8
 73
4
 74
0
 40
0
 40
0
 40
0
 40
0
 40
1
 40
1
 40
1
 40
1
 10
12.812381
 20
56.304656
 30
0.0
 10
12.917639
 20
56.304656
 30
0.0
 10
13.018585
 20
56.262843
 30
0.0
 10
13.093014
 20
56.188414
 30
0.0
  0
SPLINE
  5
358
100
AcDbEntity
  8
Layer_1
 62
7
100
AcDbSpline
 70
8
 71
3
 72
8
 73
4
 74
0
 40
0
 40
0
 40
0
 40
0
 40
1
 40
1
 40
1
 40
1
 10
13.093014
 20
56.188414
 30
0.0
 10
13.167442
 20
56.113986
 30
0.0
 10
13.209256
 20
56.013039
 30
0.0
 10
13.209256
 20
55.907781
 30
0.0
  0
LWPOLYLINE
  5
359
100
AcDbEntity
  8
Layer_1
 62
7
100
AcDbPolyline
 90
1
 70
1
 10
19.624390
 20
55.907781
 30
0.0
  0
SPLINE
  5
35a
100
AcDbEntity
  8
Layer_1
 62
7
100
AcDbSpline
 70
8
 71
3
 72
8
 73
4
 74
0
 40
0
 40
0
 40
0
 40
0
 40
1
 40
1
 40
1
 40
1
 10
6.667540
 20
44.852780
 30
0.0
 10
6.667540
 20
44.712437
 30
0.0
 10
6.611788
 20
44.577841
 30
0.0
 10
6.512550
 20
44.478603
 30
0.0
  0
SPLINE
  5
35b
100
AcDbEntity
  8
Layer_1
 62
7
100
AcDbSpline
 70
8
 71
3
 72
8
 73
4
 74
0
 40
0
 40
0
 40
0
 40
0
 40
1
 40
1
 40
1
 40
1
 10
6.512550
 20
44.478603
 30
0.0
 10
6.413312
 20
44.379365
 30
0.0
 10
6.278717
 20
44.323614
 30
0.0
 10
6.138373
 20
44.323614
 30
0.0
  0
SPLINE
  5
35c
100
AcDbEntity
  8
Layer_1
 62
7
100
AcDbSpline
 70
8
 71
3
 72
8
 73
4
 74
0
 40
0
 40
0
 40
0
 40
0
 40
1
 40
1
 40
1
 40
1
 10
6.138373
 20
44.323614
 30
0.0
 10
5.998029
 20
44.323614
 30
0.0
 10
5.863434
 20
44.379365
 30
0.0
 10
5.764196
 20
44.478603
 30
0.0
  0
SPLINE
  5
35d
100
AcDbEntity
  8
Layer_1
 62
7
100
AcDbSpline
 70
8
 71
3
 72
8
 73
4
 74
0
 40
0
 40
0
 40
0
 40
0
 40
1
 40
1
 40
1
 40
1
 10
5.764196
 20
44.478603
 30
0.0
 10
5.664958
 20
44.577841
 30
0.0
 10
5.609206
 20
44.712437
 30
0.0
 10
5.609206
 20
44.852780
 30
0.0
  0
SPLINE
  5
35e
100
AcDbEntity
  8
Layer_1
 62
7
100
AcDbSpline
 70
8
 71
3
 72
8
 73
4
 74
0
 40
0
 40
0
 40
0
 40
0
 40
1
 40
1
 40
1
 40
1
 10
5.609206
 20
44.852780
 30
0.0
 10
5.609206
 20
44.993124
 30
0.0
 10
5.664958
 20
45.127720
 30
0.0
 10
5.764196
 20
45.226958
 30
0.0
  0
SPLINE
  5
35f
100
AcDbEntity
  8
Layer_1
 62
7
100
AcDbSpline
 70
8
 71
3
 72
8
 73
4
 74
0
 40
0
 40
0
 40
0
 40
0
 40
1
 40
1
 40
1
 40
1
 10
5.764196
 20
45.226958
 30
0.0
 10
5.863434
 20
45.326196
 30
0.0
 10
5.998029
 20
45.381947
 30
0.0
 10
6.138373
 20
45.381947
 30
0.0
  0
SPLINE
  5
360
100
AcDbEntity
  8
Layer_1
 62
7
100
AcDbSpline
 70
8
 71
3
 72
8
 73
4
 74
0
 40
0
 40
0
 40
0
 40
0
 40
1
 40
1
 40
1
 40
1
 10
6.138373
 20
45.381947
 30
0.0
 10
6.278717
 20
45.381947
 30
0.0
 10
6.413312
 20
45.326196
 30
0.0
 10
6.512550
 20
45.226958
 30
0.0
  0
SPLINE
  5
361
100
AcDbEntity
  8
Layer_1
 62
7
100
AcDbSpline
 70
8
 71
3
 72
8
 73
4
 74
0
 40
0
 40
0
 40
0
 40
0
 40
1
 40
1
 40
1
 40
1
 10
6.512550
 20
45.226958
 30
0.0
 10
6.611788
 20
45.127720
 30
0.0
 10
6.667540
 20
44.993124
 30
0.0
 10
6.667540
 20
44.852780
 30
0.0
  0
LWPOLYLINE
  5
362
100
AcDbEntity
  8
Layer_1
 62
7
100
AcDbPolyline
 90
1
 70
1
 10
13.209256
 20
55.907781
 30
0.0
  0
SPLINE
  5
363
100
AcDbEntity
  8
Layer_1
 62
7
100
AcDbSpline
 70
8
 71
3
 72
8
 73
4
 74
0
 40
0
 40
0
 40
0
 40
0
 40
1
 40
1
 40
1
 40
1
 10
52.091225
 20
44.852780
 30
0.0
 10
52.091225
 20
44.712437
 30
0.0
 10
52.035474
 20
44.577841
 30
0.0
 10
51.936236
 20
44.478603
 30
0.0
  0
SPLINE
  5
364
100
AcDbEntity
  8
Layer_1
 62
7
100
AcDbSpline
 70
8
 71
3
 72
8
 73
4
 74
0
 40
0
 40
0
 40
0
 40
0
 40
1
 40
1
 40
1
 40
1
 10
51.936236
 20
44.478603
 30
0.0
 10
51.836998
 20
44.379365
 30
0.0
 10
51.702402
 20
44.323614
 30
0.0
 10
51.562058
 20
44.323614
 30
0.0
  0
SPLINE
  5
365
100
AcDbEntity
  8
Layer_1
 62
7
100
AcDbSpline
 70
8
 71
3
 72
8
 73
4
 74
0
 40
0
 40
0
 40
0
 40
0
 40
1
 40
1
 40
1
 40
1
 10
51.562058
 20
44.323614
 30
0.0
 10
51.421714
 20
44.323614
 30
0.0
 10
51.287119
 20
44.379365
 30
0.0
 10
51.187881
 20
44.478603
 30
0.0
  0
SPLINE
  5
366
100
AcDbEntity
  8
Layer_1
 62
7
100
AcDbSpline
 70
8
 71
3
 72
8
 73
4
 74
0
 40
0
 40
0
 40
0
 40
0
 40
1
 40
1
 40
1
 40
1
 10
51.187881
 20
44.478603
 30
0.0
 10
51.088643
 20
44.577841
 30
0.0
 10
51.032892
 20
44.712437
 30
0.0
 10
51.032892
 20
44.852780
 30
0.0
  0
SPLINE
  5
367
100
AcDbEntity
  8
Layer_1
 62
7
100
AcDbSpline
 70
8
 71
3
 72
8
 73
4
 74
0
 40
0
 40
0
 40
0
 40
0
 40
1
 40
1
 40
1
 40
1
 10
51.032892
 20
44.852780
 30
0.0
 10
51.032892
 20
44.993124
 30
0.0
 10
51.088643
 20
45.127720
 30
0.0
 10
51.187881
 20
45.226958
 30
0.0
  0
SPLINE
  5
368
100
AcDbEntity
  8
Layer_1
 62
7
100
AcDbSpline
 70
8
 71
3
 72
8
 73
4
 74
0
 40
0
 40
0
 40
0
 40
0
 40
1
 40
1
 40
1
 40
1
 10
51.187881
 20
45.226958
 30
0.0
 10
51.287119
 20
45.326196
 30
0.0
 10
51.421714
 20
45.381947
 30
0.0
 10
51.562058
 20
45.381947
 30
0.0
  0
SPLINE
  5
369
100
AcDbEntity
  8
Layer_1
 62
7
100
AcDbSpline
 70
8
 71
3
 72
8
 73
4
 74
0
 40
0
 40
0
 40
0
 40
0
 40
1
 40
1
 40
1
 40
1
 10
51.562058
 20
45.381947
 30
0.0
 10
51.702402
 20
45.381947
 30
0.0
 10
51.836998
 20
45.326196
 30
0.0
 10
51.936236
 20
45.226958
 30
0.0
  0
SPLINE
  5
36a
100
AcDbEntity
  8
Layer_1
 62
7
100
AcDbSpline
 70
8
 71
3
 72
8
 73
4
 74
0
 40
0
 40
0
 40
0
 40
0
 40
1
 40
1
 40
1
 40
1
 10
51.936236
 20
45.226958
 30
0.0
 10
52.035474
 20
45.127720
 30
0.0
 10
52.091225
 20
44.993124
 30
0.0
 10
52.091225
 20
44.852780
 30
0.0
  0
LWPOLYLINE
  5
36b
100
AcDbEntity
  8
Layer_1
 62
7
100
AcDbPolyline
 90
1
 70
1
 10
6.667540
 20
44.852780
 30
0.0
  0
LWPOLYLINE
  5
36c
100
AcDbEntity
  8
Layer_1
 62
7
100
AcDbPolyline
 90
1
 70
1
 10
52.091225
 20
44.852780
 30
0.0
  0
LWPOLYLINE
  5
36d
100
AcDbEntity
  8
Layer_1
 62
7
100
AcDbPolyline
 90
4
 70
1
 10
4.050251
 20
71.854455
 30
0.0
 10
6.696085
 20
71.854455
 30
0.0
 10
6.696085
 20
69.208622
 30
0.0
 10
4.050251
 20
69.208622
 30
0.0
  0
ENDSEC
  0
SECTION
  2
OBJECTS
  0
DICTIONARY
  5
C
330
0
100
AcDbDictionary
  3
ACAD_GROUP
350
D
  3
ACAD_MLINESTYLE
350
17
  0
DICTIONARY
  5
D
330
C
100
AcDbDictionary
  0
DICTIONARY
  5
1A
330
C
100
AcDbDictionary
  0
DICTIONARY
  5
17
330
C
100
AcDbDictionary
  3
STANDARD
350
18
  0
DICTIONARY
  5
19
330
C
100
AcDbDictionary
  0
ENDSEC
  0
EOF
