<?xml version="1.0" encoding="UTF-8" standalone="no"?>
<!-- Created with Inkscape (http://www.inkscape.org/) -->

<svg
   xmlns:dc="http://purl.org/dc/elements/1.1/"
   xmlns:cc="http://creativecommons.org/ns#"
   xmlns:rdf="http://www.w3.org/1999/02/22-rdf-syntax-ns#"
   xmlns:svg="http://www.w3.org/2000/svg"
   xmlns="http://www.w3.org/2000/svg"
   xmlns:sodipodi="http://sodipodi.sourceforge.net/DTD/sodipodi-0.dtd"
   xmlns:inkscape="http://www.inkscape.org/namespaces/inkscape"
   width="210mm"
   height="297mm"
   viewBox="0 0 210 297"
   version="1.1"
   id="svg4513"
   inkscape:version="0.92.1 r15371"
   sodipodi:docname="Mount Plate.svg">
  <defs
     id="defs4507" />
  <sodipodi:namedview
     id="base"
     pagecolor="#ffffff"
     bordercolor="#666666"
     borderopacity="1.0"
     inkscape:pageopacity="0.0"
     inkscape:pageshadow="2"
     inkscape:zoom="1.4"
     inkscape:cx="399.4498"
     inkscape:cy="810.60098"
     inkscape:document-units="mm"
     inkscape:current-layer="layer1"
     showgrid="false"
     inkscape:window-width="1920"
     inkscape:window-height="1027"
     inkscape:window-x="-8"
     inkscape:window-y="-8"
     inkscape:window-maximized="1" />
  <metadata
     id="metadata4510">
    <rdf:RDF>
      <cc:Work
         rdf:about="">
        <dc:format>image/svg+xml</dc:format>
        <dc:type
           rdf:resource="http://purl.org/dc/dcmitype/StillImage" />
        <dc:title></dc:title>
      </cc:Work>
    </rdf:RDF>
  </metadata>
  <g
     inkscape:label="Layer 1"
     inkscape:groupmode="layer"
     id="layer1">
    <path
       style="fill:#000000;fill-opacity:1;stroke:none;stroke-width:0.26458332"
       d="m 19.43602,45.599724 h 179.20833 c 1.662,0 3,1.338 3,3 v 82.824406 c 0,1.662 -1.338,3 -3,3 H 19.43602 c -1.662,0 -3,-1.338 -3,-3 V 48.599724 c 0,-1.662 1.338,-3 3,-3 z"
       id="rect6044" />
    <path
       inkscape:connector-curvature="0"
       id="path4550"
       d="m 115.73661,126.56994 a 1.375,1.375 0 0 1 -1.375,1.375 1.375,1.375 0 0 1 -1.375,-1.375 1.375,1.375 0 0 1 1.375,-1.375 1.375,1.375 0 0 1 1.375,1.375 z"
       style="fill:#ff0000;fill-opacity:1;stroke:none;stroke-width:0.22706062" />
    <path
       inkscape:connector-curvature="0"
       id="path4550-5"
       d="m 115.73661,103.56994 a 1.375,1.375 0 0 1 -1.375,1.375 1.375,1.375 0 0 1 -1.375,-1.375 1.375,1.375 0 0 1 1.375,-1.375 1.375,1.375 0 0 1 1.375,1.375 z"
       style="fill:#ff0000;fill-opacity:1;stroke:none;stroke-width:0.22706062" />
    <path
       inkscape:connector-curvature="0"
       id="path4550-3"
       d="m 173.7366,103.56994 a 1.375,1.375 0 0 1 -1.375,1.375 1.375,1.375 0 0 1 -1.375,-1.375 1.375,1.375 0 0 1 1.375,-1.375 1.375,1.375 0 0 1 1.375,1.375 z"
       style="fill:#ff0000;fill-opacity:1;stroke:none;stroke-width:0.22706062" />
    <path
       inkscape:connector-curvature="0"
       id="path4550-5-7"
       d="m 173.7366,126.56994 a 1.375,1.375 0 0 1 -1.375,1.375 1.375,1.375 0 0 1 -1.375,-1.375 1.375,1.375 0 0 1 1.375,-1.375 1.375,1.375 0 0 1 1.375,1.375 z"
       style="fill:#ff0000;fill-opacity:1;stroke:none;stroke-width:0.22706062" />
    <path
       inkscape:connector-curvature="0"
       id="path5687"
       d="m 63.737,126.69494 a 1.25,1.25 0 0 1 -1.25,1.25 1.25,1.25 0 0 1 -1.25,-1.25 1.25,1.25 0 0 1 1.25,-1.25 1.25,1.25 0 0 1 1.25,1.25 z"
       style="fill:#ff0000;fill-opacity:1;stroke:none;stroke-width:0.09582748" />
    <path
       inkscape:connector-curvature="0"
       id="path5687-9"
       d="m 63.737,106.19494 a 1.25,1.25 0 0 1 -1.25,1.25 1.25,1.25 0 0 1 -1.25,-1.25 1.25,1.25 0 0 1 1.25,-1.25 1.25,1.25 0 0 1 1.25,1.25 z"
       style="fill:#ff0000;fill-opacity:1;stroke:none;stroke-width:0.09582748" />
    <path
       inkscape:connector-curvature="0"
       id="path5687-7"
       d="m 102.98661,106.19494 a 1.25,1.25 0 0 1 -1.25,1.25 1.25,1.25 0 0 1 -1.25,-1.25 1.25,1.25 0 0 1 1.25,-1.25 1.25,1.25 0 0 1 1.25,1.25 z"
       style="fill:#ff0000;fill-opacity:1;stroke:none;stroke-width:0.09582748" />
    <path
       inkscape:connector-curvature="0"
       id="path5687-0"
       d="m 102.98661,126.69494 a 1.25,1.25 0 0 1 -1.25,1.25 1.25,1.25 0 0 1 -1.25,-1.25 1.25,1.25 0 0 1 1.25,-1.25 1.25,1.25 0 0 1 1.25,1.25 z"
       style="fill:#ff0000;fill-opacity:1;stroke:none;stroke-width:0.09582748" />
    <path
       inkscape:connector-curvature="0"
       id="path5722"
       d="m 25.678574,53.578915 a 1.5,1.5 0 0 1 -1.5,1.5 1.5,1.5 0 0 1 -1.5,-1.5 1.5,1.5 0 0 1 1.5,-1.5 1.5,1.5 0 0 1 1.5,1.5 z"
       style="fill:#ff0000;fill-opacity:1;stroke:none;stroke-width:0.17146428" />
    <path
       inkscape:connector-curvature="0"
       id="path5722-7"
       d="m 37.801655,53.578915 a 1.5,1.5 0 0 1 -1.5,1.5 1.5,1.5 0 0 1 -1.5,-1.5 1.5,1.5 0 0 1 1.5,-1.5 1.5,1.5 0 0 1 1.5,1.5 z"
       style="fill:#ff0000;fill-opacity:1;stroke:none;stroke-width:0.17146429" />
    <path
       inkscape:connector-curvature="0"
       id="path5722-6"
       d="m 62.047832,53.578915 a 1.5,1.5 0 0 1 -1.5,1.5 1.5,1.5 0 0 1 -1.5,-1.5 1.5,1.5 0 0 1 1.5,-1.5 1.5,1.5 0 0 1 1.5,1.5 z"
       style="fill:#ff0000;fill-opacity:1;stroke:none;stroke-width:0.17146429" />
    <path
       inkscape:connector-curvature="0"
       id="path5722-73"
       d="m 110.54018,53.578915 a 1.5,1.5 0 0 1 -1.5,1.5 1.5,1.5 0 0 1 -1.5,-1.5 1.5,1.5 0 0 1 1.5,-1.5 1.5,1.5 0 0 1 1.5,1.5 z"
       style="fill:#ff0000;fill-opacity:1;stroke:none;stroke-width:0.17146429" />
    <path
       inkscape:connector-curvature="0"
       id="path5722-9"
       d="m 98.417099,53.578915 a 1.5,1.5 0 0 1 -1.5,1.5 1.5,1.5 0 0 1 -1.5,-1.5 1.5,1.5 0 0 1 1.5,-1.5 1.5,1.5 0 0 1 1.5,1.5 z"
       style="fill:#ff0000;fill-opacity:1;stroke:none;stroke-width:0.17146429" />
    <path
       inkscape:connector-curvature="0"
       id="path5722-0"
       d="m 122.66328,53.578915 a 1.5,1.5 0 0 1 -1.5,1.5 1.5,1.5 0 0 1 -1.5,-1.5 1.5,1.5 0 0 1 1.5,-1.5 1.5,1.5 0 0 1 1.5,1.5 z"
       style="fill:#ff0000;fill-opacity:1;stroke:none;stroke-width:0.17146429" />
    <path
       inkscape:connector-curvature="0"
       id="path5722-78"
       d="m 134.78635,53.578915 a 1.5,1.5 0 0 1 -1.5,1.5 1.5,1.5 0 0 1 -1.5,-1.5 1.5,1.5 0 0 1 1.5,-1.5 1.5,1.5 0 0 1 1.5,1.5 z"
       style="fill:#ff0000;fill-opacity:1;stroke:none;stroke-width:0.17146429" />
    <path
       inkscape:connector-curvature="0"
       id="path5722-4"
       d="m 146.90945,53.578915 a 1.5,1.5 0 0 1 -1.5,1.5 1.5,1.5 0 0 1 -1.5,-1.5 1.5,1.5 0 0 1 1.5,-1.5 1.5,1.5 0 0 1 1.5,1.5 z"
       style="fill:#ff0000;fill-opacity:1;stroke:none;stroke-width:0.17146429" />
    <path
       inkscape:connector-curvature="0"
       id="path5722-8"
       d="m 159.03255,53.578915 a 1.5,1.5 0 0 1 -1.5,1.5 1.5,1.5 0 0 1 -1.5,-1.5 1.5,1.5 0 0 1 1.5,-1.5 1.5,1.5 0 0 1 1.5,1.5 z"
       style="fill:#ff0000;fill-opacity:1;stroke:none;stroke-width:0.17146429" />
    <path
       inkscape:connector-curvature="0"
       id="path5722-5"
       d="m 171.15561,53.578915 a 1.5,1.5 0 0 1 -1.5,1.5 1.5,1.5 0 0 1 -1.5,-1.5 1.5,1.5 0 0 1 1.5,-1.5 1.5,1.5 0 0 1 1.5,1.5 z"
       style="fill:#ff0000;fill-opacity:1;stroke:none;stroke-width:0.17146429" />
    <path
       inkscape:connector-curvature="0"
       id="path5722-91"
       d="m 183.27872,53.578915 a 1.5,1.5 0 0 1 -1.5,1.5 1.5,1.5 0 0 1 -1.5,-1.5 1.5,1.5 0 0 1 1.5,-1.5 1.5,1.5 0 0 1 1.5,1.5 z"
       style="fill:#ff0000;fill-opacity:1;stroke:none;stroke-width:0.17146429" />
    <path
       inkscape:connector-curvature="0"
       id="path5722-79"
       d="m 195.40179,53.578915 a 1.5,1.5 0 0 1 -1.5,1.5 1.5,1.5 0 0 1 -1.5,-1.5 1.5,1.5 0 0 1 1.5,-1.5 1.5,1.5 0 0 1 1.5,1.5 z"
       style="fill:#ff0000;fill-opacity:1;stroke:none;stroke-width:0.17146429" />
    <path
       inkscape:connector-curvature="0"
       id="path5722-2"
       d="m 86.294014,53.578915 a 1.5,1.5 0 0 1 -1.5,1.5 1.5,1.5 0 0 1 -1.5,-1.5 1.5,1.5 0 0 1 1.5,-1.5 1.5,1.5 0 0 1 1.5,1.5 z"
       style="fill:#ff0000;fill-opacity:1;stroke:none;stroke-width:0.17146429" />
    <path
       inkscape:connector-curvature="0"
       id="path5722-1"
       d="m 74.170921,53.578915 a 1.5,1.5 0 0 1 -1.5,1.5 1.5,1.5 0 0 1 -1.5,-1.5 1.5,1.5 0 0 1 1.5,-1.5 1.5,1.5 0 0 1 1.5,1.5 z"
       style="fill:#ff0000;fill-opacity:1;stroke:none;stroke-width:0.17146429" />
    <path
       inkscape:connector-curvature="0"
       id="path5722-794"
       d="m 49.924747,53.578915 a 1.5,1.5 0 0 1 -1.5,1.5 1.5,1.5 0 0 1 -1.5,-1.5 1.5,1.5 0 0 1 1.5,-1.5 1.5,1.5 0 0 1 1.5,1.5 z"
       style="fill:#ff0000;fill-opacity:1;stroke:none;stroke-width:0.17146429" />
    <path
       inkscape:connector-curvature="0"
       id="path5722-25"
       d="m 25.678574,64.284271 a 1.5,1.5 0 0 1 -1.5,1.5 1.5,1.5 0 0 1 -1.5,-1.5 1.5,1.5 0 0 1 1.5,-1.5 1.5,1.5 0 0 1 1.5,1.5 z"
       style="fill:#ff0000;fill-opacity:1;stroke:none;stroke-width:0.17146428" />
    <path
       inkscape:connector-curvature="0"
       id="path5722-7-7"
       d="m 37.801655,64.284271 a 1.5,1.5 0 0 1 -1.5,1.5 1.5,1.5 0 0 1 -1.5,-1.5 1.5,1.5 0 0 1 1.5,-1.5 1.5,1.5 0 0 1 1.5,1.5 z"
       style="fill:#ff0000;fill-opacity:1;stroke:none;stroke-width:0.17146429" />
    <path
       inkscape:connector-curvature="0"
       id="path5722-6-6"
       d="m 62.047832,64.284271 a 1.5,1.5 0 0 1 -1.5,1.5 1.5,1.5 0 0 1 -1.5,-1.5 1.5,1.5 0 0 1 1.5,-1.5 1.5,1.5 0 0 1 1.5,1.5 z"
       style="fill:#ff0000;fill-opacity:1;stroke:none;stroke-width:0.17146429" />
    <path
       inkscape:connector-curvature="0"
       id="path5722-73-8"
       d="m 110.54018,64.284271 a 1.5,1.5 0 0 1 -1.5,1.5 1.5,1.5 0 0 1 -1.5,-1.5 1.5,1.5 0 0 1 1.5,-1.5 1.5,1.5 0 0 1 1.5,1.5 z"
       style="fill:#ff0000;fill-opacity:1;stroke:none;stroke-width:0.17146429" />
    <path
       inkscape:connector-curvature="0"
       id="path5722-9-4"
       d="m 98.417099,64.284271 a 1.5,1.5 0 0 1 -1.5,1.5 1.5,1.5 0 0 1 -1.5,-1.5 1.5,1.5 0 0 1 1.5,-1.5 1.5,1.5 0 0 1 1.5,1.5 z"
       style="fill:#ff0000;fill-opacity:1;stroke:none;stroke-width:0.17146429" />
    <path
       inkscape:connector-curvature="0"
       id="path5722-0-7"
       d="m 122.66328,64.284271 a 1.5,1.5 0 0 1 -1.5,1.5 1.5,1.5 0 0 1 -1.5,-1.5 1.5,1.5 0 0 1 1.5,-1.5 1.5,1.5 0 0 1 1.5,1.5 z"
       style="fill:#ff0000;fill-opacity:1;stroke:none;stroke-width:0.17146429" />
    <path
       inkscape:connector-curvature="0"
       id="path5722-78-4"
       d="m 134.78635,64.284271 a 1.5,1.5 0 0 1 -1.5,1.5 1.5,1.5 0 0 1 -1.5,-1.5 1.5,1.5 0 0 1 1.5,-1.5 1.5,1.5 0 0 1 1.5,1.5 z"
       style="fill:#ff0000;fill-opacity:1;stroke:none;stroke-width:0.17146429" />
    <path
       inkscape:connector-curvature="0"
       id="path5722-4-0"
       d="m 146.90945,64.284271 a 1.5,1.5 0 0 1 -1.5,1.5 1.5,1.5 0 0 1 -1.5,-1.5 1.5,1.5 0 0 1 1.5,-1.5 1.5,1.5 0 0 1 1.5,1.5 z"
       style="fill:#ff0000;fill-opacity:1;stroke:none;stroke-width:0.17146429" />
    <path
       inkscape:connector-curvature="0"
       id="path5722-8-1"
       d="m 159.03255,64.284271 a 1.5,1.5 0 0 1 -1.5,1.5 1.5,1.5 0 0 1 -1.5,-1.5 1.5,1.5 0 0 1 1.5,-1.5 1.5,1.5 0 0 1 1.5,1.5 z"
       style="fill:#ff0000;fill-opacity:1;stroke:none;stroke-width:0.17146429" />
    <path
       inkscape:connector-curvature="0"
       id="path5722-5-5"
       d="m 171.15561,64.284271 a 1.5,1.5 0 0 1 -1.5,1.5 1.5,1.5 0 0 1 -1.5,-1.5 1.5,1.5 0 0 1 1.5,-1.5 1.5,1.5 0 0 1 1.5,1.5 z"
       style="fill:#ff0000;fill-opacity:1;stroke:none;stroke-width:0.17146429" />
    <path
       inkscape:connector-curvature="0"
       id="path5722-91-6"
       d="m 183.27872,64.284271 a 1.5,1.5 0 0 1 -1.5,1.5 1.5,1.5 0 0 1 -1.5,-1.5 1.5,1.5 0 0 1 1.5,-1.5 1.5,1.5 0 0 1 1.5,1.5 z"
       style="fill:#ff0000;fill-opacity:1;stroke:none;stroke-width:0.17146429" />
    <path
       inkscape:connector-curvature="0"
       id="path5722-79-8"
       d="m 195.40179,64.284271 a 1.5,1.5 0 0 1 -1.5,1.5 1.5,1.5 0 0 1 -1.5,-1.5 1.5,1.5 0 0 1 1.5,-1.5 1.5,1.5 0 0 1 1.5,1.5 z"
       style="fill:#ff0000;fill-opacity:1;stroke:none;stroke-width:0.17146429" />
    <path
       inkscape:connector-curvature="0"
       id="path5722-2-7"
       d="m 86.294014,64.284271 a 1.5,1.5 0 0 1 -1.5,1.5 1.5,1.5 0 0 1 -1.5,-1.5 1.5,1.5 0 0 1 1.5,-1.5 1.5,1.5 0 0 1 1.5,1.5 z"
       style="fill:#ff0000;fill-opacity:1;stroke:none;stroke-width:0.17146429" />
    <path
       inkscape:connector-curvature="0"
       id="path5722-1-3"
       d="m 74.170921,64.284271 a 1.5,1.5 0 0 1 -1.5,1.5 1.5,1.5 0 0 1 -1.5,-1.5 1.5,1.5 0 0 1 1.5,-1.5 1.5,1.5 0 0 1 1.5,1.5 z"
       style="fill:#ff0000;fill-opacity:1;stroke:none;stroke-width:0.17146429" />
    <path
       inkscape:connector-curvature="0"
       id="path5722-794-1"
       d="m 49.924747,64.284271 a 1.5,1.5 0 0 1 -1.5,1.5 1.5,1.5 0 0 1 -1.5,-1.5 1.5,1.5 0 0 1 1.5,-1.5 1.5,1.5 0 0 1 1.5,1.5 z"
       style="fill:#ff0000;fill-opacity:1;stroke:none;stroke-width:0.17146429" />
    <path
       inkscape:connector-curvature="0"
       id="path5722-60"
       d="m 25.678574,74.989647 a 1.5,1.5 0 0 1 -1.5,1.5 1.5,1.5 0 0 1 -1.5,-1.5 1.5,1.5 0 0 1 1.5,-1.5 1.5,1.5 0 0 1 1.5,1.5 z"
       style="fill:#ff0000;fill-opacity:1;stroke:none;stroke-width:0.17146428" />
    <path
       inkscape:connector-curvature="0"
       id="path5722-7-1"
       d="m 37.801655,74.989647 a 1.5,1.5 0 0 1 -1.5,1.5 1.5,1.5 0 0 1 -1.5,-1.5 1.5,1.5 0 0 1 1.5,-1.5 1.5,1.5 0 0 1 1.5,1.5 z"
       style="fill:#ff0000;fill-opacity:1;stroke:none;stroke-width:0.17146429" />
    <path
       inkscape:connector-curvature="0"
       id="path5722-6-0"
       d="m 62.047832,74.989647 a 1.5,1.5 0 0 1 -1.5,1.5 1.5,1.5 0 0 1 -1.5,-1.5 1.5,1.5 0 0 1 1.5,-1.5 1.5,1.5 0 0 1 1.5,1.5 z"
       style="fill:#ff0000;fill-opacity:1;stroke:none;stroke-width:0.17146429" />
    <path
       inkscape:connector-curvature="0"
       id="path5722-73-81"
       d="m 110.54018,74.989647 a 1.5,1.5 0 0 1 -1.5,1.5 1.5,1.5 0 0 1 -1.5,-1.5 1.5,1.5 0 0 1 1.5,-1.5 1.5,1.5 0 0 1 1.5,1.5 z"
       style="fill:#ff0000;fill-opacity:1;stroke:none;stroke-width:0.17146429" />
    <path
       inkscape:connector-curvature="0"
       id="path5722-9-9"
       d="m 98.417099,74.989647 a 1.5,1.5 0 0 1 -1.5,1.5 1.5,1.5 0 0 1 -1.5,-1.5 1.5,1.5 0 0 1 1.5,-1.5 1.5,1.5 0 0 1 1.5,1.5 z"
       style="fill:#ff0000;fill-opacity:1;stroke:none;stroke-width:0.17146429" />
    <path
       inkscape:connector-curvature="0"
       id="path5722-0-8"
       d="m 122.66328,74.989647 a 1.5,1.5 0 0 1 -1.5,1.5 1.5,1.5 0 0 1 -1.5,-1.5 1.5,1.5 0 0 1 1.5,-1.5 1.5,1.5 0 0 1 1.5,1.5 z"
       style="fill:#ff0000;fill-opacity:1;stroke:none;stroke-width:0.17146429" />
    <path
       inkscape:connector-curvature="0"
       id="path5722-78-40"
       d="m 134.78635,74.989647 a 1.5,1.5 0 0 1 -1.5,1.5 1.5,1.5 0 0 1 -1.5,-1.5 1.5,1.5 0 0 1 1.5,-1.5 1.5,1.5 0 0 1 1.5,1.5 z"
       style="fill:#ff0000;fill-opacity:1;stroke:none;stroke-width:0.17146429" />
    <path
       inkscape:connector-curvature="0"
       id="path5722-4-8"
       d="m 146.90945,74.989647 a 1.5,1.5 0 0 1 -1.5,1.5 1.5,1.5 0 0 1 -1.5,-1.5 1.5,1.5 0 0 1 1.5,-1.5 1.5,1.5 0 0 1 1.5,1.5 z"
       style="fill:#ff0000;fill-opacity:1;stroke:none;stroke-width:0.17146429" />
    <path
       inkscape:connector-curvature="0"
       id="path5722-8-10"
       d="m 159.03255,74.989647 a 1.5,1.5 0 0 1 -1.5,1.5 1.5,1.5 0 0 1 -1.5,-1.5 1.5,1.5 0 0 1 1.5,-1.5 1.5,1.5 0 0 1 1.5,1.5 z"
       style="fill:#ff0000;fill-opacity:1;stroke:none;stroke-width:0.17146429" />
    <path
       inkscape:connector-curvature="0"
       id="path5722-5-7"
       d="m 171.15561,74.989647 a 1.5,1.5 0 0 1 -1.5,1.5 1.5,1.5 0 0 1 -1.5,-1.5 1.5,1.5 0 0 1 1.5,-1.5 1.5,1.5 0 0 1 1.5,1.5 z"
       style="fill:#ff0000;fill-opacity:1;stroke:none;stroke-width:0.17146429" />
    <path
       inkscape:connector-curvature="0"
       id="path5722-91-7"
       d="m 183.27872,74.989647 a 1.5,1.5 0 0 1 -1.5,1.5 1.5,1.5 0 0 1 -1.5,-1.5 1.5,1.5 0 0 1 1.5,-1.5 1.5,1.5 0 0 1 1.5,1.5 z"
       style="fill:#ff0000;fill-opacity:1;stroke:none;stroke-width:0.17146429" />
    <path
       inkscape:connector-curvature="0"
       id="path5722-79-6"
       d="m 195.40179,74.989647 a 1.5,1.5 0 0 1 -1.5,1.5 1.5,1.5 0 0 1 -1.5,-1.5 1.5,1.5 0 0 1 1.5,-1.5 1.5,1.5 0 0 1 1.5,1.5 z"
       style="fill:#ff0000;fill-opacity:1;stroke:none;stroke-width:0.17146429" />
    <path
       inkscape:connector-curvature="0"
       id="path5722-2-70"
       d="m 86.294014,74.989647 a 1.5,1.5 0 0 1 -1.5,1.5 1.5,1.5 0 0 1 -1.5,-1.5 1.5,1.5 0 0 1 1.5,-1.5 1.5,1.5 0 0 1 1.5,1.5 z"
       style="fill:#ff0000;fill-opacity:1;stroke:none;stroke-width:0.17146429" />
    <path
       inkscape:connector-curvature="0"
       id="path5722-1-9"
       d="m 74.170921,74.989647 a 1.5,1.5 0 0 1 -1.5,1.5 1.5,1.5 0 0 1 -1.5,-1.5 1.5,1.5 0 0 1 1.5,-1.5 1.5,1.5 0 0 1 1.5,1.5 z"
       style="fill:#ff0000;fill-opacity:1;stroke:none;stroke-width:0.17146429" />
    <path
       inkscape:connector-curvature="0"
       id="path5722-794-4"
       d="m 49.924747,74.989647 a 1.5,1.5 0 0 1 -1.5,1.5 1.5,1.5 0 0 1 -1.5,-1.5 1.5,1.5 0 0 1 1.5,-1.5 1.5,1.5 0 0 1 1.5,1.5 z"
       style="fill:#ff0000;fill-opacity:1;stroke:none;stroke-width:0.17146429" />
    <path
       inkscape:connector-curvature="0"
       id="path5722-16"
       d="m 25.678574,85.695 a 1.5,1.5 0 0 1 -1.5,1.5 1.5,1.5 0 0 1 -1.5,-1.5 1.5,1.5 0 0 1 1.5,-1.5 1.5,1.5 0 0 1 1.5,1.5 z"
       style="fill:#ff0000;fill-opacity:1;stroke:none;stroke-width:0.17146428" />
    <path
       inkscape:connector-curvature="0"
       id="path5722-7-8"
       d="m 37.801655,85.695 a 1.5,1.5 0 0 1 -1.5,1.5 1.5,1.5 0 0 1 -1.5,-1.5 1.5,1.5 0 0 1 1.5,-1.5 1.5,1.5 0 0 1 1.5,1.5 z"
       style="fill:#ff0000;fill-opacity:1;stroke:none;stroke-width:0.17146429" />
    <path
       inkscape:connector-curvature="0"
       id="path5722-6-08"
       d="m 62.047832,85.695 a 1.5,1.5 0 0 1 -1.5,1.5 1.5,1.5 0 0 1 -1.5,-1.5 1.5,1.5 0 0 1 1.5,-1.5 1.5,1.5 0 0 1 1.5,1.5 z"
       style="fill:#ff0000;fill-opacity:1;stroke:none;stroke-width:0.17146429" />
    <path
       inkscape:connector-curvature="0"
       id="path5722-73-810"
       d="m 110.54018,85.695 a 1.5,1.5 0 0 1 -1.5,1.5 1.5,1.5 0 0 1 -1.5,-1.5 1.5,1.5 0 0 1 1.5,-1.5 1.5,1.5 0 0 1 1.5,1.5 z"
       style="fill:#ff0000;fill-opacity:1;stroke:none;stroke-width:0.17146429" />
    <path
       inkscape:connector-curvature="0"
       id="path5722-9-2"
       d="m 98.417099,85.695 a 1.5,1.5 0 0 1 -1.5,1.5 1.5,1.5 0 0 1 -1.5,-1.5 1.5,1.5 0 0 1 1.5,-1.5 1.5,1.5 0 0 1 1.5,1.5 z"
       style="fill:#ff0000;fill-opacity:1;stroke:none;stroke-width:0.17146429" />
    <path
       inkscape:connector-curvature="0"
       id="path5722-0-0"
       d="m 122.66328,85.695 a 1.5,1.5 0 0 1 -1.5,1.5 1.5,1.5 0 0 1 -1.5,-1.5 1.5,1.5 0 0 1 1.5,-1.5 1.5,1.5 0 0 1 1.5,1.5 z"
       style="fill:#ff0000;fill-opacity:1;stroke:none;stroke-width:0.17146429" />
    <path
       inkscape:connector-curvature="0"
       id="path5722-78-6"
       d="m 134.78635,85.695 a 1.5,1.5 0 0 1 -1.5,1.5 1.5,1.5 0 0 1 -1.5,-1.5 1.5,1.5 0 0 1 1.5,-1.5 1.5,1.5 0 0 1 1.5,1.5 z"
       style="fill:#ff0000;fill-opacity:1;stroke:none;stroke-width:0.17146429" />
    <path
       inkscape:connector-curvature="0"
       id="path5722-4-2"
       d="m 146.90945,85.695 a 1.5,1.5 0 0 1 -1.5,1.5 1.5,1.5 0 0 1 -1.5,-1.5 1.5,1.5 0 0 1 1.5,-1.5 1.5,1.5 0 0 1 1.5,1.5 z"
       style="fill:#ff0000;fill-opacity:1;stroke:none;stroke-width:0.17146429" />
    <path
       inkscape:connector-curvature="0"
       id="path5722-8-2"
       d="m 159.03255,85.695 a 1.5,1.5 0 0 1 -1.5,1.5 1.5,1.5 0 0 1 -1.5,-1.5 1.5,1.5 0 0 1 1.5,-1.5 1.5,1.5 0 0 1 1.5,1.5 z"
       style="fill:#ff0000;fill-opacity:1;stroke:none;stroke-width:0.17146429" />
    <path
       inkscape:connector-curvature="0"
       id="path5722-5-74"
       d="m 171.15561,85.695 a 1.5,1.5 0 0 1 -1.5,1.5 1.5,1.5 0 0 1 -1.5,-1.5 1.5,1.5 0 0 1 1.5,-1.5 1.5,1.5 0 0 1 1.5,1.5 z"
       style="fill:#ff0000;fill-opacity:1;stroke:none;stroke-width:0.17146429" />
    <path
       inkscape:connector-curvature="0"
       id="path5722-91-63"
       d="m 183.27872,85.695 a 1.5,1.5 0 0 1 -1.5,1.5 1.5,1.5 0 0 1 -1.5,-1.5 1.5,1.5 0 0 1 1.5,-1.5 1.5,1.5 0 0 1 1.5,1.5 z"
       style="fill:#ff0000;fill-opacity:1;stroke:none;stroke-width:0.17146429" />
    <path
       inkscape:connector-curvature="0"
       id="path5722-79-66"
       d="m 195.40179,85.695 a 1.5,1.5 0 0 1 -1.5,1.5 1.5,1.5 0 0 1 -1.5,-1.5 1.5,1.5 0 0 1 1.5,-1.5 1.5,1.5 0 0 1 1.5,1.5 z"
       style="fill:#ff0000;fill-opacity:1;stroke:none;stroke-width:0.17146429" />
    <path
       inkscape:connector-curvature="0"
       id="path5722-2-5"
       d="m 86.294014,85.695 a 1.5,1.5 0 0 1 -1.5,1.5 1.5,1.5 0 0 1 -1.5,-1.5 1.5,1.5 0 0 1 1.5,-1.5 1.5,1.5 0 0 1 1.5,1.5 z"
       style="fill:#ff0000;fill-opacity:1;stroke:none;stroke-width:0.17146429" />
    <path
       inkscape:connector-curvature="0"
       id="path5722-1-4"
       d="m 74.170921,85.695 a 1.5,1.5 0 0 1 -1.5,1.5 1.5,1.5 0 0 1 -1.5,-1.5 1.5,1.5 0 0 1 1.5,-1.5 1.5,1.5 0 0 1 1.5,1.5 z"
       style="fill:#ff0000;fill-opacity:1;stroke:none;stroke-width:0.17146429" />
    <path
       inkscape:connector-curvature="0"
       id="path5722-794-9"
       d="m 49.924747,85.695 a 1.5,1.5 0 0 1 -1.5,1.5 1.5,1.5 0 0 1 -1.5,-1.5 1.5,1.5 0 0 1 1.5,-1.5 1.5,1.5 0 0 1 1.5,1.5 z"
       style="fill:#ff0000;fill-opacity:1;stroke:none;stroke-width:0.17146429" />
    <path
       style="fill:#ff0000;fill-opacity:1;stroke:none;stroke-width:0.13674816"
       d="m 25.20015,127.47768 a 2,2 0 0 1 -2,2 2,2 0 0 1 -2,-2 2,2 0 0 1 2,-2 2,2 0 0 1 2,2 z"
       id="path6258" />
    <path
       style="fill:#ff0000;fill-opacity:1;stroke:none;stroke-width:0.13674816"
       d="m 196.88022,127.47768 a 2,2 0 0 1 -2,2 2,2 0 0 1 -2,-2 2,2 0 0 1 2,-2 2,2 0 0 1 2,2 z"
       id="path6258-7" />
    <path
       style="fill:#ff0000;fill-opacity:1;stroke:none;stroke-width:0.26458332"
       d="m 15.308036,25.424107 h 10 v 10 h -10 z"
       id="rect6281" />
  </g>
</svg>
